%TF.GenerationSoftware,KiCad,Pcbnew,8.0.3*%
%TF.CreationDate,2024-09-11T17:16:24-04:00*%
%TF.ProjectId,cover_plate,636f7665-725f-4706-9c61-74652e6b6963,rev?*%
%TF.SameCoordinates,Original*%
%TF.FileFunction,Drillmap*%
%TF.FilePolarity,Positive*%
%FSLAX45Y45*%
G04 Gerber Fmt 4.5, Leading zero omitted, Abs format (unit mm)*
G04 Created by KiCad (PCBNEW 8.0.3) date 2024-09-11 17:16:24*
%MOMM*%
%LPD*%
G01*
G04 APERTURE LIST*
%ADD10C,0.100000*%
%ADD11C,0.200000*%
%ADD12C,0.220000*%
G04 APERTURE END LIST*
D10*
X27402095Y-18898355D02*
G75*
G02*
X27452095Y-18948355I-5J-50005D01*
G01*
X17379645Y-16578355D02*
G75*
G02*
X17329645Y-16528355I-5J49995D01*
G01*
X26452145Y-14668355D02*
G75*
G02*
X26402145Y-14618355I-5J49995D01*
G01*
X12127145Y-12758355D02*
X13427145Y-12758355D01*
X39928395Y-15767155D02*
X39867195Y-15767155D01*
X22072145Y-14618355D02*
X22072145Y-13318355D01*
X39928395Y-15767155D02*
G75*
G02*
X39978395Y-15817155I-5J-50005D01*
G01*
X46874185Y-10592195D02*
X48174185Y-10592195D01*
X28757145Y-12708355D02*
G75*
G02*
X28707145Y-12758365I-50005J-5D01*
G01*
X20244645Y-18488355D02*
G75*
G02*
X20194645Y-18438355I-5J49995D01*
G01*
X31227145Y-12758355D02*
X32527145Y-12758355D01*
X51835605Y-15233675D02*
X50535605Y-15233675D01*
X22977145Y-11358355D02*
G75*
G02*
X23027145Y-11408355I-5J-50005D01*
G01*
X48277065Y-18992795D02*
X46977065Y-18992795D01*
X31177145Y-11408355D02*
G75*
G02*
X31227145Y-11358365I49995J-5D01*
G01*
X16342145Y-20348355D02*
X16342145Y-19048355D01*
X23982145Y-14618355D02*
G75*
G02*
X23932145Y-14668365I-50005J-5D01*
G01*
X22627195Y-18898355D02*
G75*
G02*
X22677195Y-18948355I-5J-50005D01*
G01*
X20162145Y-14618355D02*
X20162145Y-13318355D01*
X34042145Y-13318355D02*
X34042145Y-14618355D01*
X16902145Y-14668355D02*
G75*
G02*
X16852145Y-14618355I-5J49995D01*
G01*
X30749645Y-16578355D02*
G75*
G02*
X30699645Y-16528355I-5J49995D01*
G01*
X21833395Y-20348355D02*
X21833395Y-19048355D01*
X27357145Y-11408355D02*
X27357145Y-12708355D01*
X16342145Y-14618355D02*
G75*
G02*
X16292145Y-14668365I-50005J-5D01*
G01*
X31512145Y-18998355D02*
X31512145Y-18948360D01*
X23587145Y-12758355D02*
X24887145Y-12758355D01*
X18679645Y-15178355D02*
G75*
G02*
X18729645Y-15228355I-5J-50005D01*
G01*
X36002145Y-14668355D02*
G75*
G02*
X35952145Y-14618355I-5J49995D01*
G01*
X50485605Y-11463675D02*
G75*
G02*
X50535605Y-11413685I49995J-5D01*
G01*
X32659645Y-16578355D02*
G75*
G02*
X32609645Y-16528355I-5J49995D01*
G01*
X13126645Y-18488855D02*
X14814645Y-18488855D01*
X20732145Y-18898355D02*
G75*
G02*
X20782145Y-18948355I-5J-50005D01*
G01*
X28312145Y-13318355D02*
X28312145Y-14618355D01*
X28789645Y-15228355D02*
X28789645Y-16528355D01*
X38389645Y-14668355D02*
G75*
G02*
X38339645Y-14618355I-5J49995D01*
G01*
X39689645Y-13268355D02*
X38389645Y-13268355D01*
X48174185Y-9192195D02*
G75*
G02*
X48224185Y-9242195I-5J-50005D01*
G01*
X33614645Y-20398355D02*
X35153395Y-20398355D01*
X21677145Y-12758355D02*
X22977145Y-12758355D01*
X48224185Y-10542195D02*
X48224185Y-9242195D01*
X28789645Y-15228355D02*
G75*
G02*
X28839645Y-15178365I49995J-5D01*
G01*
X32527145Y-11358355D02*
G75*
G02*
X32577145Y-11408355I-5J-50005D01*
G01*
X22582145Y-13318355D02*
X22582145Y-14618355D01*
X28312145Y-13318355D02*
G75*
G02*
X28362145Y-13268365I49995J-5D01*
G01*
X37718345Y-12808355D02*
G75*
G02*
X37668345Y-12858365I-50005J-5D01*
G01*
X18252145Y-14618355D02*
X18252145Y-13318355D01*
X26797145Y-11358355D02*
G75*
G02*
X26847145Y-11408355I-5J-50005D01*
G01*
X22677195Y-20348355D02*
X22677195Y-18948355D01*
X22154645Y-18488355D02*
X23454645Y-18488355D01*
X20589645Y-15178355D02*
X19289645Y-15178355D01*
X14703395Y-19048355D02*
X14703395Y-20348355D01*
X36240895Y-18488355D02*
G75*
G02*
X36190895Y-18438355I-5J49995D01*
G01*
X31094645Y-17088355D02*
G75*
G02*
X31144645Y-17138355I-5J-50005D01*
G01*
X32816127Y-20348355D02*
G75*
G02*
X32765913Y-20398598I-50238J-5D01*
G01*
X38389645Y-14668355D02*
X38578395Y-14668355D01*
X27834645Y-17138355D02*
X27834645Y-18438355D01*
X31654645Y-17138355D02*
G75*
G02*
X31704645Y-17088365I49995J-5D01*
G01*
X16852145Y-13318355D02*
G75*
G02*
X16902145Y-13268365I49995J-5D01*
G01*
X15419645Y-15228355D02*
G75*
G02*
X15469645Y-15178365I49995J-5D01*
G01*
X12365895Y-18488355D02*
X12427095Y-18488855D01*
X27752145Y-13268355D02*
G75*
G02*
X27802145Y-13318355I-5J-50005D01*
G01*
X16852145Y-13318355D02*
X16852145Y-14618355D01*
X18762145Y-13318355D02*
X18762145Y-14618355D01*
X16342145Y-14618355D02*
X16342145Y-13318355D01*
X14814645Y-18488855D02*
X14814645Y-18538355D01*
X25924645Y-17138355D02*
G75*
G02*
X25974645Y-17088365I49995J-5D01*
G01*
X21067145Y-11358355D02*
X19767145Y-11358355D01*
X51835605Y-13323675D02*
G75*
G02*
X51885605Y-13373675I-5J-50005D01*
G01*
X20194645Y-17138355D02*
X20194645Y-18438355D01*
X24459645Y-16528355D02*
X24459645Y-15228355D01*
X33482145Y-13268355D02*
G75*
G02*
X33532145Y-13318355I-5J-50005D01*
G01*
X34437145Y-11358355D02*
G75*
G02*
X34487145Y-11408355I-5J-50005D01*
G01*
X23932145Y-13268355D02*
X22632145Y-13268355D01*
X29317145Y-12758355D02*
X30617145Y-12758355D01*
X31177145Y-11408355D02*
X31177145Y-12708355D01*
X30617145Y-11358355D02*
X29317145Y-11358355D01*
X53210000Y-11456000D02*
G75*
G02*
X52770000Y-11456000I-220000J0D01*
G01*
X52770000Y-11456000D02*
G75*
G02*
X53210000Y-11456000I220000J0D01*
G01*
X32182145Y-14668355D02*
G75*
G02*
X32132145Y-14618355I-5J49995D01*
G01*
X45018245Y-17130975D02*
X45018245Y-18430975D01*
X44509445Y-20340015D02*
X44509445Y-19040015D01*
X31704645Y-18488355D02*
G75*
G02*
X31654645Y-18438355I-5J49995D01*
G01*
X25842145Y-13268355D02*
X24542145Y-13268355D01*
X35203975Y-20348001D02*
G75*
G02*
X35153065Y-20398945I-50585J-359D01*
G01*
X34914645Y-17088355D02*
G75*
G02*
X34964645Y-17138355I-5J-50005D01*
G01*
X33004645Y-17088355D02*
G75*
G02*
X33054645Y-17138355I-5J-50005D01*
G01*
X21783395Y-18998355D02*
G75*
G02*
X21833395Y-19048355I-5J-50005D01*
G01*
X33614645Y-20398355D02*
G75*
G02*
X33564645Y-20348355I-5J49995D01*
G01*
X50489355Y-9554355D02*
G75*
G02*
X50539355Y-9504355I50005J-5D01*
G01*
X22027195Y-20398355D02*
X22627195Y-20398355D01*
X21544645Y-17088355D02*
G75*
G02*
X21594645Y-17138355I-5J-50005D01*
G01*
X18729645Y-16528355D02*
X18729645Y-15228355D01*
X35392145Y-13268355D02*
G75*
G02*
X35442145Y-13318355I-5J-50005D01*
G01*
X27802145Y-14618355D02*
G75*
G02*
X27752145Y-14668365I-50005J-5D01*
G01*
X16902145Y-14668355D02*
X18202145Y-14668355D01*
X12315676Y-17138355D02*
G75*
G02*
X12365765Y-17088176I50184J-5D01*
G01*
X23027145Y-12708355D02*
X23027145Y-11408355D01*
X24064645Y-18488355D02*
X25364645Y-18488355D01*
X30139645Y-15178355D02*
X28839645Y-15178355D01*
X20639645Y-16528355D02*
G75*
G02*
X20589645Y-16578365I-50005J-5D01*
G01*
X50535605Y-12813675D02*
X51835605Y-12813675D01*
X19684645Y-18438355D02*
X19684645Y-17138355D01*
X21833395Y-20348355D02*
G75*
G02*
X21783395Y-20398355I-49995J-5D01*
G01*
X45018245Y-19040975D02*
G75*
G02*
X45068245Y-18990985I49995J-5D01*
G01*
X39739645Y-14079555D02*
X39739645Y-14223355D01*
X37068345Y-12858355D02*
X37668345Y-12858355D01*
X29794645Y-18488355D02*
G75*
G02*
X29744645Y-18438355I-5J49995D01*
G01*
X18334645Y-18488355D02*
X19634645Y-18488355D01*
X36479645Y-16578355D02*
X36779595Y-16578355D01*
X29794645Y-18488355D02*
X31094645Y-18488355D01*
X28229645Y-15178355D02*
G75*
G02*
X28279645Y-15228355I-5J-50005D01*
G01*
X20639645Y-16528355D02*
X20639645Y-15228355D01*
X12477095Y-18588355D02*
G75*
G02*
X12427095Y-18538355I-5J49995D01*
G01*
X34092145Y-14668355D02*
X35392145Y-14668355D01*
X30699645Y-15228355D02*
G75*
G02*
X30749645Y-15178365I49995J-5D01*
G01*
X18202145Y-13268355D02*
X16902145Y-13268355D01*
X20722145Y-14668355D02*
X22022145Y-14668355D01*
X26452145Y-14668355D02*
X27752145Y-14668355D01*
X28362145Y-14668355D02*
G75*
G02*
X28312145Y-14618355I-5J49995D01*
G01*
X30272145Y-14668355D02*
X31572145Y-14668355D01*
X16819645Y-16528355D02*
X16819645Y-15228355D01*
X51885605Y-18493675D02*
X51885605Y-17193675D01*
X51885605Y-18493675D02*
G75*
G02*
X51835605Y-18543685I-50005J-5D01*
G01*
X40174145Y-11358355D02*
X36957145Y-11358355D01*
X39772845Y-9325115D02*
G75*
G02*
X39872845Y-9225125I99995J-5D01*
G01*
X34569645Y-16578355D02*
X35869645Y-16578355D01*
X27274645Y-17088355D02*
X25974645Y-17088355D01*
X24409645Y-15178355D02*
X23109645Y-15178355D01*
X14143395Y-15178355D02*
X12365895Y-15178355D01*
X39023395Y-16528355D02*
X39023395Y-16467155D01*
X31415895Y-19048355D02*
G75*
G02*
X31465895Y-18998365I49995J-5D01*
G01*
X32099645Y-16528355D02*
G75*
G02*
X32049645Y-16578365I-50005J-5D01*
G01*
X30303395Y-20348355D02*
X30303395Y-18948355D01*
X29267145Y-11408355D02*
X29267145Y-12708355D01*
X50535605Y-14723675D02*
X51835605Y-14723675D01*
X33532145Y-14618355D02*
G75*
G02*
X33482145Y-14668365I-50005J-5D01*
G01*
X28279645Y-16528355D02*
G75*
G02*
X28229645Y-16578365I-50005J-5D01*
G01*
X30189645Y-16528355D02*
G75*
G02*
X30139645Y-16578365I-50005J-5D01*
G01*
X39772845Y-9325115D02*
X39772845Y-10700115D01*
X13427145Y-11358355D02*
G75*
G02*
X13477145Y-11408355I-5J-50005D01*
G01*
X39217195Y-16678355D02*
G75*
G02*
X39167195Y-16628355I-5J49995D01*
G01*
X45670345Y-10547615D02*
G75*
G02*
X45620345Y-10597625I-50005J-5D01*
G01*
X13954645Y-14618355D02*
G75*
G02*
X13904645Y-14668365I-50005J-5D01*
G01*
X12554645Y-13318355D02*
X12554645Y-14618355D01*
X51889355Y-10854355D02*
X51889355Y-9554355D01*
X23827000Y-20398355D02*
X27402095Y-20398355D01*
X28839645Y-16578355D02*
G75*
G02*
X28789645Y-16528355I-5J49995D01*
G01*
X37352145Y-14618355D02*
G75*
G02*
X37302145Y-14668365I-50005J-5D01*
G01*
X27407145Y-12758355D02*
X28707145Y-12758355D01*
X17297145Y-12708355D02*
G75*
G02*
X17247145Y-12758365I-50005J-5D01*
G01*
X39405945Y-12758355D02*
X39405945Y-12808355D01*
X25497145Y-12758355D02*
G75*
G02*
X25447145Y-12708355I-5J49995D01*
G01*
X22549645Y-16528355D02*
X22549645Y-15228355D01*
X23537145Y-11408355D02*
G75*
G02*
X23587145Y-11358365I49995J-5D01*
G01*
X46368245Y-18990975D02*
G75*
G02*
X46418245Y-19040975I-5J-50005D01*
G01*
X35919645Y-16528355D02*
G75*
G02*
X35869645Y-16578365I-50005J-5D01*
G01*
X26879645Y-15228355D02*
X26879645Y-16528355D01*
X23982145Y-14618355D02*
X23982145Y-13318355D01*
X21627145Y-11408355D02*
G75*
G02*
X21677145Y-11358365I49995J-5D01*
G01*
X27452095Y-20348355D02*
X27452095Y-18948355D01*
X27452095Y-20348355D02*
G75*
G02*
X27402095Y-20398365I-50005J-5D01*
G01*
X39739645Y-13379555D02*
X39739645Y-13318355D01*
X51839355Y-9504355D02*
X50539355Y-9504355D01*
X26369645Y-16528355D02*
X26369645Y-15228355D01*
X33004645Y-17088355D02*
X31704645Y-17088355D01*
X29712145Y-14618355D02*
X29712145Y-13318355D01*
X20589645Y-15178355D02*
G75*
G02*
X20639645Y-15228355I-5J-50005D01*
G01*
X32049645Y-15178355D02*
X30749645Y-15178355D01*
X32212145Y-18998355D02*
X32212145Y-18948360D01*
X39872845Y-10800115D02*
X43697845Y-10800115D01*
X39928395Y-13379555D02*
G75*
G02*
X39978395Y-13429555I-5J-50005D01*
G01*
X23775895Y-19048355D02*
G75*
G02*
X23825895Y-18998365I49995J-5D01*
G01*
X33137145Y-12758355D02*
G75*
G02*
X33087145Y-12708355I-5J49995D01*
G01*
X37018345Y-12758355D02*
X37018345Y-12808355D01*
X39867195Y-16628355D02*
X39867195Y-16467155D01*
X37540895Y-17088355D02*
G75*
G02*
X37590895Y-17138355I-5J-50005D01*
G01*
X39978395Y-14029555D02*
X39978395Y-13429555D01*
X43772845Y-10725115D02*
G75*
G02*
X43697845Y-10800125I-75005J-5D01*
G01*
X33614645Y-18488355D02*
G75*
G02*
X33564645Y-18438355I-5J49995D01*
G01*
X50535605Y-16633675D02*
G75*
G02*
X50485605Y-16583675I-5J49995D01*
G01*
X35869645Y-15178355D02*
G75*
G02*
X35919645Y-15228355I-5J-50005D01*
G01*
X21977195Y-18948355D02*
X21977195Y-20348355D01*
X26797145Y-11358355D02*
X25497145Y-11358355D01*
X38339645Y-13318355D02*
G75*
G02*
X38389645Y-13268365I49995J-5D01*
G01*
X39867195Y-16467155D02*
X39928395Y-16467155D01*
X29189695Y-20398355D02*
X30253395Y-20398355D01*
X37540895Y-17088355D02*
X36240895Y-17088355D01*
X40105945Y-12808355D02*
G75*
G02*
X40055945Y-12858365I-50005J-5D01*
G01*
X32099645Y-16528355D02*
X32099645Y-15228355D01*
X12316000Y-20349000D02*
X12316000Y-19049000D01*
X39872845Y-10800115D02*
G75*
G02*
X39772845Y-10700115I-5J99995D01*
G01*
X46368245Y-18990975D02*
X45068245Y-18990975D01*
X23827000Y-20398504D02*
G75*
G02*
X23775734Y-20348355I-1110J50144D01*
G01*
X30222145Y-13318355D02*
G75*
G02*
X30272145Y-13268365I49995J-5D01*
G01*
X31572145Y-13268355D02*
G75*
G02*
X31622145Y-13318355I-5J-50005D01*
G01*
X27884645Y-18488355D02*
X29184645Y-18488355D01*
X24492145Y-13318355D02*
X24492145Y-14618355D01*
X45068245Y-20390975D02*
X46368245Y-20390975D01*
X44320345Y-10597615D02*
X45620345Y-10597615D01*
X34964645Y-18438355D02*
X34964645Y-17138355D01*
X25447145Y-11408355D02*
G75*
G02*
X25497145Y-11358365I49995J-5D01*
G01*
X39455945Y-12858355D02*
G75*
G02*
X39405945Y-12808355I-5J49995D01*
G01*
X51885605Y-14673675D02*
X51885605Y-13373675D01*
X14942145Y-13318355D02*
G75*
G02*
X14992145Y-13268365I49995J-5D01*
G01*
X26879645Y-15228355D02*
G75*
G02*
X26929645Y-15178365I49995J-5D01*
G01*
X37479595Y-16628355D02*
G75*
G02*
X37429595Y-16678365I-50005J-5D01*
G01*
X14864695Y-18588355D02*
X15464695Y-18588355D01*
X34009645Y-16528355D02*
G75*
G02*
X33959645Y-16578365I-50005J-5D01*
G01*
X26752095Y-18997855D02*
X23825895Y-18998355D01*
X15864645Y-18438355D02*
G75*
G02*
X15814645Y-18488365I-50005J-5D01*
G01*
X24542145Y-14668355D02*
G75*
G02*
X24492145Y-14618355I-5J49995D01*
G01*
X50539355Y-10904355D02*
G75*
G02*
X50489365Y-10854355I5J49995D01*
G01*
X21977195Y-18948355D02*
G75*
G02*
X22027195Y-18898365I49995J-5D01*
G01*
X14992145Y-14668355D02*
X16292145Y-14668355D01*
X28707145Y-11358355D02*
G75*
G02*
X28757145Y-11408355I-5J-50005D01*
G01*
X31144645Y-18438355D02*
X31144645Y-17138355D01*
X53237000Y-8047325D02*
X53237000Y-21242325D01*
X53227325Y-21252000D01*
X8034605Y-21252000D01*
X7518872Y-20736267D01*
X7518872Y-11634085D01*
X8022281Y-11130676D01*
X8022281Y-11130000D01*
X8047781Y-11104500D01*
X39026105Y-11104500D01*
X39051605Y-11079000D01*
X39051605Y-8264000D01*
X39268605Y-8047000D01*
X53233325Y-8047000D01*
X53235000Y-8045325D01*
X53237000Y-8047325D01*
X34487145Y-12708355D02*
G75*
G02*
X34437145Y-12758365I-50005J-5D01*
G01*
X8255000Y-12993000D02*
G75*
G02*
X7815000Y-12993000I-220000J0D01*
G01*
X7815000Y-12993000D02*
G75*
G02*
X8255000Y-12993000I220000J0D01*
G01*
X8254000Y-16186000D02*
G75*
G02*
X7814000Y-16186000I-220000J0D01*
G01*
X7814000Y-16186000D02*
G75*
G02*
X8254000Y-16186000I220000J0D01*
G01*
X27802145Y-14618355D02*
X27802145Y-13318355D01*
X22627195Y-18898355D02*
X22027195Y-18898355D01*
X48224185Y-10542195D02*
G75*
G02*
X48174185Y-10592205I-50005J-5D01*
G01*
X43109445Y-19040015D02*
G75*
G02*
X43159445Y-18990025I49995J-5D01*
G01*
X39978395Y-15573355D02*
G75*
G02*
X39928395Y-15623365I-50005J-5D01*
G01*
X36397145Y-12708355D02*
X36397145Y-11408355D01*
X21149645Y-15228355D02*
G75*
G02*
X21199645Y-15178365I49995J-5D01*
G01*
X29744645Y-17138355D02*
G75*
G02*
X29794645Y-17088365I49995J-5D01*
G01*
X40174000Y-11358355D02*
G75*
G02*
X40217613Y-11408355I-6860J-50005D01*
G01*
X19207145Y-12708355D02*
G75*
G02*
X19157145Y-12758365I-50005J-5D01*
G01*
X21783395Y-18998355D02*
X20782145Y-18997855D01*
X25019645Y-16578355D02*
G75*
G02*
X24969645Y-16528355I-5J49995D01*
G01*
X30667145Y-12708355D02*
G75*
G02*
X30617145Y-12758365I-50005J-5D01*
G01*
X25364645Y-17088355D02*
X24064645Y-17088355D01*
X13127095Y-18538355D02*
X13126645Y-18488855D01*
X34009645Y-16528355D02*
X34009645Y-15228355D01*
X8708000Y-12175000D02*
X10159000Y-12175000D01*
X10159000Y-20226000D01*
X8708000Y-20226000D01*
X8708000Y-12175000D01*
X21199645Y-16578355D02*
X22499645Y-16578355D01*
X48174185Y-9192195D02*
X46874185Y-9192195D01*
X51839355Y-9504355D02*
G75*
G02*
X51889365Y-9554355I5J-50005D01*
G01*
X15469645Y-16578355D02*
X16769645Y-16578355D01*
X46418245Y-18430975D02*
X46418245Y-17130975D01*
X19207145Y-12708355D02*
X19207145Y-11408355D01*
X46977065Y-20392795D02*
X48277065Y-20392795D01*
X43159445Y-20390015D02*
X44459445Y-20390015D01*
X18729645Y-20348355D02*
G75*
G02*
X18679645Y-20398365I-50005J-5D01*
G01*
X35153537Y-18998214D02*
G75*
G02*
X35203537Y-19048355I-147J-50147D01*
G01*
X26847145Y-12708355D02*
G75*
G02*
X26797145Y-12758365I-50005J-5D01*
G01*
X32577145Y-12708355D02*
X32577145Y-11408355D01*
X32815895Y-20348000D02*
X32815895Y-19048360D01*
X16769645Y-15178355D02*
G75*
G02*
X16819645Y-15228355I-5J-50005D01*
G01*
X46418245Y-20340975D02*
X46418245Y-19040975D01*
X19157145Y-11358355D02*
G75*
G02*
X19207145Y-11408355I-5J-50005D01*
G01*
X13477145Y-12708355D02*
X13477145Y-11408355D01*
X20194645Y-17138355D02*
G75*
G02*
X20244645Y-17088365I49995J-5D01*
G01*
X50485605Y-13373675D02*
X50485605Y-14673675D01*
X16292145Y-18998355D02*
X14753395Y-18998355D01*
X33054645Y-18438355D02*
X33054645Y-17138355D01*
X35442145Y-14618355D02*
G75*
G02*
X35392145Y-14668365I-50005J-5D01*
G01*
X27834645Y-17138355D02*
G75*
G02*
X27884645Y-17088365I49995J-5D01*
G01*
X32527145Y-11358355D02*
X31227145Y-11358355D01*
X22104645Y-17138355D02*
X22104645Y-18438355D01*
X34997145Y-11408355D02*
X34997145Y-12708355D01*
X36479645Y-16578355D02*
G75*
G02*
X36429645Y-16528355I-5J49995D01*
G01*
X21067145Y-11358355D02*
G75*
G02*
X21117145Y-11408355I-5J-50005D01*
G01*
X24492145Y-13318355D02*
G75*
G02*
X24542145Y-13268365I49995J-5D01*
G01*
X51835605Y-13323675D02*
X50535605Y-13323675D01*
X16292145Y-13268355D02*
G75*
G02*
X16342145Y-13318355I-5J-50005D01*
G01*
X46418245Y-18430975D02*
G75*
G02*
X46368245Y-18480985I-50005J-5D01*
G01*
X45068245Y-18480975D02*
G75*
G02*
X45018245Y-18430975I-5J49995D01*
G01*
X37068345Y-12858355D02*
G75*
G02*
X37018345Y-12808355I-5J49995D01*
G01*
X13907000Y-20399000D02*
X12366000Y-20399000D01*
X28757145Y-12708355D02*
X28757145Y-11408355D01*
X22022145Y-13268355D02*
X20722145Y-13268355D01*
X25924645Y-17138355D02*
X25924645Y-18438355D01*
X22499645Y-15178355D02*
X21199645Y-15178355D01*
X39739645Y-14079555D02*
X39928395Y-14079555D01*
X22027195Y-20398355D02*
G75*
G02*
X21977195Y-20348355I-5J49995D01*
G01*
X32182145Y-14668355D02*
X33482145Y-14668355D01*
X17724645Y-17088355D02*
G75*
G02*
X17774645Y-17138355I-5J-50005D01*
G01*
X21594645Y-18438355D02*
G75*
G02*
X21544645Y-18488365I-50005J-5D01*
G01*
X19717145Y-11408355D02*
X19717145Y-12708355D01*
X38339645Y-13318355D02*
X38339645Y-14618355D01*
X39867195Y-15623355D02*
X39928395Y-15623355D01*
X24887145Y-11358355D02*
X23587145Y-11358355D01*
X17857145Y-12758355D02*
G75*
G02*
X17807145Y-12708355I-5J49995D01*
G01*
X30189645Y-16528355D02*
X30189645Y-15228355D01*
X28839645Y-16578355D02*
X30139645Y-16578355D01*
X31622145Y-14618355D02*
G75*
G02*
X31572145Y-14668365I-50005J-5D01*
G01*
X24887145Y-11358355D02*
G75*
G02*
X24937145Y-11408355I-5J-50005D01*
G01*
X39928395Y-14223355D02*
X39739645Y-14223355D01*
X39167195Y-16467155D02*
X39167195Y-16628355D01*
X46418245Y-20340975D02*
G75*
G02*
X46368245Y-20390985I-50005J-5D01*
G01*
X37718345Y-12808355D02*
X37718345Y-12758355D01*
X12315895Y-15228355D02*
X12315895Y-16528355D01*
X22632145Y-14668355D02*
X23932145Y-14668355D01*
X31512145Y-18948360D02*
G75*
G02*
X31562145Y-18898365I49995J0D01*
G01*
X18729645Y-19048355D02*
X18729645Y-20348355D01*
X25414645Y-18438355D02*
G75*
G02*
X25364645Y-18488365I-50005J-5D01*
G01*
X19639595Y-20398355D02*
X21783000Y-20398355D01*
X13907000Y-18999000D02*
G75*
G02*
X13957000Y-19049000I0J-50000D01*
G01*
X50485605Y-17193675D02*
G75*
G02*
X50535605Y-17143685I49995J-5D01*
G01*
X21677145Y-12758355D02*
G75*
G02*
X21627145Y-12708355I-5J49995D01*
G01*
X46874185Y-10592195D02*
G75*
G02*
X46824185Y-10542195I-5J49995D01*
G01*
X31622145Y-14618355D02*
X31622145Y-13318355D01*
X35047145Y-12758355D02*
X36347145Y-12758355D01*
X33564645Y-17138355D02*
X33564645Y-18438355D01*
X18812145Y-14668355D02*
X20112145Y-14668355D01*
X17297145Y-12708355D02*
X17297145Y-11408355D01*
X17329645Y-15228355D02*
G75*
G02*
X17379645Y-15178365I49995J-5D01*
G01*
X39689645Y-13268355D02*
G75*
G02*
X39739645Y-13318355I-5J-50005D01*
G01*
X51885605Y-16583675D02*
G75*
G02*
X51835605Y-16633685I-50005J-5D01*
G01*
X39978395Y-16417155D02*
G75*
G02*
X39928395Y-16467165I-50005J-5D01*
G01*
X16374645Y-17138355D02*
X16374645Y-18438355D01*
X26752095Y-18948355D02*
X26752095Y-18997855D01*
X12604645Y-14668355D02*
G75*
G02*
X12554645Y-14618355I-5J49995D01*
G01*
X34437145Y-11358355D02*
X33137145Y-11358355D01*
X12316000Y-19049000D02*
G75*
G02*
X12366000Y-18999000I50000J0D01*
G01*
X29184645Y-17088355D02*
G75*
G02*
X29234645Y-17138355I-5J-50005D01*
G01*
X34964645Y-18438355D02*
G75*
G02*
X34914645Y-18488365I-50005J-5D01*
G01*
X27407145Y-12758355D02*
G75*
G02*
X27357145Y-12708355I-5J49995D01*
G01*
X25447145Y-11408355D02*
X25447145Y-12708355D01*
X29184645Y-17088355D02*
X27884645Y-17088355D01*
X29317145Y-12758355D02*
G75*
G02*
X29267145Y-12708355I-5J49995D01*
G01*
X17088539Y-19047711D02*
X17088539Y-20347711D01*
X31654645Y-17138355D02*
X31654645Y-18438355D01*
X8257000Y-19366000D02*
G75*
G02*
X7817000Y-19366000I-220000J0D01*
G01*
X7817000Y-19366000D02*
G75*
G02*
X8257000Y-19366000I220000J0D01*
G01*
X19239645Y-15228355D02*
G75*
G02*
X19289645Y-15178365I49995J-5D01*
G01*
X28995895Y-20348355D02*
G75*
G02*
X28945895Y-20398365I-50005J-5D01*
G01*
X15947145Y-12758355D02*
X17247145Y-12758355D01*
X31094645Y-17088355D02*
X29794645Y-17088355D01*
X33532145Y-14618355D02*
X33532145Y-13318355D01*
X29662145Y-13268355D02*
X28362145Y-13268355D01*
X23059645Y-15228355D02*
G75*
G02*
X23109645Y-15178365I49995J-5D01*
G01*
X17724645Y-17088355D02*
X16424645Y-17088355D01*
X19634645Y-17088355D02*
G75*
G02*
X19684645Y-17138355I-5J-50005D01*
G01*
X24064645Y-18488355D02*
G75*
G02*
X24014645Y-18438355I-5J49995D01*
G01*
X24459645Y-16528355D02*
G75*
G02*
X24409645Y-16578365I-50005J-5D01*
G01*
X33959645Y-15178355D02*
X32659645Y-15178355D01*
X37479595Y-16628355D02*
X37479595Y-16578355D01*
X33087145Y-11408355D02*
G75*
G02*
X33137145Y-11358365I49995J-5D01*
G01*
X15337145Y-11358355D02*
X14037145Y-11358355D01*
X30617145Y-11358355D02*
G75*
G02*
X30667145Y-11408355I-5J-50005D01*
G01*
X50485605Y-15283675D02*
G75*
G02*
X50535605Y-15233685I49995J-5D01*
G01*
X19157145Y-11358355D02*
X17857145Y-11358355D01*
X50535605Y-12813675D02*
G75*
G02*
X50485605Y-12763675I-5J49995D01*
G01*
X45018245Y-19040975D02*
X45018245Y-20340975D01*
X29712145Y-14618355D02*
G75*
G02*
X29662145Y-14668365I-50005J-5D01*
G01*
X27324645Y-18438355D02*
X27324645Y-17138355D01*
X34042145Y-13318355D02*
G75*
G02*
X34092145Y-13268365I49995J-5D01*
G01*
X26929645Y-16578355D02*
G75*
G02*
X26879645Y-16528355I-5J49995D01*
G01*
X12604645Y-14668355D02*
X13904645Y-14668355D01*
X27324645Y-18438355D02*
G75*
G02*
X27274645Y-18488365I-50005J-5D01*
G01*
X46927065Y-19042795D02*
X46927065Y-20342795D01*
X51889355Y-10854355D02*
G75*
G02*
X51839355Y-10904355I-49995J-5D01*
G01*
X27595895Y-19048355D02*
G75*
G02*
X27645895Y-18998365I49995J-5D01*
G01*
X15514695Y-18538355D02*
X15514645Y-18488855D01*
X50485605Y-17193675D02*
X50485605Y-18493675D01*
X20672145Y-13318355D02*
X20672145Y-14618355D01*
X39867195Y-15767155D02*
X39867195Y-15623355D01*
X13987145Y-11408355D02*
G75*
G02*
X14037145Y-11358365I49995J-5D01*
G01*
X19767145Y-12758355D02*
G75*
G02*
X19717145Y-12708355I-5J49995D01*
G01*
X16374645Y-17138355D02*
G75*
G02*
X16424645Y-17088365I49995J-5D01*
G01*
X12315895Y-15228355D02*
G75*
G02*
X12365895Y-15178365I49995J-5D01*
G01*
X16819645Y-16528355D02*
G75*
G02*
X16769645Y-16578365I-50005J-5D01*
G01*
X14992145Y-14668355D02*
G75*
G02*
X14942145Y-14618355I-5J49995D01*
G01*
X36907145Y-11408355D02*
G75*
G02*
X36957145Y-11358365I49995J-5D01*
G01*
X44459445Y-18990015D02*
X43159445Y-18990015D01*
X23454645Y-17088355D02*
X22154645Y-17088355D01*
X43159445Y-20390015D02*
G75*
G02*
X43109445Y-20340015I-5J49995D01*
G01*
X34487145Y-12708355D02*
X34487145Y-11408355D01*
X30253395Y-18898355D02*
G75*
G02*
X30303395Y-18948355I-5J-50005D01*
G01*
X48327065Y-20342795D02*
G75*
G02*
X48277065Y-20392805I-50005J-5D01*
G01*
X23587145Y-12758355D02*
G75*
G02*
X23537145Y-12708355I-5J49995D01*
G01*
X27884645Y-18488355D02*
G75*
G02*
X27834645Y-18438355I-5J49995D01*
G01*
X20244645Y-18488355D02*
X21544645Y-18488355D01*
X46368245Y-17080975D02*
G75*
G02*
X46418245Y-17130975I-5J-50005D01*
G01*
X32162140Y-18898355D02*
X31562145Y-18898355D01*
X33482145Y-13268355D02*
X32182145Y-13268355D01*
X53210000Y-17817000D02*
G75*
G02*
X52770000Y-17817000I-220000J0D01*
G01*
X52770000Y-17817000D02*
G75*
G02*
X53210000Y-17817000I220000J0D01*
G01*
X34519645Y-15228355D02*
X34519645Y-16528355D01*
X33054645Y-18438355D02*
G75*
G02*
X33004645Y-18488365I-50005J-5D01*
G01*
X14756000Y-20398355D02*
G75*
G02*
X14703327Y-20348355I-2610J49995D01*
G01*
X26847145Y-12708355D02*
X26847145Y-11408355D01*
X45068245Y-18480975D02*
X46368245Y-18480975D01*
X15897145Y-11408355D02*
G75*
G02*
X15947145Y-11358365I49995J-5D01*
G01*
X16769645Y-15178355D02*
X15469645Y-15178355D01*
X15387145Y-12708355D02*
G75*
G02*
X15337145Y-12758365I-50005J-5D01*
G01*
X33564645Y-19048355D02*
G75*
G02*
X33614645Y-18998365I49995J-5D01*
G01*
X28707145Y-11358355D02*
X27407145Y-11358355D01*
X51835605Y-17143675D02*
G75*
G02*
X51885605Y-17193675I-5J-50005D01*
G01*
X13954645Y-14618355D02*
X13954645Y-13318355D01*
X37590895Y-18438355D02*
G75*
G02*
X37540895Y-18488365I-50005J-5D01*
G01*
X35919645Y-16528355D02*
X35919645Y-15228355D01*
X30749645Y-16578355D02*
X32049645Y-16578355D01*
X18679645Y-20398355D02*
X17138645Y-20398355D01*
X20112145Y-13268355D02*
G75*
G02*
X20162145Y-13318355I-5J-50005D01*
G01*
X18679645Y-18998355D02*
G75*
G02*
X18729645Y-19048355I-5J-50005D01*
G01*
X29189695Y-20398355D02*
G75*
G02*
X29139695Y-20348355I-5J49995D01*
G01*
X34997145Y-11408355D02*
G75*
G02*
X35047145Y-11358365I49995J-5D01*
G01*
X16292145Y-18998355D02*
G75*
G02*
X16342145Y-19048355I-5J-50005D01*
G01*
X12315895Y-17138355D02*
X12315895Y-18438355D01*
X22154645Y-18488355D02*
G75*
G02*
X22104645Y-18438355I-5J49995D01*
G01*
X18679645Y-15178355D02*
X17379645Y-15178355D01*
X24937145Y-12708355D02*
G75*
G02*
X24887145Y-12758365I-50005J-5D01*
G01*
X15897145Y-11408355D02*
X15897145Y-12708355D01*
X35047145Y-12758355D02*
G75*
G02*
X34997145Y-12708355I-5J49995D01*
G01*
X50535605Y-14723675D02*
G75*
G02*
X50485605Y-14673675I-5J49995D01*
G01*
X36829595Y-16678355D02*
G75*
G02*
X36779595Y-16628355I-5J49995D01*
G01*
X26402145Y-13318355D02*
X26402145Y-14618355D01*
X13957000Y-20349000D02*
G75*
G02*
X13907000Y-20399000I-50000J0D01*
G01*
X36397145Y-12708355D02*
G75*
G02*
X36347145Y-12758365I-50005J-5D01*
G01*
X21627145Y-11408355D02*
X21627145Y-12708355D01*
X29234645Y-18438355D02*
G75*
G02*
X29184645Y-18488365I-50005J-5D01*
G01*
X37352145Y-14618355D02*
X37352145Y-13318355D01*
X12077145Y-11408355D02*
X12077145Y-12708355D01*
X12366000Y-20399000D02*
G75*
G02*
X12316000Y-20349000I0J50000D01*
G01*
X21199645Y-16578355D02*
G75*
G02*
X21149645Y-16528355I-5J49995D01*
G01*
X51885605Y-12763675D02*
X51885605Y-11463675D01*
X43697845Y-9225115D02*
G75*
G02*
X43772845Y-9300115I-5J-75005D01*
G01*
X36429645Y-15228355D02*
G75*
G02*
X36479645Y-15178365I49995J-5D01*
G01*
X21149645Y-15228355D02*
X21149645Y-16528355D01*
X12365895Y-18488355D02*
G75*
G02*
X12315895Y-18438355I-5J49995D01*
G01*
X43109445Y-19040015D02*
X43109445Y-20340015D01*
X19767145Y-12758355D02*
X21067145Y-12758355D01*
X39217195Y-16678355D02*
X39817195Y-16678355D01*
X37479595Y-16578355D02*
X38973395Y-16578355D01*
X45620345Y-9197615D02*
G75*
G02*
X45670345Y-9247615I-5J-50005D01*
G01*
X38578395Y-15178355D02*
X36479645Y-15178355D01*
X32609645Y-15228355D02*
G75*
G02*
X32659645Y-15178365I49995J-5D01*
G01*
X32659645Y-16578355D02*
X33959645Y-16578355D01*
X36347145Y-11358355D02*
G75*
G02*
X36397145Y-11408355I-5J-50005D01*
G01*
X27402095Y-18898355D02*
X26802095Y-18898355D01*
X28945895Y-18998355D02*
X27645895Y-18998355D01*
X25974645Y-18488355D02*
X27274645Y-18488355D01*
X20112145Y-13268355D02*
X18812145Y-13268355D01*
X15514645Y-18488855D02*
X15814645Y-18488355D01*
X30303395Y-20348355D02*
G75*
G02*
X30253395Y-20398365I-50005J-5D01*
G01*
X17138645Y-20398355D02*
G75*
G02*
X17088645Y-20348355I-5J49995D01*
G01*
X29234645Y-18438355D02*
X29234645Y-17138355D01*
X18202145Y-13268355D02*
G75*
G02*
X18252145Y-13318355I-5J-50005D01*
G01*
X31465895Y-20398355D02*
X32766859Y-20398355D01*
X23932145Y-13268355D02*
G75*
G02*
X23982145Y-13318355I-5J-50005D01*
G01*
X39867195Y-16628355D02*
G75*
G02*
X39817195Y-16678365I-50005J-5D01*
G01*
X32132145Y-13318355D02*
G75*
G02*
X32182145Y-13268365I49995J-5D01*
G01*
X23109645Y-16578355D02*
X24409645Y-16578355D01*
X40105945Y-12758355D02*
X40167145Y-12758355D01*
X36347145Y-11358355D02*
X35047145Y-11358355D01*
X39928395Y-14223355D02*
G75*
G02*
X39978395Y-14273355I-5J-50005D01*
G01*
X12477095Y-18588355D02*
X13077095Y-18588355D01*
X12077145Y-11408355D02*
G75*
G02*
X12127145Y-11358365I49995J-5D01*
G01*
X20672145Y-13318355D02*
G75*
G02*
X20722145Y-13268365I49995J-5D01*
G01*
X28279645Y-16528355D02*
X28279645Y-15228355D01*
X18812145Y-14668355D02*
G75*
G02*
X18762145Y-14618355I-5J49995D01*
G01*
X31227145Y-12758355D02*
G75*
G02*
X31177145Y-12708355I-5J49995D01*
G01*
X45068245Y-20390975D02*
G75*
G02*
X45018245Y-20340975I-5J49995D01*
G01*
X39167195Y-16467155D02*
X39023395Y-16467155D01*
X35442145Y-14618355D02*
X35442145Y-13318355D01*
X50485605Y-11463675D02*
X50485605Y-12763675D01*
X19289645Y-16578355D02*
G75*
G02*
X19239645Y-16528355I-5J49995D01*
G01*
X22677195Y-20348355D02*
G75*
G02*
X22627195Y-20398365I-50005J-5D01*
G01*
X30222145Y-13318355D02*
X30222145Y-14618355D01*
X17774645Y-18438355D02*
G75*
G02*
X17724645Y-18488365I-50005J-5D01*
G01*
X13477145Y-12708355D02*
G75*
G02*
X13427145Y-12758365I-50005J-5D01*
G01*
X22072145Y-14618355D02*
G75*
G02*
X22022145Y-14668365I-50005J-5D01*
G01*
X35153537Y-18998214D02*
X33614787Y-18998214D01*
X46824185Y-9242195D02*
X46824185Y-10542195D01*
X35203395Y-20348355D02*
X35203395Y-19048355D01*
X29267145Y-11408355D02*
G75*
G02*
X29317145Y-11358365I49995J-5D01*
G01*
X21117145Y-12708355D02*
G75*
G02*
X21067145Y-12758365I-50005J-5D01*
G01*
X21594645Y-18438355D02*
X21594645Y-17138355D01*
X26369645Y-16528355D02*
G75*
G02*
X26319645Y-16578365I-50005J-5D01*
G01*
X15864645Y-18438355D02*
X15864645Y-17140000D01*
X17247145Y-11358355D02*
X15947145Y-11358355D01*
X46927065Y-19042795D02*
G75*
G02*
X46977065Y-18992805I49995J-5D01*
G01*
X37302145Y-13268355D02*
G75*
G02*
X37352145Y-13318355I-5J-50005D01*
G01*
X34519645Y-15228355D02*
G75*
G02*
X34569645Y-15178365I49995J-5D01*
G01*
X39978395Y-14029555D02*
G75*
G02*
X39928395Y-14079565I-50005J-5D01*
G01*
X17857145Y-12758355D02*
X19157145Y-12758355D01*
X23504645Y-18438355D02*
G75*
G02*
X23454645Y-18488365I-50005J-5D01*
G01*
X26752095Y-18948355D02*
G75*
G02*
X26802095Y-18898365I49995J-5D01*
G01*
X13987145Y-11408355D02*
X13987145Y-12708355D01*
X36779595Y-16578355D02*
X36779595Y-16628355D01*
X24014645Y-17138355D02*
G75*
G02*
X24064645Y-17088365I49995J-5D01*
G01*
X19684645Y-18438355D02*
G75*
G02*
X19634645Y-18488365I-50005J-5D01*
G01*
X43772845Y-10725115D02*
X43772845Y-9300115D01*
X27274645Y-17088355D02*
G75*
G02*
X27324645Y-17138355I-5J-50005D01*
G01*
X22977145Y-11358355D02*
X21677145Y-11358355D01*
X28362145Y-14668355D02*
X29662145Y-14668355D01*
X25892145Y-14618355D02*
G75*
G02*
X25842145Y-14668365I-50005J-5D01*
G01*
X33564645Y-17138355D02*
G75*
G02*
X33614645Y-17088365I49995J-5D01*
G01*
X34569645Y-16578355D02*
G75*
G02*
X34519645Y-16528355I-5J49995D01*
G01*
X50535605Y-18543675D02*
X51835605Y-18543675D01*
X40217145Y-12708355D02*
X40217145Y-11408355D01*
X13904645Y-13268355D02*
G75*
G02*
X13954645Y-13318355I-5J-50005D01*
G01*
X44509445Y-20340015D02*
G75*
G02*
X44459445Y-20390025I-50005J-5D01*
G01*
X18334645Y-18488355D02*
G75*
G02*
X18284645Y-18438355I-5J49995D01*
G01*
X16292145Y-13268355D02*
X14992145Y-13268355D01*
X26402145Y-13318355D02*
G75*
G02*
X26452145Y-13268365I49995J-5D01*
G01*
X33137145Y-12758355D02*
X34437145Y-12758355D01*
X23059645Y-15228355D02*
X23059645Y-16528355D01*
X23454645Y-17088355D02*
G75*
G02*
X23504645Y-17138355I-5J-50005D01*
G01*
X26319645Y-15178355D02*
X25019645Y-15178355D01*
X30253395Y-18898355D02*
X29189695Y-18898355D01*
X19639595Y-20398355D02*
G75*
G02*
X19589595Y-20348355I-5J49995D01*
G01*
X28229645Y-15178355D02*
X26929645Y-15178355D01*
X44270345Y-9247615D02*
G75*
G02*
X44320345Y-9197625I49995J-5D01*
G01*
X44320345Y-10597615D02*
G75*
G02*
X44270345Y-10547615I-5J49995D01*
G01*
X45018245Y-17130975D02*
G75*
G02*
X45068245Y-17080985I49995J-5D01*
G01*
X22499645Y-15178355D02*
G75*
G02*
X22549645Y-15228355I-5J-50005D01*
G01*
X51835605Y-11413675D02*
G75*
G02*
X51885605Y-11463675I-5J-50005D01*
G01*
X45670345Y-10547615D02*
X45670345Y-9247615D01*
X44270345Y-9247615D02*
X44270345Y-10547615D01*
X25974645Y-18488355D02*
G75*
G02*
X25924645Y-18438355I-5J49995D01*
G01*
X14037145Y-12758355D02*
G75*
G02*
X13987145Y-12708355I-5J49995D01*
G01*
X14143395Y-15178355D02*
G75*
G02*
X14193395Y-15228355I-5J-50005D01*
G01*
X43697845Y-9225115D02*
X39872845Y-9225115D01*
X36957145Y-12758355D02*
X37018345Y-12758355D01*
X46977065Y-20392795D02*
G75*
G02*
X46927065Y-20342795I-5J49995D01*
G01*
X37718345Y-12758355D02*
X39405945Y-12758355D01*
X25364645Y-17088355D02*
G75*
G02*
X25414645Y-17138355I-5J-50005D01*
G01*
X15814000Y-17088355D02*
X12366000Y-17088355D01*
X23537145Y-11408355D02*
X23537145Y-12708355D01*
X35952145Y-13318355D02*
X35952145Y-14618355D01*
X15387145Y-12708355D02*
X15387145Y-11408355D01*
X48327065Y-20342795D02*
X48327065Y-19042795D01*
X15419645Y-15228355D02*
X15419645Y-16528355D01*
X22022145Y-13268355D02*
G75*
G02*
X22072145Y-13318355I-5J-50005D01*
G01*
X30272145Y-14668355D02*
G75*
G02*
X30222145Y-14618355I-5J49995D01*
G01*
X17807145Y-11408355D02*
X17807145Y-12708355D01*
X15514695Y-18538355D02*
G75*
G02*
X15464695Y-18588365I-50005J-5D01*
G01*
X50485605Y-13373675D02*
G75*
G02*
X50535605Y-13323685I49995J-5D01*
G01*
X27752145Y-13268355D02*
X26452145Y-13268355D01*
X27595895Y-19048355D02*
X27595895Y-20348355D01*
X36190895Y-17138355D02*
X36190895Y-18438355D01*
X36190895Y-17138355D02*
G75*
G02*
X36240895Y-17088365I49995J-5D01*
G01*
X51835605Y-11413675D02*
X50535605Y-11413675D01*
X32765895Y-18998355D02*
G75*
G02*
X32815895Y-19048360I-5J-50005D01*
G01*
X17379645Y-16578355D02*
X18679645Y-16578355D01*
X18284645Y-17138355D02*
G75*
G02*
X18334645Y-17088365I49995J-5D01*
G01*
X13127095Y-18538355D02*
G75*
G02*
X13077095Y-18588365I-50005J-5D01*
G01*
X33564645Y-19048355D02*
X33564645Y-20348355D01*
X35869645Y-15178355D02*
X34569645Y-15178355D01*
X15814101Y-17088926D02*
G75*
G02*
X15864643Y-17139534I469J-50074D01*
G01*
X31465895Y-20398355D02*
G75*
G02*
X31415895Y-20348360I-5J49995D01*
G01*
X50485605Y-15283675D02*
X50485605Y-16583675D01*
X39023395Y-16528355D02*
G75*
G02*
X38973395Y-16578365I-50005J-5D01*
G01*
X18729645Y-16528355D02*
G75*
G02*
X18679645Y-16578365I-50005J-5D01*
G01*
X44459445Y-18990015D02*
G75*
G02*
X44509445Y-19040015I-5J-50005D01*
G01*
X51835605Y-15233675D02*
G75*
G02*
X51885605Y-15283675I-5J-50005D01*
G01*
X25019645Y-16578355D02*
X26319645Y-16578355D01*
X32577145Y-12708355D02*
G75*
G02*
X32527145Y-12758365I-50005J-5D01*
G01*
X29662145Y-13268355D02*
G75*
G02*
X29712145Y-13318355I-5J-50005D01*
G01*
X30139645Y-15178355D02*
G75*
G02*
X30189645Y-15228355I-5J-50005D01*
G01*
X31512145Y-18998355D02*
X31465895Y-18998355D01*
X19589595Y-18948355D02*
G75*
G02*
X19639595Y-18898365I49995J-5D01*
G01*
X17329645Y-15228355D02*
X17329645Y-16528355D01*
X39978395Y-15573355D02*
X39978395Y-14273355D01*
X13427145Y-11358355D02*
X12127145Y-11358355D01*
X53211000Y-14633000D02*
G75*
G02*
X52771000Y-14633000I-220000J0D01*
G01*
X52771000Y-14633000D02*
G75*
G02*
X53211000Y-14633000I220000J0D01*
G01*
X23775895Y-19048355D02*
X23775895Y-20348355D01*
X36957145Y-12758355D02*
G75*
G02*
X36907145Y-12708355I-5J49995D01*
G01*
X23109645Y-16578355D02*
G75*
G02*
X23059645Y-16528355I-5J49995D01*
G01*
X22632145Y-14668355D02*
G75*
G02*
X22582145Y-14618355I-5J49995D01*
G01*
X12365895Y-16578355D02*
X14143395Y-16578355D01*
X17807145Y-11408355D02*
G75*
G02*
X17857145Y-11358365I49995J-5D01*
G01*
X39978395Y-16417155D02*
X39978395Y-15817155D01*
X32132145Y-13318355D02*
X32132145Y-14618355D01*
X32049645Y-15178355D02*
G75*
G02*
X32099645Y-15228355I-5J-50005D01*
G01*
X32765890Y-18998355D02*
X32212145Y-18998355D01*
X13904645Y-13268355D02*
X12604645Y-13268355D01*
X30667145Y-12708355D02*
X30667145Y-11408355D01*
X22582145Y-13318355D02*
G75*
G02*
X22632145Y-13268365I49995J-5D01*
G01*
X39928395Y-13379555D02*
X39739645Y-13379555D01*
X39455945Y-12858355D02*
X40055945Y-12858355D01*
X35392145Y-13268355D02*
X34092145Y-13268355D01*
X14193395Y-16528355D02*
G75*
G02*
X14143395Y-16578365I-50005J-5D01*
G01*
X15337145Y-11358355D02*
G75*
G02*
X15387145Y-11408355I-5J-50005D01*
G01*
X13957000Y-19049000D02*
X13957000Y-20349000D01*
X17247145Y-11358355D02*
G75*
G02*
X17297145Y-11408355I-5J-50005D01*
G01*
X46824185Y-9242195D02*
G75*
G02*
X46874185Y-9192205I49995J-5D01*
G01*
X14037145Y-12758355D02*
X15337145Y-12758355D01*
X46368245Y-17080975D02*
X45068245Y-17080975D01*
X17774645Y-18438355D02*
X17774645Y-17138355D01*
X37590895Y-18438355D02*
X37590895Y-17138355D01*
X36002145Y-14668355D02*
X37302145Y-14668355D01*
X50539355Y-10904355D02*
X51839355Y-10904355D01*
X31704645Y-18488355D02*
X33004645Y-18488355D01*
X17088645Y-19048355D02*
G75*
G02*
X17138645Y-18998365I49995J-5D01*
G01*
X26319645Y-15178355D02*
G75*
G02*
X26369645Y-15228355I-5J-50005D01*
G01*
X29139695Y-18948355D02*
X29139695Y-20348355D01*
X24409645Y-15178355D02*
G75*
G02*
X24459645Y-15228355I-5J-50005D01*
G01*
X24937145Y-12708355D02*
X24937145Y-11408355D01*
X19589595Y-18948355D02*
X19589595Y-20348355D01*
X36240895Y-18488355D02*
X37540895Y-18488355D01*
X12366000Y-18999000D02*
X13907000Y-18999000D01*
X27645895Y-20398355D02*
G75*
G02*
X27595895Y-20348355I-5J49995D01*
G01*
X31572145Y-13268355D02*
X30272145Y-13268355D01*
X51885605Y-16583675D02*
X51885605Y-15283675D01*
X28995895Y-20348355D02*
X28995895Y-19048355D01*
X25497145Y-12758355D02*
X26797145Y-12758355D01*
X26929645Y-16578355D02*
X28229645Y-16578355D01*
X19634645Y-17088355D02*
X18334645Y-17088355D01*
X33959645Y-15178355D02*
G75*
G02*
X34009645Y-15228355I-5J-50005D01*
G01*
X19717145Y-11408355D02*
G75*
G02*
X19767145Y-11358365I49995J-5D01*
G01*
X24969645Y-15228355D02*
G75*
G02*
X25019645Y-15178365I49995J-5D01*
G01*
X20782145Y-18997855D02*
X20782145Y-18948355D01*
X30699645Y-15228355D02*
X30699645Y-16528355D01*
X24014645Y-17138355D02*
X24014645Y-18438355D01*
X14864695Y-18588355D02*
G75*
G02*
X14814695Y-18538355I-5J49995D01*
G01*
X23027145Y-12708355D02*
G75*
G02*
X22977145Y-12758365I-50005J-5D01*
G01*
X21117145Y-12708355D02*
X21117145Y-11408355D01*
X15469645Y-16578355D02*
G75*
G02*
X15419645Y-16528355I-5J49995D01*
G01*
X42090000Y-12234000D02*
X49298000Y-12234000D01*
X49298000Y-16678000D01*
X42090000Y-16678000D01*
X42090000Y-12234000D01*
X28945895Y-18998355D02*
G75*
G02*
X28995895Y-19048355I-5J-50005D01*
G01*
X16424645Y-18488355D02*
G75*
G02*
X16374645Y-18438355I-5J49995D01*
G01*
X51885605Y-14673675D02*
G75*
G02*
X51835605Y-14723685I-50005J-5D01*
G01*
X32162140Y-18898355D02*
G75*
G02*
X32212145Y-18948360I0J-50005D01*
G01*
X36429645Y-15228355D02*
X36429645Y-16528355D01*
X17138645Y-18998355D02*
X18679645Y-18998355D01*
X24542145Y-14668355D02*
X25842145Y-14668355D01*
X20732145Y-18898355D02*
X19639595Y-18898355D01*
X20162145Y-14618355D02*
G75*
G02*
X20112145Y-14668365I-50005J-5D01*
G01*
X40105945Y-12808355D02*
X40105945Y-12758355D01*
X50535605Y-16633675D02*
X51835605Y-16633675D01*
X34914645Y-17088355D02*
X33614645Y-17088355D01*
X14756000Y-20398355D02*
X16292145Y-20398355D01*
X50489355Y-9554355D02*
X50489355Y-10854355D01*
X18252145Y-14618355D02*
G75*
G02*
X18202145Y-14668365I-50005J-5D01*
G01*
X22549645Y-16528355D02*
G75*
G02*
X22499645Y-16578365I-50005J-5D01*
G01*
X21544645Y-17088355D02*
X20244645Y-17088355D01*
X40217145Y-12708355D02*
G75*
G02*
X40167145Y-12758365I-50005J-5D01*
G01*
X12365895Y-16578355D02*
G75*
G02*
X12315895Y-16528355I-5J49995D01*
G01*
X18762145Y-13318355D02*
G75*
G02*
X18812145Y-13268365I49995J-5D01*
G01*
X14942145Y-13318355D02*
X14942145Y-14618355D01*
X35952145Y-13318355D02*
G75*
G02*
X36002145Y-13268365I49995J-5D01*
G01*
X24969645Y-15228355D02*
X24969645Y-16528355D01*
X45620345Y-9197615D02*
X44320345Y-9197615D01*
X29744645Y-17138355D02*
X29744645Y-18438355D01*
X31415895Y-19048355D02*
X31415895Y-20348360D01*
X18284645Y-17138355D02*
X18284645Y-18438355D01*
X32609645Y-15228355D02*
X32609645Y-16528355D01*
X37302145Y-13268355D02*
X36002145Y-13268355D01*
X12427095Y-18488855D02*
X12427095Y-18538355D01*
X20722145Y-14668355D02*
G75*
G02*
X20672145Y-14618355I-5J49995D01*
G01*
X15947145Y-12758355D02*
G75*
G02*
X15897145Y-12708355I-5J49995D01*
G01*
X23504645Y-18438355D02*
X23504645Y-17138355D01*
X50535605Y-18543675D02*
G75*
G02*
X50485605Y-18493675I-5J49995D01*
G01*
X34092145Y-14668355D02*
G75*
G02*
X34042145Y-14618355I-5J49995D01*
G01*
X36829595Y-16678355D02*
X37429595Y-16678355D01*
X29139695Y-18948355D02*
G75*
G02*
X29189695Y-18898365I49995J-5D01*
G01*
X38779000Y-18747000D02*
G75*
G02*
X38339000Y-18747000I-220000J0D01*
G01*
X38339000Y-18747000D02*
G75*
G02*
X38779000Y-18747000I220000J0D01*
G01*
X27645895Y-20398355D02*
X28945895Y-20398355D01*
X25414645Y-18438355D02*
X25414645Y-17138355D01*
X27357145Y-11408355D02*
G75*
G02*
X27407145Y-11358365I49995J-5D01*
G01*
X51885605Y-12763675D02*
G75*
G02*
X51835605Y-12813685I-50005J-5D01*
G01*
X19239645Y-15228355D02*
X19239645Y-16528355D01*
X12554645Y-13318355D02*
G75*
G02*
X12604645Y-13268365I49995J-5D01*
G01*
X25842145Y-13268355D02*
G75*
G02*
X25892145Y-13318355I-5J-50005D01*
G01*
X14703249Y-19049000D02*
G75*
G02*
X14753269Y-18998215I50141J640D01*
G01*
X22104645Y-17138355D02*
G75*
G02*
X22154645Y-17088365I49995J-5D01*
G01*
X33614645Y-18488355D02*
X34914645Y-18488355D01*
X48277065Y-18992795D02*
G75*
G02*
X48327065Y-19042795I-5J-50005D01*
G01*
X36907145Y-11408355D02*
X36907145Y-12708355D01*
X16342145Y-20348355D02*
G75*
G02*
X16292145Y-20398365I-50005J-5D01*
G01*
X16424645Y-18488355D02*
X17724645Y-18488355D01*
X31144645Y-18438355D02*
G75*
G02*
X31094645Y-18488365I-50005J-5D01*
G01*
X19289645Y-16578355D02*
X20589645Y-16578355D01*
X33087145Y-11408355D02*
X33087145Y-12708355D01*
X14193395Y-16528355D02*
X14193395Y-15228355D01*
X38578395Y-14668355D02*
X38578395Y-15178355D01*
X12127145Y-12758355D02*
G75*
G02*
X12077145Y-12708355I-5J49995D01*
G01*
X51835605Y-17143675D02*
X50535605Y-17143675D01*
X25892145Y-14618355D02*
X25892145Y-13318355D01*
D11*
D12*
X7924000Y-16076000D02*
X8144000Y-16296000D01*
X8144000Y-16076000D02*
X7924000Y-16296000D01*
X7925000Y-12883000D02*
X8145000Y-13103000D01*
X8145000Y-12883000D02*
X7925000Y-13103000D01*
X7927000Y-19256000D02*
X8147000Y-19476000D01*
X8147000Y-19256000D02*
X7927000Y-19476000D01*
X38449000Y-18637000D02*
X38669000Y-18857000D01*
X38669000Y-18637000D02*
X38449000Y-18857000D01*
X52880000Y-11346000D02*
X53100000Y-11566000D01*
X53100000Y-11346000D02*
X52880000Y-11566000D01*
X52880000Y-17707000D02*
X53100000Y-17927000D01*
X53100000Y-17707000D02*
X52880000Y-17927000D01*
X52881000Y-14523000D02*
X53101000Y-14743000D01*
X53101000Y-14523000D02*
X52881000Y-14743000D01*
D11*
X7774649Y-21568484D02*
X7774649Y-21368484D01*
X7774649Y-21368484D02*
X7822268Y-21368484D01*
X7822268Y-21368484D02*
X7850839Y-21378008D01*
X7850839Y-21378008D02*
X7869887Y-21397055D01*
X7869887Y-21397055D02*
X7879411Y-21416103D01*
X7879411Y-21416103D02*
X7888934Y-21454198D01*
X7888934Y-21454198D02*
X7888934Y-21482770D01*
X7888934Y-21482770D02*
X7879411Y-21520865D01*
X7879411Y-21520865D02*
X7869887Y-21539912D01*
X7869887Y-21539912D02*
X7850839Y-21558960D01*
X7850839Y-21558960D02*
X7822268Y-21568484D01*
X7822268Y-21568484D02*
X7774649Y-21568484D01*
X7974649Y-21568484D02*
X7974649Y-21435150D01*
X7974649Y-21473246D02*
X7984172Y-21454198D01*
X7984172Y-21454198D02*
X7993696Y-21444674D01*
X7993696Y-21444674D02*
X8012744Y-21435150D01*
X8012744Y-21435150D02*
X8031792Y-21435150D01*
X8098458Y-21568484D02*
X8098458Y-21435150D01*
X8098458Y-21368484D02*
X8088934Y-21378008D01*
X8088934Y-21378008D02*
X8098458Y-21387531D01*
X8098458Y-21387531D02*
X8107982Y-21378008D01*
X8107982Y-21378008D02*
X8098458Y-21368484D01*
X8098458Y-21368484D02*
X8098458Y-21387531D01*
X8222268Y-21568484D02*
X8203220Y-21558960D01*
X8203220Y-21558960D02*
X8193696Y-21539912D01*
X8193696Y-21539912D02*
X8193696Y-21368484D01*
X8327030Y-21568484D02*
X8307982Y-21558960D01*
X8307982Y-21558960D02*
X8298458Y-21539912D01*
X8298458Y-21539912D02*
X8298458Y-21368484D01*
X8555601Y-21568484D02*
X8555601Y-21368484D01*
X8555601Y-21368484D02*
X8622268Y-21511341D01*
X8622268Y-21511341D02*
X8688934Y-21368484D01*
X8688934Y-21368484D02*
X8688934Y-21568484D01*
X8869887Y-21568484D02*
X8869887Y-21463722D01*
X8869887Y-21463722D02*
X8860363Y-21444674D01*
X8860363Y-21444674D02*
X8841315Y-21435150D01*
X8841315Y-21435150D02*
X8803220Y-21435150D01*
X8803220Y-21435150D02*
X8784173Y-21444674D01*
X8869887Y-21558960D02*
X8850839Y-21568484D01*
X8850839Y-21568484D02*
X8803220Y-21568484D01*
X8803220Y-21568484D02*
X8784173Y-21558960D01*
X8784173Y-21558960D02*
X8774649Y-21539912D01*
X8774649Y-21539912D02*
X8774649Y-21520865D01*
X8774649Y-21520865D02*
X8784173Y-21501817D01*
X8784173Y-21501817D02*
X8803220Y-21492293D01*
X8803220Y-21492293D02*
X8850839Y-21492293D01*
X8850839Y-21492293D02*
X8869887Y-21482770D01*
X8965125Y-21435150D02*
X8965125Y-21635150D01*
X8965125Y-21444674D02*
X8984173Y-21435150D01*
X8984173Y-21435150D02*
X9022268Y-21435150D01*
X9022268Y-21435150D02*
X9041315Y-21444674D01*
X9041315Y-21444674D02*
X9050839Y-21454198D01*
X9050839Y-21454198D02*
X9060363Y-21473246D01*
X9060363Y-21473246D02*
X9060363Y-21530389D01*
X9060363Y-21530389D02*
X9050839Y-21549436D01*
X9050839Y-21549436D02*
X9041315Y-21558960D01*
X9041315Y-21558960D02*
X9022268Y-21568484D01*
X9022268Y-21568484D02*
X8984173Y-21568484D01*
X8984173Y-21568484D02*
X8965125Y-21558960D01*
X9146077Y-21549436D02*
X9155601Y-21558960D01*
X9155601Y-21558960D02*
X9146077Y-21568484D01*
X9146077Y-21568484D02*
X9136554Y-21558960D01*
X9136554Y-21558960D02*
X9146077Y-21549436D01*
X9146077Y-21549436D02*
X9146077Y-21568484D01*
X9146077Y-21444674D02*
X9155601Y-21454198D01*
X9155601Y-21454198D02*
X9146077Y-21463722D01*
X9146077Y-21463722D02*
X9136554Y-21454198D01*
X9136554Y-21454198D02*
X9146077Y-21444674D01*
X9146077Y-21444674D02*
X9146077Y-21463722D01*
X7313872Y-21797000D02*
X7513872Y-21997000D01*
X7513872Y-21797000D02*
X7313872Y-21997000D01*
X7765125Y-21807531D02*
X7774649Y-21798008D01*
X7774649Y-21798008D02*
X7793696Y-21788484D01*
X7793696Y-21788484D02*
X7841315Y-21788484D01*
X7841315Y-21788484D02*
X7860363Y-21798008D01*
X7860363Y-21798008D02*
X7869887Y-21807531D01*
X7869887Y-21807531D02*
X7879411Y-21826579D01*
X7879411Y-21826579D02*
X7879411Y-21845627D01*
X7879411Y-21845627D02*
X7869887Y-21874198D01*
X7869887Y-21874198D02*
X7755601Y-21988484D01*
X7755601Y-21988484D02*
X7879411Y-21988484D01*
X7965125Y-21969436D02*
X7974649Y-21978960D01*
X7974649Y-21978960D02*
X7965125Y-21988484D01*
X7965125Y-21988484D02*
X7955601Y-21978960D01*
X7955601Y-21978960D02*
X7965125Y-21969436D01*
X7965125Y-21969436D02*
X7965125Y-21988484D01*
X8050839Y-21807531D02*
X8060363Y-21798008D01*
X8060363Y-21798008D02*
X8079411Y-21788484D01*
X8079411Y-21788484D02*
X8127030Y-21788484D01*
X8127030Y-21788484D02*
X8146077Y-21798008D01*
X8146077Y-21798008D02*
X8155601Y-21807531D01*
X8155601Y-21807531D02*
X8165125Y-21826579D01*
X8165125Y-21826579D02*
X8165125Y-21845627D01*
X8165125Y-21845627D02*
X8155601Y-21874198D01*
X8155601Y-21874198D02*
X8041315Y-21988484D01*
X8041315Y-21988484D02*
X8165125Y-21988484D01*
X8288934Y-21788484D02*
X8307982Y-21788484D01*
X8307982Y-21788484D02*
X8327030Y-21798008D01*
X8327030Y-21798008D02*
X8336553Y-21807531D01*
X8336553Y-21807531D02*
X8346077Y-21826579D01*
X8346077Y-21826579D02*
X8355601Y-21864674D01*
X8355601Y-21864674D02*
X8355601Y-21912293D01*
X8355601Y-21912293D02*
X8346077Y-21950389D01*
X8346077Y-21950389D02*
X8336553Y-21969436D01*
X8336553Y-21969436D02*
X8327030Y-21978960D01*
X8327030Y-21978960D02*
X8307982Y-21988484D01*
X8307982Y-21988484D02*
X8288934Y-21988484D01*
X8288934Y-21988484D02*
X8269887Y-21978960D01*
X8269887Y-21978960D02*
X8260363Y-21969436D01*
X8260363Y-21969436D02*
X8250839Y-21950389D01*
X8250839Y-21950389D02*
X8241315Y-21912293D01*
X8241315Y-21912293D02*
X8241315Y-21864674D01*
X8241315Y-21864674D02*
X8250839Y-21826579D01*
X8250839Y-21826579D02*
X8260363Y-21807531D01*
X8260363Y-21807531D02*
X8269887Y-21798008D01*
X8269887Y-21798008D02*
X8288934Y-21788484D01*
X8479411Y-21788484D02*
X8498458Y-21788484D01*
X8498458Y-21788484D02*
X8517506Y-21798008D01*
X8517506Y-21798008D02*
X8527030Y-21807531D01*
X8527030Y-21807531D02*
X8536554Y-21826579D01*
X8536554Y-21826579D02*
X8546077Y-21864674D01*
X8546077Y-21864674D02*
X8546077Y-21912293D01*
X8546077Y-21912293D02*
X8536554Y-21950389D01*
X8536554Y-21950389D02*
X8527030Y-21969436D01*
X8527030Y-21969436D02*
X8517506Y-21978960D01*
X8517506Y-21978960D02*
X8498458Y-21988484D01*
X8498458Y-21988484D02*
X8479411Y-21988484D01*
X8479411Y-21988484D02*
X8460363Y-21978960D01*
X8460363Y-21978960D02*
X8450839Y-21969436D01*
X8450839Y-21969436D02*
X8441315Y-21950389D01*
X8441315Y-21950389D02*
X8431792Y-21912293D01*
X8431792Y-21912293D02*
X8431792Y-21864674D01*
X8431792Y-21864674D02*
X8441315Y-21826579D01*
X8441315Y-21826579D02*
X8450839Y-21807531D01*
X8450839Y-21807531D02*
X8460363Y-21798008D01*
X8460363Y-21798008D02*
X8479411Y-21788484D01*
X8631792Y-21988484D02*
X8631792Y-21855150D01*
X8631792Y-21874198D02*
X8641315Y-21864674D01*
X8641315Y-21864674D02*
X8660363Y-21855150D01*
X8660363Y-21855150D02*
X8688935Y-21855150D01*
X8688935Y-21855150D02*
X8707982Y-21864674D01*
X8707982Y-21864674D02*
X8717506Y-21883722D01*
X8717506Y-21883722D02*
X8717506Y-21988484D01*
X8717506Y-21883722D02*
X8727030Y-21864674D01*
X8727030Y-21864674D02*
X8746077Y-21855150D01*
X8746077Y-21855150D02*
X8774649Y-21855150D01*
X8774649Y-21855150D02*
X8793696Y-21864674D01*
X8793696Y-21864674D02*
X8803220Y-21883722D01*
X8803220Y-21883722D02*
X8803220Y-21988484D01*
X8898458Y-21988484D02*
X8898458Y-21855150D01*
X8898458Y-21874198D02*
X8907982Y-21864674D01*
X8907982Y-21864674D02*
X8927030Y-21855150D01*
X8927030Y-21855150D02*
X8955601Y-21855150D01*
X8955601Y-21855150D02*
X8974649Y-21864674D01*
X8974649Y-21864674D02*
X8984173Y-21883722D01*
X8984173Y-21883722D02*
X8984173Y-21988484D01*
X8984173Y-21883722D02*
X8993696Y-21864674D01*
X8993696Y-21864674D02*
X9012744Y-21855150D01*
X9012744Y-21855150D02*
X9041315Y-21855150D01*
X9041315Y-21855150D02*
X9060363Y-21864674D01*
X9060363Y-21864674D02*
X9069887Y-21883722D01*
X9069887Y-21883722D02*
X9069887Y-21988484D01*
X9460363Y-21778960D02*
X9288935Y-22036103D01*
X9717506Y-21788484D02*
X9736554Y-21788484D01*
X9736554Y-21788484D02*
X9755601Y-21798008D01*
X9755601Y-21798008D02*
X9765125Y-21807531D01*
X9765125Y-21807531D02*
X9774649Y-21826579D01*
X9774649Y-21826579D02*
X9784173Y-21864674D01*
X9784173Y-21864674D02*
X9784173Y-21912293D01*
X9784173Y-21912293D02*
X9774649Y-21950389D01*
X9774649Y-21950389D02*
X9765125Y-21969436D01*
X9765125Y-21969436D02*
X9755601Y-21978960D01*
X9755601Y-21978960D02*
X9736554Y-21988484D01*
X9736554Y-21988484D02*
X9717506Y-21988484D01*
X9717506Y-21988484D02*
X9698458Y-21978960D01*
X9698458Y-21978960D02*
X9688935Y-21969436D01*
X9688935Y-21969436D02*
X9679411Y-21950389D01*
X9679411Y-21950389D02*
X9669887Y-21912293D01*
X9669887Y-21912293D02*
X9669887Y-21864674D01*
X9669887Y-21864674D02*
X9679411Y-21826579D01*
X9679411Y-21826579D02*
X9688935Y-21807531D01*
X9688935Y-21807531D02*
X9698458Y-21798008D01*
X9698458Y-21798008D02*
X9717506Y-21788484D01*
X9869887Y-21969436D02*
X9879411Y-21978960D01*
X9879411Y-21978960D02*
X9869887Y-21988484D01*
X9869887Y-21988484D02*
X9860363Y-21978960D01*
X9860363Y-21978960D02*
X9869887Y-21969436D01*
X9869887Y-21969436D02*
X9869887Y-21988484D01*
X10003220Y-21788484D02*
X10022268Y-21788484D01*
X10022268Y-21788484D02*
X10041316Y-21798008D01*
X10041316Y-21798008D02*
X10050839Y-21807531D01*
X10050839Y-21807531D02*
X10060363Y-21826579D01*
X10060363Y-21826579D02*
X10069887Y-21864674D01*
X10069887Y-21864674D02*
X10069887Y-21912293D01*
X10069887Y-21912293D02*
X10060363Y-21950389D01*
X10060363Y-21950389D02*
X10050839Y-21969436D01*
X10050839Y-21969436D02*
X10041316Y-21978960D01*
X10041316Y-21978960D02*
X10022268Y-21988484D01*
X10022268Y-21988484D02*
X10003220Y-21988484D01*
X10003220Y-21988484D02*
X9984173Y-21978960D01*
X9984173Y-21978960D02*
X9974649Y-21969436D01*
X9974649Y-21969436D02*
X9965125Y-21950389D01*
X9965125Y-21950389D02*
X9955601Y-21912293D01*
X9955601Y-21912293D02*
X9955601Y-21864674D01*
X9955601Y-21864674D02*
X9965125Y-21826579D01*
X9965125Y-21826579D02*
X9974649Y-21807531D01*
X9974649Y-21807531D02*
X9984173Y-21798008D01*
X9984173Y-21798008D02*
X10003220Y-21788484D01*
X10184173Y-21874198D02*
X10165125Y-21864674D01*
X10165125Y-21864674D02*
X10155601Y-21855150D01*
X10155601Y-21855150D02*
X10146078Y-21836103D01*
X10146078Y-21836103D02*
X10146078Y-21826579D01*
X10146078Y-21826579D02*
X10155601Y-21807531D01*
X10155601Y-21807531D02*
X10165125Y-21798008D01*
X10165125Y-21798008D02*
X10184173Y-21788484D01*
X10184173Y-21788484D02*
X10222268Y-21788484D01*
X10222268Y-21788484D02*
X10241316Y-21798008D01*
X10241316Y-21798008D02*
X10250839Y-21807531D01*
X10250839Y-21807531D02*
X10260363Y-21826579D01*
X10260363Y-21826579D02*
X10260363Y-21836103D01*
X10260363Y-21836103D02*
X10250839Y-21855150D01*
X10250839Y-21855150D02*
X10241316Y-21864674D01*
X10241316Y-21864674D02*
X10222268Y-21874198D01*
X10222268Y-21874198D02*
X10184173Y-21874198D01*
X10184173Y-21874198D02*
X10165125Y-21883722D01*
X10165125Y-21883722D02*
X10155601Y-21893246D01*
X10155601Y-21893246D02*
X10146078Y-21912293D01*
X10146078Y-21912293D02*
X10146078Y-21950389D01*
X10146078Y-21950389D02*
X10155601Y-21969436D01*
X10155601Y-21969436D02*
X10165125Y-21978960D01*
X10165125Y-21978960D02*
X10184173Y-21988484D01*
X10184173Y-21988484D02*
X10222268Y-21988484D01*
X10222268Y-21988484D02*
X10241316Y-21978960D01*
X10241316Y-21978960D02*
X10250839Y-21969436D01*
X10250839Y-21969436D02*
X10260363Y-21950389D01*
X10260363Y-21950389D02*
X10260363Y-21912293D01*
X10260363Y-21912293D02*
X10250839Y-21893246D01*
X10250839Y-21893246D02*
X10241316Y-21883722D01*
X10241316Y-21883722D02*
X10222268Y-21874198D01*
X10431792Y-21788484D02*
X10393697Y-21788484D01*
X10393697Y-21788484D02*
X10374649Y-21798008D01*
X10374649Y-21798008D02*
X10365125Y-21807531D01*
X10365125Y-21807531D02*
X10346078Y-21836103D01*
X10346078Y-21836103D02*
X10336554Y-21874198D01*
X10336554Y-21874198D02*
X10336554Y-21950389D01*
X10336554Y-21950389D02*
X10346078Y-21969436D01*
X10346078Y-21969436D02*
X10355601Y-21978960D01*
X10355601Y-21978960D02*
X10374649Y-21988484D01*
X10374649Y-21988484D02*
X10412744Y-21988484D01*
X10412744Y-21988484D02*
X10431792Y-21978960D01*
X10431792Y-21978960D02*
X10441316Y-21969436D01*
X10441316Y-21969436D02*
X10450839Y-21950389D01*
X10450839Y-21950389D02*
X10450839Y-21902770D01*
X10450839Y-21902770D02*
X10441316Y-21883722D01*
X10441316Y-21883722D02*
X10431792Y-21874198D01*
X10431792Y-21874198D02*
X10412744Y-21864674D01*
X10412744Y-21864674D02*
X10374649Y-21864674D01*
X10374649Y-21864674D02*
X10355601Y-21874198D01*
X10355601Y-21874198D02*
X10346078Y-21883722D01*
X10346078Y-21883722D02*
X10336554Y-21902770D01*
X10622268Y-21788484D02*
X10584173Y-21788484D01*
X10584173Y-21788484D02*
X10565125Y-21798008D01*
X10565125Y-21798008D02*
X10555601Y-21807531D01*
X10555601Y-21807531D02*
X10536554Y-21836103D01*
X10536554Y-21836103D02*
X10527030Y-21874198D01*
X10527030Y-21874198D02*
X10527030Y-21950389D01*
X10527030Y-21950389D02*
X10536554Y-21969436D01*
X10536554Y-21969436D02*
X10546078Y-21978960D01*
X10546078Y-21978960D02*
X10565125Y-21988484D01*
X10565125Y-21988484D02*
X10603220Y-21988484D01*
X10603220Y-21988484D02*
X10622268Y-21978960D01*
X10622268Y-21978960D02*
X10631792Y-21969436D01*
X10631792Y-21969436D02*
X10641316Y-21950389D01*
X10641316Y-21950389D02*
X10641316Y-21902770D01*
X10641316Y-21902770D02*
X10631792Y-21883722D01*
X10631792Y-21883722D02*
X10622268Y-21874198D01*
X10622268Y-21874198D02*
X10603220Y-21864674D01*
X10603220Y-21864674D02*
X10565125Y-21864674D01*
X10565125Y-21864674D02*
X10546078Y-21874198D01*
X10546078Y-21874198D02*
X10536554Y-21883722D01*
X10536554Y-21883722D02*
X10527030Y-21902770D01*
X10717506Y-21788484D02*
X10717506Y-21826579D01*
X10793697Y-21788484D02*
X10793697Y-21826579D01*
X11088935Y-22064674D02*
X11079411Y-22055150D01*
X11079411Y-22055150D02*
X11060363Y-22026579D01*
X11060363Y-22026579D02*
X11050840Y-22007531D01*
X11050840Y-22007531D02*
X11041316Y-21978960D01*
X11041316Y-21978960D02*
X11031792Y-21931341D01*
X11031792Y-21931341D02*
X11031792Y-21893246D01*
X11031792Y-21893246D02*
X11041316Y-21845627D01*
X11041316Y-21845627D02*
X11050840Y-21817055D01*
X11050840Y-21817055D02*
X11060363Y-21798008D01*
X11060363Y-21798008D02*
X11079411Y-21769436D01*
X11079411Y-21769436D02*
X11088935Y-21759912D01*
X11146078Y-21788484D02*
X11279411Y-21788484D01*
X11279411Y-21788484D02*
X11193697Y-21988484D01*
X11507982Y-21988484D02*
X11507982Y-21788484D01*
X11593697Y-21988484D02*
X11593697Y-21883722D01*
X11593697Y-21883722D02*
X11584173Y-21864674D01*
X11584173Y-21864674D02*
X11565125Y-21855150D01*
X11565125Y-21855150D02*
X11536554Y-21855150D01*
X11536554Y-21855150D02*
X11517506Y-21864674D01*
X11517506Y-21864674D02*
X11507982Y-21874198D01*
X11717506Y-21988484D02*
X11698459Y-21978960D01*
X11698459Y-21978960D02*
X11688935Y-21969436D01*
X11688935Y-21969436D02*
X11679411Y-21950389D01*
X11679411Y-21950389D02*
X11679411Y-21893246D01*
X11679411Y-21893246D02*
X11688935Y-21874198D01*
X11688935Y-21874198D02*
X11698459Y-21864674D01*
X11698459Y-21864674D02*
X11717506Y-21855150D01*
X11717506Y-21855150D02*
X11746078Y-21855150D01*
X11746078Y-21855150D02*
X11765125Y-21864674D01*
X11765125Y-21864674D02*
X11774649Y-21874198D01*
X11774649Y-21874198D02*
X11784173Y-21893246D01*
X11784173Y-21893246D02*
X11784173Y-21950389D01*
X11784173Y-21950389D02*
X11774649Y-21969436D01*
X11774649Y-21969436D02*
X11765125Y-21978960D01*
X11765125Y-21978960D02*
X11746078Y-21988484D01*
X11746078Y-21988484D02*
X11717506Y-21988484D01*
X11898459Y-21988484D02*
X11879411Y-21978960D01*
X11879411Y-21978960D02*
X11869887Y-21959912D01*
X11869887Y-21959912D02*
X11869887Y-21788484D01*
X12050840Y-21978960D02*
X12031792Y-21988484D01*
X12031792Y-21988484D02*
X11993697Y-21988484D01*
X11993697Y-21988484D02*
X11974649Y-21978960D01*
X11974649Y-21978960D02*
X11965125Y-21959912D01*
X11965125Y-21959912D02*
X11965125Y-21883722D01*
X11965125Y-21883722D02*
X11974649Y-21864674D01*
X11974649Y-21864674D02*
X11993697Y-21855150D01*
X11993697Y-21855150D02*
X12031792Y-21855150D01*
X12031792Y-21855150D02*
X12050840Y-21864674D01*
X12050840Y-21864674D02*
X12060363Y-21883722D01*
X12060363Y-21883722D02*
X12060363Y-21902770D01*
X12060363Y-21902770D02*
X11965125Y-21921817D01*
X12136554Y-21978960D02*
X12155601Y-21988484D01*
X12155601Y-21988484D02*
X12193697Y-21988484D01*
X12193697Y-21988484D02*
X12212744Y-21978960D01*
X12212744Y-21978960D02*
X12222268Y-21959912D01*
X12222268Y-21959912D02*
X12222268Y-21950389D01*
X12222268Y-21950389D02*
X12212744Y-21931341D01*
X12212744Y-21931341D02*
X12193697Y-21921817D01*
X12193697Y-21921817D02*
X12165125Y-21921817D01*
X12165125Y-21921817D02*
X12146078Y-21912293D01*
X12146078Y-21912293D02*
X12136554Y-21893246D01*
X12136554Y-21893246D02*
X12136554Y-21883722D01*
X12136554Y-21883722D02*
X12146078Y-21864674D01*
X12146078Y-21864674D02*
X12165125Y-21855150D01*
X12165125Y-21855150D02*
X12193697Y-21855150D01*
X12193697Y-21855150D02*
X12212744Y-21864674D01*
X12288935Y-22064674D02*
X12298459Y-22055150D01*
X12298459Y-22055150D02*
X12317506Y-22026579D01*
X12317506Y-22026579D02*
X12327030Y-22007531D01*
X12327030Y-22007531D02*
X12336554Y-21978960D01*
X12336554Y-21978960D02*
X12346078Y-21931341D01*
X12346078Y-21931341D02*
X12346078Y-21893246D01*
X12346078Y-21893246D02*
X12336554Y-21845627D01*
X12336554Y-21845627D02*
X12327030Y-21817055D01*
X12327030Y-21817055D02*
X12317506Y-21798008D01*
X12317506Y-21798008D02*
X12298459Y-21769436D01*
X12298459Y-21769436D02*
X12288935Y-21759912D01*
X12650840Y-22064674D02*
X12641316Y-22055150D01*
X12641316Y-22055150D02*
X12622268Y-22026579D01*
X12622268Y-22026579D02*
X12612744Y-22007531D01*
X12612744Y-22007531D02*
X12603221Y-21978960D01*
X12603221Y-21978960D02*
X12593697Y-21931341D01*
X12593697Y-21931341D02*
X12593697Y-21893246D01*
X12593697Y-21893246D02*
X12603221Y-21845627D01*
X12603221Y-21845627D02*
X12612744Y-21817055D01*
X12612744Y-21817055D02*
X12622268Y-21798008D01*
X12622268Y-21798008D02*
X12641316Y-21769436D01*
X12641316Y-21769436D02*
X12650840Y-21759912D01*
X12727030Y-21855150D02*
X12727030Y-21988484D01*
X12727030Y-21874198D02*
X12736554Y-21864674D01*
X12736554Y-21864674D02*
X12755601Y-21855150D01*
X12755601Y-21855150D02*
X12784173Y-21855150D01*
X12784173Y-21855150D02*
X12803221Y-21864674D01*
X12803221Y-21864674D02*
X12812744Y-21883722D01*
X12812744Y-21883722D02*
X12812744Y-21988484D01*
X12936554Y-21988484D02*
X12917506Y-21978960D01*
X12917506Y-21978960D02*
X12907982Y-21969436D01*
X12907982Y-21969436D02*
X12898459Y-21950389D01*
X12898459Y-21950389D02*
X12898459Y-21893246D01*
X12898459Y-21893246D02*
X12907982Y-21874198D01*
X12907982Y-21874198D02*
X12917506Y-21864674D01*
X12917506Y-21864674D02*
X12936554Y-21855150D01*
X12936554Y-21855150D02*
X12965125Y-21855150D01*
X12965125Y-21855150D02*
X12984173Y-21864674D01*
X12984173Y-21864674D02*
X12993697Y-21874198D01*
X12993697Y-21874198D02*
X13003221Y-21893246D01*
X13003221Y-21893246D02*
X13003221Y-21950389D01*
X13003221Y-21950389D02*
X12993697Y-21969436D01*
X12993697Y-21969436D02*
X12984173Y-21978960D01*
X12984173Y-21978960D02*
X12965125Y-21988484D01*
X12965125Y-21988484D02*
X12936554Y-21988484D01*
X13060363Y-21855150D02*
X13136554Y-21855150D01*
X13088935Y-21788484D02*
X13088935Y-21959912D01*
X13088935Y-21959912D02*
X13098459Y-21978960D01*
X13098459Y-21978960D02*
X13117506Y-21988484D01*
X13117506Y-21988484D02*
X13136554Y-21988484D01*
X13355602Y-21855150D02*
X13355602Y-22055150D01*
X13355602Y-21864674D02*
X13374649Y-21855150D01*
X13374649Y-21855150D02*
X13412744Y-21855150D01*
X13412744Y-21855150D02*
X13431792Y-21864674D01*
X13431792Y-21864674D02*
X13441316Y-21874198D01*
X13441316Y-21874198D02*
X13450840Y-21893246D01*
X13450840Y-21893246D02*
X13450840Y-21950389D01*
X13450840Y-21950389D02*
X13441316Y-21969436D01*
X13441316Y-21969436D02*
X13431792Y-21978960D01*
X13431792Y-21978960D02*
X13412744Y-21988484D01*
X13412744Y-21988484D02*
X13374649Y-21988484D01*
X13374649Y-21988484D02*
X13355602Y-21978960D01*
X13565125Y-21988484D02*
X13546078Y-21978960D01*
X13546078Y-21978960D02*
X13536554Y-21959912D01*
X13536554Y-21959912D02*
X13536554Y-21788484D01*
X13727030Y-21988484D02*
X13727030Y-21883722D01*
X13727030Y-21883722D02*
X13717506Y-21864674D01*
X13717506Y-21864674D02*
X13698459Y-21855150D01*
X13698459Y-21855150D02*
X13660363Y-21855150D01*
X13660363Y-21855150D02*
X13641316Y-21864674D01*
X13727030Y-21978960D02*
X13707983Y-21988484D01*
X13707983Y-21988484D02*
X13660363Y-21988484D01*
X13660363Y-21988484D02*
X13641316Y-21978960D01*
X13641316Y-21978960D02*
X13631792Y-21959912D01*
X13631792Y-21959912D02*
X13631792Y-21940865D01*
X13631792Y-21940865D02*
X13641316Y-21921817D01*
X13641316Y-21921817D02*
X13660363Y-21912293D01*
X13660363Y-21912293D02*
X13707983Y-21912293D01*
X13707983Y-21912293D02*
X13727030Y-21902770D01*
X13793697Y-21855150D02*
X13869887Y-21855150D01*
X13822268Y-21788484D02*
X13822268Y-21959912D01*
X13822268Y-21959912D02*
X13831792Y-21978960D01*
X13831792Y-21978960D02*
X13850840Y-21988484D01*
X13850840Y-21988484D02*
X13869887Y-21988484D01*
X14012744Y-21978960D02*
X13993697Y-21988484D01*
X13993697Y-21988484D02*
X13955602Y-21988484D01*
X13955602Y-21988484D02*
X13936554Y-21978960D01*
X13936554Y-21978960D02*
X13927030Y-21959912D01*
X13927030Y-21959912D02*
X13927030Y-21883722D01*
X13927030Y-21883722D02*
X13936554Y-21864674D01*
X13936554Y-21864674D02*
X13955602Y-21855150D01*
X13955602Y-21855150D02*
X13993697Y-21855150D01*
X13993697Y-21855150D02*
X14012744Y-21864674D01*
X14012744Y-21864674D02*
X14022268Y-21883722D01*
X14022268Y-21883722D02*
X14022268Y-21902770D01*
X14022268Y-21902770D02*
X13927030Y-21921817D01*
X14193697Y-21988484D02*
X14193697Y-21788484D01*
X14193697Y-21978960D02*
X14174649Y-21988484D01*
X14174649Y-21988484D02*
X14136554Y-21988484D01*
X14136554Y-21988484D02*
X14117506Y-21978960D01*
X14117506Y-21978960D02*
X14107983Y-21969436D01*
X14107983Y-21969436D02*
X14098459Y-21950389D01*
X14098459Y-21950389D02*
X14098459Y-21893246D01*
X14098459Y-21893246D02*
X14107983Y-21874198D01*
X14107983Y-21874198D02*
X14117506Y-21864674D01*
X14117506Y-21864674D02*
X14136554Y-21855150D01*
X14136554Y-21855150D02*
X14174649Y-21855150D01*
X14174649Y-21855150D02*
X14193697Y-21864674D01*
X14269887Y-22064674D02*
X14279411Y-22055150D01*
X14279411Y-22055150D02*
X14298459Y-22026579D01*
X14298459Y-22026579D02*
X14307983Y-22007531D01*
X14307983Y-22007531D02*
X14317506Y-21978960D01*
X14317506Y-21978960D02*
X14327030Y-21931341D01*
X14327030Y-21931341D02*
X14327030Y-21893246D01*
X14327030Y-21893246D02*
X14317506Y-21845627D01*
X14317506Y-21845627D02*
X14307983Y-21817055D01*
X14307983Y-21817055D02*
X14298459Y-21798008D01*
X14298459Y-21798008D02*
X14279411Y-21769436D01*
X14279411Y-21769436D02*
X14269887Y-21759912D01*
M02*
