G04 #@! TF.GenerationSoftware,KiCad,Pcbnew,8.0.3*
G04 #@! TF.CreationDate,2024-09-11T17:16:18-04:00*
G04 #@! TF.ProjectId,cover_plate,636f7665-725f-4706-9c61-74652e6b6963,rev?*
G04 #@! TF.SameCoordinates,Original*
G04 #@! TF.FileFunction,Profile,NP*
%FSLAX46Y46*%
G04 Gerber Fmt 4.6, Leading zero omitted, Abs format (unit mm)*
G04 Created by KiCad (PCBNEW 8.0.3) date 2024-09-11 17:16:18*
%MOMM*%
%LPD*%
G01*
G04 APERTURE LIST*
G04 #@! TA.AperFunction,Profile*
%ADD10C,0.100000*%
G04 #@! TD*
G04 APERTURE END LIST*
D10*
X274020947Y-188983553D02*
G75*
G02*
X274520947Y-189483553I-47J-500047D01*
G01*
X173796447Y-165783553D02*
G75*
G02*
X173296447Y-165283553I-47J499953D01*
G01*
X264521447Y-146683553D02*
G75*
G02*
X264021447Y-146183553I-47J499953D01*
G01*
X121271447Y-127583553D02*
X134271447Y-127583553D01*
X399283947Y-157671553D02*
X398671947Y-157671553D01*
X220721447Y-146183553D02*
X220721447Y-133183553D01*
X399283947Y-157671553D02*
G75*
G02*
X399783947Y-158171553I-47J-500047D01*
G01*
X468741847Y-105921953D02*
X481741847Y-105921953D01*
X287571447Y-127083553D02*
G75*
G02*
X287071447Y-127583647I-500047J-47D01*
G01*
X202446447Y-184883553D02*
G75*
G02*
X201946447Y-184383553I-47J499953D01*
G01*
X312271447Y-127583553D02*
X325271447Y-127583553D01*
X518356047Y-152336753D02*
X505356047Y-152336753D01*
X229771447Y-113583553D02*
G75*
G02*
X230271447Y-114083553I-47J-500047D01*
G01*
X482770647Y-189927953D02*
X469770647Y-189927953D01*
X311771447Y-114083553D02*
G75*
G02*
X312271447Y-113583647I499953J-47D01*
G01*
X163421447Y-203483553D02*
X163421447Y-190483553D01*
X239821447Y-146183553D02*
G75*
G02*
X239321447Y-146683647I-500047J-47D01*
G01*
X226271947Y-188983553D02*
G75*
G02*
X226771947Y-189483553I-47J-500047D01*
G01*
X201621447Y-146183553D02*
X201621447Y-133183553D01*
X340421447Y-133183553D02*
X340421447Y-146183553D01*
X169021447Y-146683553D02*
G75*
G02*
X168521447Y-146183553I-47J499953D01*
G01*
X307496447Y-165783553D02*
G75*
G02*
X306996447Y-165283553I-47J499953D01*
G01*
X218333947Y-203483553D02*
X218333947Y-190483553D01*
X273571447Y-114083553D02*
X273571447Y-127083553D01*
X163421447Y-146183553D02*
G75*
G02*
X162921447Y-146683647I-500047J-47D01*
G01*
X315121447Y-189983553D02*
X315121447Y-189483600D01*
X235871447Y-127583553D02*
X248871447Y-127583553D01*
X186796447Y-151783553D02*
G75*
G02*
X187296447Y-152283553I-47J-500047D01*
G01*
X360021447Y-146683553D02*
G75*
G02*
X359521447Y-146183553I-47J499953D01*
G01*
X504856047Y-114636753D02*
G75*
G02*
X505356047Y-114136847I499953J-47D01*
G01*
X326596447Y-165783553D02*
G75*
G02*
X326096447Y-165283553I-47J499953D01*
G01*
X131266447Y-184888553D02*
X148146447Y-184888553D01*
X207321447Y-188983553D02*
G75*
G02*
X207821447Y-189483553I-47J-500047D01*
G01*
X283121447Y-133183553D02*
X283121447Y-146183553D01*
X287896447Y-152283553D02*
X287896447Y-165283553D01*
X383896447Y-146683553D02*
G75*
G02*
X383396447Y-146183553I-47J499953D01*
G01*
X396896447Y-132683553D02*
X383896447Y-132683553D01*
X481741847Y-91921953D02*
G75*
G02*
X482241847Y-92421953I-47J-500047D01*
G01*
X336146447Y-203983553D02*
X351533947Y-203983553D01*
X216771447Y-127583553D02*
X229771447Y-127583553D01*
X482241847Y-105421953D02*
X482241847Y-92421953D01*
X287896447Y-152283553D02*
G75*
G02*
X288396447Y-151783647I499953J-47D01*
G01*
X325271447Y-113583553D02*
G75*
G02*
X325771447Y-114083553I-47J-500047D01*
G01*
X225821447Y-133183553D02*
X225821447Y-146183553D01*
X283121447Y-133183553D02*
G75*
G02*
X283621447Y-132683647I499953J-47D01*
G01*
X377183447Y-128083553D02*
G75*
G02*
X376683447Y-128583647I-500047J-47D01*
G01*
X182521447Y-146183553D02*
X182521447Y-133183553D01*
X267971447Y-113583553D02*
G75*
G02*
X268471447Y-114083553I-47J-500047D01*
G01*
X226771947Y-203483553D02*
X226771947Y-189483553D01*
X221546447Y-184883553D02*
X234546447Y-184883553D01*
X205896447Y-151783553D02*
X192896447Y-151783553D01*
X147033947Y-190483553D02*
X147033947Y-203483553D01*
X362408947Y-184883553D02*
G75*
G02*
X361908947Y-184383553I-47J499953D01*
G01*
X310946447Y-170883553D02*
G75*
G02*
X311446447Y-171383553I-47J-500047D01*
G01*
X328161275Y-203483553D02*
G75*
G02*
X327659134Y-203985975I-502375J-47D01*
G01*
X383896447Y-146683553D02*
X385783947Y-146683553D01*
X278346447Y-171383553D02*
X278346447Y-184383553D01*
X316546447Y-171383553D02*
G75*
G02*
X317046447Y-170883647I499953J-47D01*
G01*
X168521447Y-133183553D02*
G75*
G02*
X169021447Y-132683647I499953J-47D01*
G01*
X154196447Y-152283553D02*
G75*
G02*
X154696447Y-151783647I499953J-47D01*
G01*
X123658947Y-184883553D02*
X124270947Y-184888553D01*
X277521447Y-132683553D02*
G75*
G02*
X278021447Y-133183553I-47J-500047D01*
G01*
X168521447Y-133183553D02*
X168521447Y-146183553D01*
X187621447Y-133183553D02*
X187621447Y-146183553D01*
X163421447Y-146183553D02*
X163421447Y-133183553D01*
X148146447Y-184888553D02*
X148146447Y-185383553D01*
X259246447Y-171383553D02*
G75*
G02*
X259746447Y-170883647I499953J-47D01*
G01*
X210671447Y-113583553D02*
X197671447Y-113583553D01*
X518356047Y-133236753D02*
G75*
G02*
X518856047Y-133736753I-47J-500047D01*
G01*
X201946447Y-171383553D02*
X201946447Y-184383553D01*
X244596447Y-165283553D02*
X244596447Y-152283553D01*
X334821447Y-132683553D02*
G75*
G02*
X335321447Y-133183553I-47J-500047D01*
G01*
X344371447Y-113583553D02*
G75*
G02*
X344871447Y-114083553I-47J-500047D01*
G01*
X239321447Y-132683553D02*
X226321447Y-132683553D01*
X293171447Y-127583553D02*
X306171447Y-127583553D01*
X311771447Y-114083553D02*
X311771447Y-127083553D01*
X306171447Y-113583553D02*
X293171447Y-113583553D01*
X532100000Y-114560000D02*
G75*
G02*
X527700000Y-114560000I-2200000J0D01*
G01*
X527700000Y-114560000D02*
G75*
G02*
X532100000Y-114560000I2200000J0D01*
G01*
X321821447Y-146683553D02*
G75*
G02*
X321321447Y-146183553I-47J499953D01*
G01*
X450182447Y-171309753D02*
X450182447Y-184309753D01*
X445094447Y-203400153D02*
X445094447Y-190400153D01*
X317046447Y-184883553D02*
G75*
G02*
X316546447Y-184383553I-47J499953D01*
G01*
X258421447Y-132683553D02*
X245421447Y-132683553D01*
X352039751Y-203480011D02*
G75*
G02*
X351530651Y-203989453I-505851J-3589D01*
G01*
X349146447Y-170883553D02*
G75*
G02*
X349646447Y-171383553I-47J-500047D01*
G01*
X330046447Y-170883553D02*
G75*
G02*
X330546447Y-171383553I-47J-500047D01*
G01*
X217833947Y-189983553D02*
G75*
G02*
X218333947Y-190483553I-47J-500047D01*
G01*
X336146447Y-203983553D02*
G75*
G02*
X335646447Y-203483553I-47J499953D01*
G01*
X504893553Y-95543553D02*
G75*
G02*
X505393553Y-95043553I500047J-47D01*
G01*
X220271947Y-203983553D02*
X226271947Y-203983553D01*
X215446447Y-170883553D02*
G75*
G02*
X215946447Y-171383553I-47J-500047D01*
G01*
X187296447Y-165283553D02*
X187296447Y-152283553D01*
X353921447Y-132683553D02*
G75*
G02*
X354421447Y-133183553I-47J-500047D01*
G01*
X278021447Y-146183553D02*
G75*
G02*
X277521447Y-146683647I-500047J-47D01*
G01*
X169021447Y-146683553D02*
X182021447Y-146683553D01*
X123156761Y-171383551D02*
G75*
G02*
X123657648Y-170881762I501839J-49D01*
G01*
X230271447Y-127083553D02*
X230271447Y-114083553D01*
X240646447Y-184883553D02*
X253646447Y-184883553D01*
X301396447Y-151783553D02*
X288396447Y-151783553D01*
X206396447Y-165283553D02*
G75*
G02*
X205896447Y-165783647I-500047J-47D01*
G01*
X505356047Y-128136753D02*
X518356047Y-128136753D01*
X196846447Y-184383553D02*
X196846447Y-171383553D01*
X218333947Y-203483553D02*
G75*
G02*
X217833947Y-203983547I-499947J-47D01*
G01*
X450182447Y-190409753D02*
G75*
G02*
X450682447Y-189909847I499953J-47D01*
G01*
X397396447Y-140795553D02*
X397396447Y-142233553D01*
X370683447Y-128583553D02*
X376683447Y-128583553D01*
X297946447Y-184883553D02*
G75*
G02*
X297446447Y-184383553I-47J499953D01*
G01*
X183346447Y-184883553D02*
X196346447Y-184883553D01*
X364796447Y-165783553D02*
X367795947Y-165783553D01*
X297946447Y-184883553D02*
X310946447Y-184883553D01*
X282296447Y-151783553D02*
G75*
G02*
X282796447Y-152283553I-47J-500047D01*
G01*
X206396447Y-165283553D02*
X206396447Y-152283553D01*
X124770947Y-185883553D02*
G75*
G02*
X124270947Y-185383553I-47J499953D01*
G01*
X340921447Y-146683553D02*
X353921447Y-146683553D01*
X306996447Y-152283553D02*
G75*
G02*
X307496447Y-151783647I499953J-47D01*
G01*
X182021447Y-132683553D02*
X169021447Y-132683553D01*
X207221447Y-146683553D02*
X220221447Y-146683553D01*
X264521447Y-146683553D02*
X277521447Y-146683553D01*
X283621447Y-146683553D02*
G75*
G02*
X283121447Y-146183553I-47J499953D01*
G01*
X302721447Y-146683553D02*
X315721447Y-146683553D01*
X168196447Y-165283553D02*
X168196447Y-152283553D01*
X518856047Y-184936753D02*
X518856047Y-171936753D01*
X518856047Y-184936753D02*
G75*
G02*
X518356047Y-185436847I-500047J-47D01*
G01*
X401741447Y-113583553D02*
X369571447Y-113583553D01*
X397728447Y-93251153D02*
G75*
G02*
X398728447Y-92251247I999953J-47D01*
G01*
X345696447Y-165783553D02*
X358696447Y-165783553D01*
X272746447Y-170883553D02*
X259746447Y-170883553D01*
X244096447Y-151783553D02*
X231096447Y-151783553D01*
X141433947Y-151783553D02*
X123658947Y-151783553D01*
X390233947Y-165283553D02*
X390233947Y-164671553D01*
X314158947Y-190483553D02*
G75*
G02*
X314658947Y-189983647I499953J-47D01*
G01*
X320996447Y-165283553D02*
G75*
G02*
X320496447Y-165783647I-500047J-47D01*
G01*
X303033947Y-203483553D02*
X303033947Y-189483553D01*
X292671447Y-114083553D02*
X292671447Y-127083553D01*
X505356047Y-147236753D02*
X518356047Y-147236753D01*
X335321447Y-146183553D02*
G75*
G02*
X334821447Y-146683647I-500047J-47D01*
G01*
X282796447Y-165283553D02*
G75*
G02*
X282296447Y-165783647I-500047J-47D01*
G01*
X301896447Y-165283553D02*
G75*
G02*
X301396447Y-165783647I-500047J-47D01*
G01*
X397728447Y-93251153D02*
X397728447Y-107001153D01*
X134271447Y-113583553D02*
G75*
G02*
X134771447Y-114083553I-47J-500047D01*
G01*
X392171947Y-166783553D02*
G75*
G02*
X391671947Y-166283553I-47J499953D01*
G01*
X456703447Y-105476153D02*
G75*
G02*
X456203447Y-105976247I-500047J-47D01*
G01*
X139546447Y-146183553D02*
G75*
G02*
X139046447Y-146683647I-500047J-47D01*
G01*
X125546447Y-133183553D02*
X125546447Y-146183553D01*
X518893553Y-108543553D02*
X518893553Y-95543553D01*
X238270000Y-203983553D02*
X274020947Y-203983553D01*
X288396447Y-165783553D02*
G75*
G02*
X287896447Y-165283553I-47J499953D01*
G01*
X373521447Y-146183553D02*
G75*
G02*
X373021447Y-146683647I-500047J-47D01*
G01*
X274071447Y-127583553D02*
X287071447Y-127583553D01*
X172971447Y-127083553D02*
G75*
G02*
X172471447Y-127583647I-500047J-47D01*
G01*
X394059447Y-127583553D02*
X394059447Y-128083553D01*
X254971447Y-127583553D02*
G75*
G02*
X254471447Y-127083553I-47J499953D01*
G01*
X225496447Y-165283553D02*
X225496447Y-152283553D01*
X235371447Y-114083553D02*
G75*
G02*
X235871447Y-113583647I499953J-47D01*
G01*
X463682447Y-189909753D02*
G75*
G02*
X464182447Y-190409753I-47J-500047D01*
G01*
X359196447Y-165283553D02*
G75*
G02*
X358696447Y-165783647I-500047J-47D01*
G01*
X268796447Y-152283553D02*
X268796447Y-165283553D01*
X239821447Y-146183553D02*
X239821447Y-133183553D01*
X216271447Y-114083553D02*
G75*
G02*
X216771447Y-113583647I499953J-47D01*
G01*
X274520947Y-203483553D02*
X274520947Y-189483553D01*
X274520947Y-203483553D02*
G75*
G02*
X274020947Y-203983647I-500047J-47D01*
G01*
X397396447Y-133795553D02*
X397396447Y-133183553D01*
X518393553Y-95043553D02*
X505393553Y-95043553D01*
X263696447Y-165283553D02*
X263696447Y-152283553D01*
X330046447Y-170883553D02*
X317046447Y-170883553D01*
X297121447Y-146183553D02*
X297121447Y-133183553D01*
X205896447Y-151783553D02*
G75*
G02*
X206396447Y-152283553I-47J-500047D01*
G01*
X320496447Y-151783553D02*
X307496447Y-151783553D01*
X322121447Y-189983553D02*
X322121447Y-189483600D01*
X398728447Y-108001153D02*
X436978447Y-108001153D01*
X399283947Y-133795553D02*
G75*
G02*
X399783947Y-134295553I-47J-500047D01*
G01*
X237758947Y-190483553D02*
G75*
G02*
X238258947Y-189983647I499953J-47D01*
G01*
X331371447Y-127583553D02*
G75*
G02*
X330871447Y-127083553I-47J499953D01*
G01*
X370183447Y-127583553D02*
X370183447Y-128083553D01*
X398671947Y-166283553D02*
X398671947Y-164671553D01*
X375408947Y-170883553D02*
G75*
G02*
X375908947Y-171383553I-47J-500047D01*
G01*
X399783947Y-140295553D02*
X399783947Y-134295553D01*
X437728447Y-107251153D02*
G75*
G02*
X436978447Y-108001247I-750047J-47D01*
G01*
X336146447Y-184883553D02*
G75*
G02*
X335646447Y-184383553I-47J499953D01*
G01*
X505356047Y-166336753D02*
G75*
G02*
X504856047Y-165836753I-47J499953D01*
G01*
X358696447Y-151783553D02*
G75*
G02*
X359196447Y-152283553I-47J-500047D01*
G01*
X219771947Y-189483553D02*
X219771947Y-203483553D01*
X267971447Y-113583553D02*
X254971447Y-113583553D01*
X383396447Y-133183553D02*
G75*
G02*
X383896447Y-132683647I499953J-47D01*
G01*
X398671947Y-164671553D02*
X399283947Y-164671553D01*
X291896947Y-203983553D02*
X302533947Y-203983553D01*
X375408947Y-170883553D02*
X362408947Y-170883553D01*
X401059447Y-128083553D02*
G75*
G02*
X400559447Y-128583647I-500047J-47D01*
G01*
X320996447Y-165283553D02*
X320996447Y-152283553D01*
X123160000Y-203490000D02*
X123160000Y-190490000D01*
X398728447Y-108001153D02*
G75*
G02*
X397728447Y-107001153I-47J999953D01*
G01*
X463682447Y-189909753D02*
X450682447Y-189909753D01*
X238270000Y-203985039D02*
G75*
G02*
X237757338Y-203483553I-11100J501439D01*
G01*
X302221447Y-133183553D02*
G75*
G02*
X302721447Y-132683647I499953J-47D01*
G01*
X315721447Y-132683553D02*
G75*
G02*
X316221447Y-133183553I-47J-500047D01*
G01*
X278846447Y-184883553D02*
X291846447Y-184883553D01*
X244921447Y-133183553D02*
X244921447Y-146183553D01*
X450682447Y-203909753D02*
X463682447Y-203909753D01*
X443203447Y-105976153D02*
X456203447Y-105976153D01*
X349646447Y-184383553D02*
X349646447Y-171383553D01*
X254471447Y-114083553D02*
G75*
G02*
X254971447Y-113583647I499953J-47D01*
G01*
X394559447Y-128583553D02*
G75*
G02*
X394059447Y-128083553I-47J499953D01*
G01*
X518856047Y-146736753D02*
X518856047Y-133736753D01*
X149421447Y-133183553D02*
G75*
G02*
X149921447Y-132683647I499953J-47D01*
G01*
X268796447Y-152283553D02*
G75*
G02*
X269296447Y-151783647I499953J-47D01*
G01*
X374795947Y-166283553D02*
G75*
G02*
X374295947Y-166783647I-500047J-47D01*
G01*
X148646947Y-185883553D02*
X154646947Y-185883553D01*
X340096447Y-165283553D02*
G75*
G02*
X339596447Y-165783647I-500047J-47D01*
G01*
X267520947Y-189978553D02*
X238258947Y-189983553D01*
X158646447Y-184383553D02*
G75*
G02*
X158146447Y-184883647I-500047J-47D01*
G01*
X245421447Y-146683553D02*
G75*
G02*
X244921447Y-146183553I-47J499953D01*
G01*
X505393553Y-109043553D02*
G75*
G02*
X504893647Y-108543553I47J499953D01*
G01*
X219771947Y-189483553D02*
G75*
G02*
X220271947Y-188983647I499953J-47D01*
G01*
X149921447Y-146683553D02*
X162921447Y-146683553D01*
X287071447Y-113583553D02*
G75*
G02*
X287571447Y-114083553I-47J-500047D01*
G01*
X311446447Y-184383553D02*
X311446447Y-171383553D01*
X532370000Y-80473247D02*
X532370000Y-212423247D01*
X532273247Y-212520000D01*
X80346047Y-212520000D01*
X75188719Y-207362672D01*
X75188719Y-116340847D01*
X80222807Y-111306759D01*
X80222807Y-111300000D01*
X80477807Y-111045000D01*
X390261047Y-111045000D01*
X390516047Y-110790000D01*
X390516047Y-82640000D01*
X392686047Y-80470000D01*
X532333247Y-80470000D01*
X532350000Y-80453247D01*
X532370000Y-80473247D01*
X344871447Y-127083553D02*
G75*
G02*
X344371447Y-127583647I-500047J-47D01*
G01*
X82550000Y-129930000D02*
G75*
G02*
X78150000Y-129930000I-2200000J0D01*
G01*
X78150000Y-129930000D02*
G75*
G02*
X82550000Y-129930000I2200000J0D01*
G01*
X82540000Y-161860000D02*
G75*
G02*
X78140000Y-161860000I-2200000J0D01*
G01*
X78140000Y-161860000D02*
G75*
G02*
X82540000Y-161860000I2200000J0D01*
G01*
X278021447Y-146183553D02*
X278021447Y-133183553D01*
X226271947Y-188983553D02*
X220271947Y-188983553D01*
X482241847Y-105421953D02*
G75*
G02*
X481741847Y-105922047I-500047J-47D01*
G01*
X431094447Y-190400153D02*
G75*
G02*
X431594447Y-189900247I499953J-47D01*
G01*
X399783947Y-155733553D02*
G75*
G02*
X399283947Y-156233647I-500047J-47D01*
G01*
X363971447Y-127083553D02*
X363971447Y-114083553D01*
X211496447Y-152283553D02*
G75*
G02*
X211996447Y-151783647I499953J-47D01*
G01*
X297446447Y-171383553D02*
G75*
G02*
X297946447Y-170883647I499953J-47D01*
G01*
X401740000Y-113583554D02*
G75*
G02*
X402176130Y-114083553I-68600J-500046D01*
G01*
X192071447Y-127083553D02*
G75*
G02*
X191571447Y-127583647I-500047J-47D01*
G01*
X217833947Y-189983553D02*
X207821447Y-189978553D01*
X250196447Y-165783553D02*
G75*
G02*
X249696447Y-165283553I-47J499953D01*
G01*
X306671447Y-127083553D02*
G75*
G02*
X306171447Y-127583647I-500047J-47D01*
G01*
X253646447Y-170883553D02*
X240646447Y-170883553D01*
X131270947Y-185383553D02*
X131266447Y-184888553D01*
X340096447Y-165283553D02*
X340096447Y-152283553D01*
X87080000Y-121750000D02*
X101590000Y-121750000D01*
X101590000Y-202260000D01*
X87080000Y-202260000D01*
X87080000Y-121750000D01*
X211996447Y-165783553D02*
X224996447Y-165783553D01*
X481741847Y-91921953D02*
X468741847Y-91921953D01*
X518393553Y-95043553D02*
G75*
G02*
X518893647Y-95543553I47J-500047D01*
G01*
X154696447Y-165783553D02*
X167696447Y-165783553D01*
X464182447Y-184309753D02*
X464182447Y-171309753D01*
X192071447Y-127083553D02*
X192071447Y-114083553D01*
X469770647Y-203927953D02*
X482770647Y-203927953D01*
X431594447Y-203900153D02*
X444594447Y-203900153D01*
X187296447Y-203483553D02*
G75*
G02*
X186796447Y-203983647I-500047J-47D01*
G01*
X351535365Y-189982135D02*
G75*
G02*
X352035367Y-190483553I-1465J-501465D01*
G01*
X268471447Y-127083553D02*
G75*
G02*
X267971447Y-127583647I-500047J-47D01*
G01*
X325771447Y-127083553D02*
X325771447Y-114083553D01*
X328158947Y-203480000D02*
X328158947Y-190483600D01*
X167696447Y-151783553D02*
G75*
G02*
X168196447Y-152283553I-47J-500047D01*
G01*
X464182447Y-203409753D02*
X464182447Y-190409753D01*
X191571447Y-113583553D02*
G75*
G02*
X192071447Y-114083553I-47J-500047D01*
G01*
X134771447Y-127083553D02*
X134771447Y-114083553D01*
X201946447Y-171383553D02*
G75*
G02*
X202446447Y-170883647I499953J-47D01*
G01*
X504856047Y-133736753D02*
X504856047Y-146736753D01*
X162921447Y-189983553D02*
X147533947Y-189983553D01*
X330546447Y-184383553D02*
X330546447Y-171383553D01*
X354421447Y-146183553D02*
G75*
G02*
X353921447Y-146683647I-500047J-47D01*
G01*
X278346447Y-171383553D02*
G75*
G02*
X278846447Y-170883647I499953J-47D01*
G01*
X325271447Y-113583553D02*
X312271447Y-113583553D01*
X221046447Y-171383553D02*
X221046447Y-184383553D01*
X349971447Y-114083553D02*
X349971447Y-127083553D01*
X364796447Y-165783553D02*
G75*
G02*
X364296447Y-165283553I-47J499953D01*
G01*
X210671447Y-113583553D02*
G75*
G02*
X211171447Y-114083553I-47J-500047D01*
G01*
X244921447Y-133183553D02*
G75*
G02*
X245421447Y-132683647I499953J-47D01*
G01*
X518356047Y-133236753D02*
X505356047Y-133236753D01*
X162921447Y-132683553D02*
G75*
G02*
X163421447Y-133183553I-47J-500047D01*
G01*
X464182447Y-184309753D02*
G75*
G02*
X463682447Y-184809847I-500047J-47D01*
G01*
X450682447Y-184809753D02*
G75*
G02*
X450182447Y-184309753I-47J499953D01*
G01*
X370683447Y-128583553D02*
G75*
G02*
X370183447Y-128083553I-47J499953D01*
G01*
X139070000Y-203990000D02*
X123660000Y-203990000D01*
X287571447Y-127083553D02*
X287571447Y-114083553D01*
X220221447Y-132683553D02*
X207221447Y-132683553D01*
X259246447Y-171383553D02*
X259246447Y-184383553D01*
X224996447Y-151783553D02*
X211996447Y-151783553D01*
X397396447Y-140795553D02*
X399283947Y-140795553D01*
X220271947Y-203983553D02*
G75*
G02*
X219771947Y-203483553I-47J499953D01*
G01*
X321821447Y-146683553D02*
X334821447Y-146683553D01*
X177246447Y-170883553D02*
G75*
G02*
X177746447Y-171383553I-47J-500047D01*
G01*
X215946447Y-184383553D02*
G75*
G02*
X215446447Y-184883647I-500047J-47D01*
G01*
X197171447Y-114083553D02*
X197171447Y-127083553D01*
X383396447Y-133183553D02*
X383396447Y-146183553D01*
X398671947Y-156233553D02*
X399283947Y-156233553D01*
X248871447Y-113583553D02*
X235871447Y-113583553D01*
X178571447Y-127583553D02*
G75*
G02*
X178071447Y-127083553I-47J499953D01*
G01*
X301896447Y-165283553D02*
X301896447Y-152283553D01*
X288396447Y-165783553D02*
X301396447Y-165783553D01*
X316221447Y-146183553D02*
G75*
G02*
X315721447Y-146683647I-500047J-47D01*
G01*
X248871447Y-113583553D02*
G75*
G02*
X249371447Y-114083553I-47J-500047D01*
G01*
X399283947Y-142233553D02*
X397396447Y-142233553D01*
X391671947Y-164671553D02*
X391671947Y-166283553D01*
X464182447Y-203409753D02*
G75*
G02*
X463682447Y-203909847I-500047J-47D01*
G01*
X377183447Y-128083553D02*
X377183447Y-127583553D01*
X123158947Y-152283553D02*
X123158947Y-165283553D01*
X226321447Y-146683553D02*
X239321447Y-146683553D01*
X315121447Y-189483600D02*
G75*
G02*
X315621447Y-188983647I499953J0D01*
G01*
X187296447Y-190483553D02*
X187296447Y-203483553D01*
X254146447Y-184383553D02*
G75*
G02*
X253646447Y-184883647I-500047J-47D01*
G01*
X196395947Y-203983553D02*
X217830000Y-203983553D01*
X139070000Y-189990000D02*
G75*
G02*
X139570000Y-190490000I0J-500000D01*
G01*
X504856047Y-171936753D02*
G75*
G02*
X505356047Y-171436847I499953J-47D01*
G01*
X216771447Y-127583553D02*
G75*
G02*
X216271447Y-127083553I-47J499953D01*
G01*
X468741847Y-105921953D02*
G75*
G02*
X468241847Y-105421953I-47J499953D01*
G01*
X316221447Y-146183553D02*
X316221447Y-133183553D01*
X350471447Y-127583553D02*
X363471447Y-127583553D01*
X335646447Y-171383553D02*
X335646447Y-184383553D01*
X188121447Y-146683553D02*
X201121447Y-146683553D01*
X172971447Y-127083553D02*
X172971447Y-114083553D01*
X173296447Y-152283553D02*
G75*
G02*
X173796447Y-151783647I499953J-47D01*
G01*
X396896447Y-132683553D02*
G75*
G02*
X397396447Y-133183553I-47J-500047D01*
G01*
X518856047Y-165836753D02*
G75*
G02*
X518356047Y-166336847I-500047J-47D01*
G01*
X399783947Y-164171553D02*
G75*
G02*
X399283947Y-164671647I-500047J-47D01*
G01*
X163746447Y-171383553D02*
X163746447Y-184383553D01*
X267520947Y-189483553D02*
X267520947Y-189978553D01*
X126046447Y-146683553D02*
G75*
G02*
X125546447Y-146183553I-47J499953D01*
G01*
X344371447Y-113583553D02*
X331371447Y-113583553D01*
X123160000Y-190490000D02*
G75*
G02*
X123660000Y-189990000I500000J0D01*
G01*
X291846447Y-170883553D02*
G75*
G02*
X292346447Y-171383553I-47J-500047D01*
G01*
X349646447Y-184383553D02*
G75*
G02*
X349146447Y-184883647I-500047J-47D01*
G01*
X274071447Y-127583553D02*
G75*
G02*
X273571447Y-127083553I-47J499953D01*
G01*
X254471447Y-114083553D02*
X254471447Y-127083553D01*
X291846447Y-170883553D02*
X278846447Y-170883553D01*
X293171447Y-127583553D02*
G75*
G02*
X292671447Y-127083553I-47J499953D01*
G01*
X170885394Y-190477106D02*
X170885394Y-203477106D01*
X316546447Y-171383553D02*
X316546447Y-184383553D01*
X82570000Y-193660000D02*
G75*
G02*
X78170000Y-193660000I-2200000J0D01*
G01*
X78170000Y-193660000D02*
G75*
G02*
X82570000Y-193660000I2200000J0D01*
G01*
X192396447Y-152283553D02*
G75*
G02*
X192896447Y-151783647I499953J-47D01*
G01*
X289958947Y-203483553D02*
G75*
G02*
X289458947Y-203983647I-500047J-47D01*
G01*
X159471447Y-127583553D02*
X172471447Y-127583553D01*
X310946447Y-170883553D02*
X297946447Y-170883553D01*
X335321447Y-146183553D02*
X335321447Y-133183553D01*
X296621447Y-132683553D02*
X283621447Y-132683553D01*
X230596447Y-152283553D02*
G75*
G02*
X231096447Y-151783647I499953J-47D01*
G01*
X177246447Y-170883553D02*
X164246447Y-170883553D01*
X196346447Y-170883553D02*
G75*
G02*
X196846447Y-171383553I-47J-500047D01*
G01*
X240646447Y-184883553D02*
G75*
G02*
X240146447Y-184383553I-47J499953D01*
G01*
X244596447Y-165283553D02*
G75*
G02*
X244096447Y-165783647I-500047J-47D01*
G01*
X339596447Y-151783553D02*
X326596447Y-151783553D01*
X374795947Y-166283553D02*
X374795947Y-165783553D01*
X330871447Y-114083553D02*
G75*
G02*
X331371447Y-113583647I499953J-47D01*
G01*
X153371447Y-113583553D02*
X140371447Y-113583553D01*
X306171447Y-113583553D02*
G75*
G02*
X306671447Y-114083553I-47J-500047D01*
G01*
X504856047Y-152836753D02*
G75*
G02*
X505356047Y-152336847I499953J-47D01*
G01*
X191571447Y-113583553D02*
X178571447Y-113583553D01*
X505356047Y-128136753D02*
G75*
G02*
X504856047Y-127636753I-47J499953D01*
G01*
X450182447Y-190409753D02*
X450182447Y-203409753D01*
X297121447Y-146183553D02*
G75*
G02*
X296621447Y-146683647I-500047J-47D01*
G01*
X273246447Y-184383553D02*
X273246447Y-171383553D01*
X340421447Y-133183553D02*
G75*
G02*
X340921447Y-132683647I499953J-47D01*
G01*
X269296447Y-165783553D02*
G75*
G02*
X268796447Y-165283553I-47J499953D01*
G01*
X126046447Y-146683553D02*
X139046447Y-146683553D01*
X273246447Y-184383553D02*
G75*
G02*
X272746447Y-184883647I-500047J-47D01*
G01*
X469270647Y-190427953D02*
X469270647Y-203427953D01*
X518893553Y-108543553D02*
G75*
G02*
X518393553Y-109043553I-499953J-47D01*
G01*
X275958947Y-190483553D02*
G75*
G02*
X276458947Y-189983647I499953J-47D01*
G01*
X155146947Y-185383553D02*
X155146447Y-184888553D01*
X504856047Y-171936753D02*
X504856047Y-184936753D01*
X206721447Y-133183553D02*
X206721447Y-146183553D01*
X398671947Y-157671553D02*
X398671947Y-156233553D01*
X139871447Y-114083553D02*
G75*
G02*
X140371447Y-113583647I499953J-47D01*
G01*
X197671447Y-127583553D02*
G75*
G02*
X197171447Y-127083553I-47J499953D01*
G01*
X163746447Y-171383553D02*
G75*
G02*
X164246447Y-170883647I499953J-47D01*
G01*
X123158947Y-152283553D02*
G75*
G02*
X123658947Y-151783647I499953J-47D01*
G01*
X168196447Y-165283553D02*
G75*
G02*
X167696447Y-165783647I-500047J-47D01*
G01*
X149921447Y-146683553D02*
G75*
G02*
X149421447Y-146183553I-47J499953D01*
G01*
X369071447Y-114083553D02*
G75*
G02*
X369571447Y-113583647I499953J-47D01*
G01*
X444594447Y-189900153D02*
X431594447Y-189900153D01*
X234546447Y-170883553D02*
X221546447Y-170883553D01*
X431594447Y-203900153D02*
G75*
G02*
X431094447Y-203400153I-47J499953D01*
G01*
X344871447Y-127083553D02*
X344871447Y-114083553D01*
X302533947Y-188983553D02*
G75*
G02*
X303033947Y-189483553I-47J-500047D01*
G01*
X483270647Y-203427953D02*
G75*
G02*
X482770647Y-203928047I-500047J-47D01*
G01*
X235871447Y-127583553D02*
G75*
G02*
X235371447Y-127083553I-47J499953D01*
G01*
X278846447Y-184883553D02*
G75*
G02*
X278346447Y-184383553I-47J499953D01*
G01*
X202446447Y-184883553D02*
X215446447Y-184883553D01*
X463682447Y-170809753D02*
G75*
G02*
X464182447Y-171309753I-47J-500047D01*
G01*
X321621400Y-188983553D02*
X315621447Y-188983553D01*
X334821447Y-132683553D02*
X321821447Y-132683553D01*
X532100000Y-178170000D02*
G75*
G02*
X527700000Y-178170000I-2200000J0D01*
G01*
X527700000Y-178170000D02*
G75*
G02*
X532100000Y-178170000I2200000J0D01*
G01*
X345196447Y-152283553D02*
X345196447Y-165283553D01*
X330546447Y-184383553D02*
G75*
G02*
X330046447Y-184883647I-500047J-47D01*
G01*
X147560000Y-203983553D02*
G75*
G02*
X147033266Y-203483553I-26100J499953D01*
G01*
X268471447Y-127083553D02*
X268471447Y-114083553D01*
X450682447Y-184809753D02*
X463682447Y-184809753D01*
X158971447Y-114083553D02*
G75*
G02*
X159471447Y-113583647I499953J-47D01*
G01*
X167696447Y-151783553D02*
X154696447Y-151783553D01*
X153871447Y-127083553D02*
G75*
G02*
X153371447Y-127583647I-500047J-47D01*
G01*
X335646447Y-190483553D02*
G75*
G02*
X336146447Y-189983647I499953J-47D01*
G01*
X287071447Y-113583553D02*
X274071447Y-113583553D01*
X518356047Y-171436753D02*
G75*
G02*
X518856047Y-171936753I-47J-500047D01*
G01*
X139546447Y-146183553D02*
X139546447Y-133183553D01*
X375908947Y-184383553D02*
G75*
G02*
X375408947Y-184883647I-500047J-47D01*
G01*
X359196447Y-165283553D02*
X359196447Y-152283553D01*
X307496447Y-165783553D02*
X320496447Y-165783553D01*
X186796447Y-203983553D02*
X171386447Y-203983553D01*
X201121447Y-132683553D02*
G75*
G02*
X201621447Y-133183553I-47J-500047D01*
G01*
X186796447Y-189983553D02*
G75*
G02*
X187296447Y-190483553I-47J-500047D01*
G01*
X291896947Y-203983553D02*
G75*
G02*
X291396947Y-203483553I-47J499953D01*
G01*
X349971447Y-114083553D02*
G75*
G02*
X350471447Y-113583647I499953J-47D01*
G01*
X162921447Y-189983553D02*
G75*
G02*
X163421447Y-190483553I-47J-500047D01*
G01*
X123158947Y-171383553D02*
X123158947Y-184383553D01*
X221546447Y-184883553D02*
G75*
G02*
X221046447Y-184383553I-47J499953D01*
G01*
X186796447Y-151783553D02*
X173796447Y-151783553D01*
X249371447Y-127083553D02*
G75*
G02*
X248871447Y-127583647I-500047J-47D01*
G01*
X158971447Y-114083553D02*
X158971447Y-127083553D01*
X350471447Y-127583553D02*
G75*
G02*
X349971447Y-127083553I-47J499953D01*
G01*
X505356047Y-147236753D02*
G75*
G02*
X504856047Y-146736753I-47J499953D01*
G01*
X368295947Y-166783553D02*
G75*
G02*
X367795947Y-166283553I-47J499953D01*
G01*
X264021447Y-133183553D02*
X264021447Y-146183553D01*
X139570000Y-203490000D02*
G75*
G02*
X139070000Y-203990000I-500000J0D01*
G01*
X363971447Y-127083553D02*
G75*
G02*
X363471447Y-127583647I-500047J-47D01*
G01*
X216271447Y-114083553D02*
X216271447Y-127083553D01*
X292346447Y-184383553D02*
G75*
G02*
X291846447Y-184883647I-500047J-47D01*
G01*
X373521447Y-146183553D02*
X373521447Y-133183553D01*
X120771447Y-114083553D02*
X120771447Y-127083553D01*
X123660000Y-203990000D02*
G75*
G02*
X123160000Y-203490000I0J500000D01*
G01*
X211996447Y-165783553D02*
G75*
G02*
X211496447Y-165283553I-47J499953D01*
G01*
X518856047Y-127636753D02*
X518856047Y-114636753D01*
X436978447Y-92251153D02*
G75*
G02*
X437728447Y-93001153I-47J-750047D01*
G01*
X364296447Y-152283553D02*
G75*
G02*
X364796447Y-151783647I499953J-47D01*
G01*
X211496447Y-152283553D02*
X211496447Y-165283553D01*
X123658947Y-184883553D02*
G75*
G02*
X123158947Y-184383553I-47J499953D01*
G01*
X431094447Y-190400153D02*
X431094447Y-203400153D01*
X197671447Y-127583553D02*
X210671447Y-127583553D01*
X392171947Y-166783553D02*
X398171947Y-166783553D01*
X374795947Y-165783553D02*
X389733947Y-165783553D01*
X456203447Y-91976153D02*
G75*
G02*
X456703447Y-92476153I-47J-500047D01*
G01*
X385783947Y-151783553D02*
X364796447Y-151783553D01*
X326096447Y-152283553D02*
G75*
G02*
X326596447Y-151783647I499953J-47D01*
G01*
X326596447Y-165783553D02*
X339596447Y-165783553D01*
X363471447Y-113583553D02*
G75*
G02*
X363971447Y-114083553I-47J-500047D01*
G01*
X274020947Y-188983553D02*
X268020947Y-188983553D01*
X289458947Y-189983553D02*
X276458947Y-189983553D01*
X259746447Y-184883553D02*
X272746447Y-184883553D01*
X201121447Y-132683553D02*
X188121447Y-132683553D01*
X155146447Y-184888553D02*
X158146447Y-184883553D01*
X303033947Y-203483553D02*
G75*
G02*
X302533947Y-203983647I-500047J-47D01*
G01*
X171386447Y-203983553D02*
G75*
G02*
X170886447Y-203483553I-47J499953D01*
G01*
X292346447Y-184383553D02*
X292346447Y-171383553D01*
X182021447Y-132683553D02*
G75*
G02*
X182521447Y-133183553I-47J-500047D01*
G01*
X314658947Y-203983553D02*
X327668590Y-203983553D01*
X239321447Y-132683553D02*
G75*
G02*
X239821447Y-133183553I-47J-500047D01*
G01*
X398671947Y-166283553D02*
G75*
G02*
X398171947Y-166783647I-500047J-47D01*
G01*
X321321447Y-133183553D02*
G75*
G02*
X321821447Y-132683647I499953J-47D01*
G01*
X231096447Y-165783553D02*
X244096447Y-165783553D01*
X401059447Y-127583553D02*
X401671447Y-127583553D01*
X363471447Y-113583553D02*
X350471447Y-113583553D01*
X399283947Y-142233553D02*
G75*
G02*
X399783947Y-142733553I-47J-500047D01*
G01*
X124770947Y-185883553D02*
X130770947Y-185883553D01*
X120771447Y-114083553D02*
G75*
G02*
X121271447Y-113583647I499953J-47D01*
G01*
X206721447Y-133183553D02*
G75*
G02*
X207221447Y-132683647I499953J-47D01*
G01*
X282796447Y-165283553D02*
X282796447Y-152283553D01*
X188121447Y-146683553D02*
G75*
G02*
X187621447Y-146183553I-47J499953D01*
G01*
X312271447Y-127583553D02*
G75*
G02*
X311771447Y-127083553I-47J499953D01*
G01*
X450682447Y-203909753D02*
G75*
G02*
X450182447Y-203409753I-47J499953D01*
G01*
X391671947Y-164671553D02*
X390233947Y-164671553D01*
X354421447Y-146183553D02*
X354421447Y-133183553D01*
X504856047Y-114636753D02*
X504856047Y-127636753D01*
X192896447Y-165783553D02*
G75*
G02*
X192396447Y-165283553I-47J499953D01*
G01*
X226771947Y-203483553D02*
G75*
G02*
X226271947Y-203983647I-500047J-47D01*
G01*
X302221447Y-133183553D02*
X302221447Y-146183553D01*
X177746447Y-184383553D02*
G75*
G02*
X177246447Y-184883647I-500047J-47D01*
G01*
X134771447Y-127083553D02*
G75*
G02*
X134271447Y-127583647I-500047J-47D01*
G01*
X220721447Y-146183553D02*
G75*
G02*
X220221447Y-146683647I-500047J-47D01*
G01*
X351535365Y-189982135D02*
X336147865Y-189982135D01*
X468241847Y-92421953D02*
X468241847Y-105421953D01*
X352033947Y-203483553D02*
X352033947Y-190483553D01*
X292671447Y-114083553D02*
G75*
G02*
X293171447Y-113583647I499953J-47D01*
G01*
X211171447Y-127083553D02*
G75*
G02*
X210671447Y-127583647I-500047J-47D01*
G01*
X215946447Y-184383553D02*
X215946447Y-171383553D01*
X263696447Y-165283553D02*
G75*
G02*
X263196447Y-165783647I-500047J-47D01*
G01*
X158646447Y-184383553D02*
X158646447Y-171400000D01*
X172471447Y-113583553D02*
X159471447Y-113583553D01*
X469270647Y-190427953D02*
G75*
G02*
X469770647Y-189928047I499953J-47D01*
G01*
X373021447Y-132683553D02*
G75*
G02*
X373521447Y-133183553I-47J-500047D01*
G01*
X345196447Y-152283553D02*
G75*
G02*
X345696447Y-151783647I499953J-47D01*
G01*
X399783947Y-140295553D02*
G75*
G02*
X399283947Y-140795647I-500047J-47D01*
G01*
X178571447Y-127583553D02*
X191571447Y-127583553D01*
X235046447Y-184383553D02*
G75*
G02*
X234546447Y-184883647I-500047J-47D01*
G01*
X267520947Y-189483553D02*
G75*
G02*
X268020947Y-188983647I499953J-47D01*
G01*
X139871447Y-114083553D02*
X139871447Y-127083553D01*
X367795947Y-165783553D02*
X367795947Y-166283553D01*
X240146447Y-171383553D02*
G75*
G02*
X240646447Y-170883647I499953J-47D01*
G01*
X196846447Y-184383553D02*
G75*
G02*
X196346447Y-184883647I-500047J-47D01*
G01*
X437728447Y-107251153D02*
X437728447Y-93001153D01*
X272746447Y-170883553D02*
G75*
G02*
X273246447Y-171383553I-47J-500047D01*
G01*
X229771447Y-113583553D02*
X216771447Y-113583553D01*
X283621447Y-146683553D02*
X296621447Y-146683553D01*
X258921447Y-146183553D02*
G75*
G02*
X258421447Y-146683647I-500047J-47D01*
G01*
X335646447Y-171383553D02*
G75*
G02*
X336146447Y-170883647I499953J-47D01*
G01*
X345696447Y-165783553D02*
G75*
G02*
X345196447Y-165283553I-47J499953D01*
G01*
X505356047Y-185436753D02*
X518356047Y-185436753D01*
X402171447Y-127083553D02*
X402171447Y-114083553D01*
X139046447Y-132683553D02*
G75*
G02*
X139546447Y-133183553I-47J-500047D01*
G01*
X445094447Y-203400153D02*
G75*
G02*
X444594447Y-203900247I-500047J-47D01*
G01*
X183346447Y-184883553D02*
G75*
G02*
X182846447Y-184383553I-47J499953D01*
G01*
X162921447Y-132683553D02*
X149921447Y-132683553D01*
X264021447Y-133183553D02*
G75*
G02*
X264521447Y-132683647I499953J-47D01*
G01*
X331371447Y-127583553D02*
X344371447Y-127583553D01*
X230596447Y-152283553D02*
X230596447Y-165283553D01*
X234546447Y-170883553D02*
G75*
G02*
X235046447Y-171383553I-47J-500047D01*
G01*
X263196447Y-151783553D02*
X250196447Y-151783553D01*
X302533947Y-188983553D02*
X291896947Y-188983553D01*
X196395947Y-203983553D02*
G75*
G02*
X195895947Y-203483553I-47J499953D01*
G01*
X282296447Y-151783553D02*
X269296447Y-151783553D01*
X442703447Y-92476153D02*
G75*
G02*
X443203447Y-91976247I499953J-47D01*
G01*
X443203447Y-105976153D02*
G75*
G02*
X442703447Y-105476153I-47J499953D01*
G01*
X450182447Y-171309753D02*
G75*
G02*
X450682447Y-170809847I499953J-47D01*
G01*
X224996447Y-151783553D02*
G75*
G02*
X225496447Y-152283553I-47J-500047D01*
G01*
X518356047Y-114136753D02*
G75*
G02*
X518856047Y-114636753I-47J-500047D01*
G01*
X456703447Y-105476153D02*
X456703447Y-92476153D01*
X442703447Y-92476153D02*
X442703447Y-105476153D01*
X259746447Y-184883553D02*
G75*
G02*
X259246447Y-184383553I-47J499953D01*
G01*
X140371447Y-127583553D02*
G75*
G02*
X139871447Y-127083553I-47J499953D01*
G01*
X141433947Y-151783553D02*
G75*
G02*
X141933947Y-152283553I-47J-500047D01*
G01*
X436978447Y-92251153D02*
X398728447Y-92251153D01*
X369571447Y-127583553D02*
X370183447Y-127583553D01*
X469770647Y-203927953D02*
G75*
G02*
X469270647Y-203427953I-47J499953D01*
G01*
X377183447Y-127583553D02*
X394059447Y-127583553D01*
X253646447Y-170883553D02*
G75*
G02*
X254146447Y-171383553I-47J-500047D01*
G01*
X158140000Y-170883553D02*
X123660000Y-170883553D01*
X235371447Y-114083553D02*
X235371447Y-127083553D01*
X359521447Y-133183553D02*
X359521447Y-146183553D01*
X153871447Y-127083553D02*
X153871447Y-114083553D01*
X483270647Y-203427953D02*
X483270647Y-190427953D01*
X154196447Y-152283553D02*
X154196447Y-165283553D01*
X220221447Y-132683553D02*
G75*
G02*
X220721447Y-133183553I-47J-500047D01*
G01*
X302721447Y-146683553D02*
G75*
G02*
X302221447Y-146183553I-47J499953D01*
G01*
X178071447Y-114083553D02*
X178071447Y-127083553D01*
X155146947Y-185383553D02*
G75*
G02*
X154646947Y-185883647I-500047J-47D01*
G01*
X504856047Y-133736753D02*
G75*
G02*
X505356047Y-133236847I499953J-47D01*
G01*
X277521447Y-132683553D02*
X264521447Y-132683553D01*
X275958947Y-190483553D02*
X275958947Y-203483553D01*
X361908947Y-171383553D02*
X361908947Y-184383553D01*
X361908947Y-171383553D02*
G75*
G02*
X362408947Y-170883647I499953J-47D01*
G01*
X518356047Y-114136753D02*
X505356047Y-114136753D01*
X327658947Y-189983553D02*
G75*
G02*
X328158947Y-190483600I-47J-500047D01*
G01*
X173796447Y-165783553D02*
X186796447Y-165783553D01*
X182846447Y-171383553D02*
G75*
G02*
X183346447Y-170883647I499953J-47D01*
G01*
X131270947Y-185383553D02*
G75*
G02*
X130770947Y-185883647I-500047J-47D01*
G01*
X335646447Y-190483553D02*
X335646447Y-203483553D01*
X358696447Y-151783553D02*
X345696447Y-151783553D01*
X158141015Y-170889263D02*
G75*
G02*
X158646430Y-171395338I4685J-500737D01*
G01*
X314658947Y-203983553D02*
G75*
G02*
X314158947Y-203483600I-47J499953D01*
G01*
X504856047Y-152836753D02*
X504856047Y-165836753D01*
X390233947Y-165283553D02*
G75*
G02*
X389733947Y-165783647I-500047J-47D01*
G01*
X187296447Y-165283553D02*
G75*
G02*
X186796447Y-165783647I-500047J-47D01*
G01*
X444594447Y-189900153D02*
G75*
G02*
X445094447Y-190400153I-47J-500047D01*
G01*
X518356047Y-152336753D02*
G75*
G02*
X518856047Y-152836753I-47J-500047D01*
G01*
X250196447Y-165783553D02*
X263196447Y-165783553D01*
X325771447Y-127083553D02*
G75*
G02*
X325271447Y-127583647I-500047J-47D01*
G01*
X296621447Y-132683553D02*
G75*
G02*
X297121447Y-133183553I-47J-500047D01*
G01*
X301396447Y-151783553D02*
G75*
G02*
X301896447Y-152283553I-47J-500047D01*
G01*
X315121447Y-189983553D02*
X314658947Y-189983553D01*
X195895947Y-189483553D02*
G75*
G02*
X196395947Y-188983647I499953J-47D01*
G01*
X173296447Y-152283553D02*
X173296447Y-165283553D01*
X399783947Y-155733553D02*
X399783947Y-142733553D01*
X134271447Y-113583553D02*
X121271447Y-113583553D01*
X532110000Y-146330000D02*
G75*
G02*
X527710000Y-146330000I-2200000J0D01*
G01*
X527710000Y-146330000D02*
G75*
G02*
X532110000Y-146330000I2200000J0D01*
G01*
X237758947Y-190483553D02*
X237758947Y-203483553D01*
X369571447Y-127583553D02*
G75*
G02*
X369071447Y-127083553I-47J499953D01*
G01*
X231096447Y-165783553D02*
G75*
G02*
X230596447Y-165283553I-47J499953D01*
G01*
X226321447Y-146683553D02*
G75*
G02*
X225821447Y-146183553I-47J499953D01*
G01*
X123658947Y-165783553D02*
X141433947Y-165783553D01*
X178071447Y-114083553D02*
G75*
G02*
X178571447Y-113583647I499953J-47D01*
G01*
X399783947Y-164171553D02*
X399783947Y-158171553D01*
X321321447Y-133183553D02*
X321321447Y-146183553D01*
X320496447Y-151783553D02*
G75*
G02*
X320996447Y-152283553I-47J-500047D01*
G01*
X327658900Y-189983553D02*
X322121447Y-189983553D01*
X139046447Y-132683553D02*
X126046447Y-132683553D01*
X306671447Y-127083553D02*
X306671447Y-114083553D01*
X225821447Y-133183553D02*
G75*
G02*
X226321447Y-132683647I499953J-47D01*
G01*
X399283947Y-133795553D02*
X397396447Y-133795553D01*
X394559447Y-128583553D02*
X400559447Y-128583553D01*
X353921447Y-132683553D02*
X340921447Y-132683553D01*
X141933947Y-165283553D02*
G75*
G02*
X141433947Y-165783647I-500047J-47D01*
G01*
X153371447Y-113583553D02*
G75*
G02*
X153871447Y-114083553I-47J-500047D01*
G01*
X139570000Y-190490000D02*
X139570000Y-203490000D01*
X172471447Y-113583553D02*
G75*
G02*
X172971447Y-114083553I-47J-500047D01*
G01*
X468241847Y-92421953D02*
G75*
G02*
X468741847Y-91922047I499953J-47D01*
G01*
X140371447Y-127583553D02*
X153371447Y-127583553D01*
X463682447Y-170809753D02*
X450682447Y-170809753D01*
X177746447Y-184383553D02*
X177746447Y-171383553D01*
X375908947Y-184383553D02*
X375908947Y-171383553D01*
X360021447Y-146683553D02*
X373021447Y-146683553D01*
X505393553Y-109043553D02*
X518393553Y-109043553D01*
X317046447Y-184883553D02*
X330046447Y-184883553D01*
X170886447Y-190483553D02*
G75*
G02*
X171386447Y-189983647I499953J-47D01*
G01*
X263196447Y-151783553D02*
G75*
G02*
X263696447Y-152283553I-47J-500047D01*
G01*
X291396947Y-189483553D02*
X291396947Y-203483553D01*
X244096447Y-151783553D02*
G75*
G02*
X244596447Y-152283553I-47J-500047D01*
G01*
X249371447Y-127083553D02*
X249371447Y-114083553D01*
X195895947Y-189483553D02*
X195895947Y-203483553D01*
X362408947Y-184883553D02*
X375408947Y-184883553D01*
X123660000Y-189990000D02*
X139070000Y-189990000D01*
X276458947Y-203983553D02*
G75*
G02*
X275958947Y-203483553I-47J499953D01*
G01*
X315721447Y-132683553D02*
X302721447Y-132683553D01*
X518856047Y-165836753D02*
X518856047Y-152836753D01*
X289958947Y-203483553D02*
X289958947Y-190483553D01*
X254971447Y-127583553D02*
X267971447Y-127583553D01*
X269296447Y-165783553D02*
X282296447Y-165783553D01*
X196346447Y-170883553D02*
X183346447Y-170883553D01*
X339596447Y-151783553D02*
G75*
G02*
X340096447Y-152283553I-47J-500047D01*
G01*
X197171447Y-114083553D02*
G75*
G02*
X197671447Y-113583647I499953J-47D01*
G01*
X249696447Y-152283553D02*
G75*
G02*
X250196447Y-151783647I499953J-47D01*
G01*
X207821447Y-189978553D02*
X207821447Y-189483553D01*
X306996447Y-152283553D02*
X306996447Y-165283553D01*
X240146447Y-171383553D02*
X240146447Y-184383553D01*
X148646947Y-185883553D02*
G75*
G02*
X148146947Y-185383553I-47J499953D01*
G01*
X230271447Y-127083553D02*
G75*
G02*
X229771447Y-127583647I-500047J-47D01*
G01*
X211171447Y-127083553D02*
X211171447Y-114083553D01*
X154696447Y-165783553D02*
G75*
G02*
X154196447Y-165283553I-47J499953D01*
G01*
X420900000Y-122340000D02*
X492980000Y-122340000D01*
X492980000Y-166780000D01*
X420900000Y-166780000D01*
X420900000Y-122340000D01*
X289458947Y-189983553D02*
G75*
G02*
X289958947Y-190483553I-47J-500047D01*
G01*
X164246447Y-184883553D02*
G75*
G02*
X163746447Y-184383553I-47J499953D01*
G01*
X518856047Y-146736753D02*
G75*
G02*
X518356047Y-147236847I-500047J-47D01*
G01*
X321621400Y-188983553D02*
G75*
G02*
X322121447Y-189483600I0J-500047D01*
G01*
X364296447Y-152283553D02*
X364296447Y-165283553D01*
X171386447Y-189983553D02*
X186796447Y-189983553D01*
X245421447Y-146683553D02*
X258421447Y-146683553D01*
X207321447Y-188983553D02*
X196395947Y-188983553D01*
X201621447Y-146183553D02*
G75*
G02*
X201121447Y-146683647I-500047J-47D01*
G01*
X401059447Y-128083553D02*
X401059447Y-127583553D01*
X505356047Y-166336753D02*
X518356047Y-166336753D01*
X349146447Y-170883553D02*
X336146447Y-170883553D01*
X147560000Y-203983553D02*
X162921447Y-203983553D01*
X504893553Y-95543553D02*
X504893553Y-108543553D01*
X182521447Y-146183553D02*
G75*
G02*
X182021447Y-146683647I-500047J-47D01*
G01*
X225496447Y-165283553D02*
G75*
G02*
X224996447Y-165783647I-500047J-47D01*
G01*
X215446447Y-170883553D02*
X202446447Y-170883553D01*
X402171447Y-127083553D02*
G75*
G02*
X401671447Y-127583647I-500047J-47D01*
G01*
X123658947Y-165783553D02*
G75*
G02*
X123158947Y-165283553I-47J499953D01*
G01*
X187621447Y-133183553D02*
G75*
G02*
X188121447Y-132683647I499953J-47D01*
G01*
X149421447Y-133183553D02*
X149421447Y-146183553D01*
X359521447Y-133183553D02*
G75*
G02*
X360021447Y-132683647I499953J-47D01*
G01*
X249696447Y-152283553D02*
X249696447Y-165283553D01*
X456203447Y-91976153D02*
X443203447Y-91976153D01*
X297446447Y-171383553D02*
X297446447Y-184383553D01*
X314158947Y-190483553D02*
X314158947Y-203483600D01*
X182846447Y-171383553D02*
X182846447Y-184383553D01*
X326096447Y-152283553D02*
X326096447Y-165283553D01*
X373021447Y-132683553D02*
X360021447Y-132683553D01*
X124270947Y-184888553D02*
X124270947Y-185383553D01*
X207221447Y-146683553D02*
G75*
G02*
X206721447Y-146183553I-47J499953D01*
G01*
X159471447Y-127583553D02*
G75*
G02*
X158971447Y-127083553I-47J499953D01*
G01*
X235046447Y-184383553D02*
X235046447Y-171383553D01*
X505356047Y-185436753D02*
G75*
G02*
X504856047Y-184936753I-47J499953D01*
G01*
X340921447Y-146683553D02*
G75*
G02*
X340421447Y-146183553I-47J499953D01*
G01*
X368295947Y-166783553D02*
X374295947Y-166783553D01*
X291396947Y-189483553D02*
G75*
G02*
X291896947Y-188983647I499953J-47D01*
G01*
X387790000Y-187470000D02*
G75*
G02*
X383390000Y-187470000I-2200000J0D01*
G01*
X383390000Y-187470000D02*
G75*
G02*
X387790000Y-187470000I2200000J0D01*
G01*
X276458947Y-203983553D02*
X289458947Y-203983553D01*
X254146447Y-184383553D02*
X254146447Y-171383553D01*
X273571447Y-114083553D02*
G75*
G02*
X274071447Y-113583647I499953J-47D01*
G01*
X518856047Y-127636753D02*
G75*
G02*
X518356047Y-128136847I-500047J-47D01*
G01*
X192396447Y-152283553D02*
X192396447Y-165283553D01*
X125546447Y-133183553D02*
G75*
G02*
X126046447Y-132683647I499953J-47D01*
G01*
X258421447Y-132683553D02*
G75*
G02*
X258921447Y-133183553I-47J-500047D01*
G01*
X147032490Y-190490000D02*
G75*
G02*
X147532686Y-189982151I501410J6400D01*
G01*
X221046447Y-171383553D02*
G75*
G02*
X221546447Y-170883647I499953J-47D01*
G01*
X336146447Y-184883553D02*
X349146447Y-184883553D01*
X482770647Y-189927953D02*
G75*
G02*
X483270647Y-190427953I-47J-500047D01*
G01*
X369071447Y-114083553D02*
X369071447Y-127083553D01*
X163421447Y-203483553D02*
G75*
G02*
X162921447Y-203983647I-500047J-47D01*
G01*
X164246447Y-184883553D02*
X177246447Y-184883553D01*
X311446447Y-184383553D02*
G75*
G02*
X310946447Y-184883647I-500047J-47D01*
G01*
X192896447Y-165783553D02*
X205896447Y-165783553D01*
X330871447Y-114083553D02*
X330871447Y-127083553D01*
X141933947Y-165283553D02*
X141933947Y-152283553D01*
X385783947Y-146683553D02*
X385783947Y-151783553D01*
X121271447Y-127583553D02*
G75*
G02*
X120771447Y-127083553I-47J499953D01*
G01*
X518356047Y-171436753D02*
X505356047Y-171436753D01*
X258921447Y-146183553D02*
X258921447Y-133183553D01*
M02*
