G04 #@! TF.GenerationSoftware,KiCad,Pcbnew,8.0.3*
G04 #@! TF.CreationDate,2024-09-11T17:16:18-04:00*
G04 #@! TF.ProjectId,cover_plate,636f7665-725f-4706-9c61-74652e6b6963,rev?*
G04 #@! TF.SameCoordinates,Original*
G04 #@! TF.FileFunction,Legend,Top*
G04 #@! TF.FilePolarity,Positive*
%FSLAX46Y46*%
G04 Gerber Fmt 4.6, Leading zero omitted, Abs format (unit mm)*
G04 Created by KiCad (PCBNEW 8.0.3) date 2024-09-11 17:16:18*
%MOMM*%
%LPD*%
G01*
G04 APERTURE LIST*
%ADD10C,0.150000*%
%ADD11C,2.200000*%
G04 APERTURE END LIST*
D10*
X79016666Y-127184819D02*
X78683333Y-126708628D01*
X78445238Y-127184819D02*
X78445238Y-126184819D01*
X78445238Y-126184819D02*
X78826190Y-126184819D01*
X78826190Y-126184819D02*
X78921428Y-126232438D01*
X78921428Y-126232438D02*
X78969047Y-126280057D01*
X78969047Y-126280057D02*
X79016666Y-126375295D01*
X79016666Y-126375295D02*
X79016666Y-126518152D01*
X79016666Y-126518152D02*
X78969047Y-126613390D01*
X78969047Y-126613390D02*
X78921428Y-126661009D01*
X78921428Y-126661009D02*
X78826190Y-126708628D01*
X78826190Y-126708628D02*
X78445238Y-126708628D01*
X79445238Y-126661009D02*
X79778571Y-126661009D01*
X79921428Y-127184819D02*
X79445238Y-127184819D01*
X79445238Y-127184819D02*
X79445238Y-126184819D01*
X79445238Y-126184819D02*
X79921428Y-126184819D01*
X80683333Y-126661009D02*
X80350000Y-126661009D01*
X80350000Y-127184819D02*
X80350000Y-126184819D01*
X80350000Y-126184819D02*
X80826190Y-126184819D01*
X81350000Y-126184819D02*
X81350000Y-126422914D01*
X81111905Y-126327676D02*
X81350000Y-126422914D01*
X81350000Y-126422914D02*
X81588095Y-126327676D01*
X81207143Y-126613390D02*
X81350000Y-126422914D01*
X81350000Y-126422914D02*
X81492857Y-126613390D01*
X82111905Y-126184819D02*
X82111905Y-126422914D01*
X81873810Y-126327676D02*
X82111905Y-126422914D01*
X82111905Y-126422914D02*
X82350000Y-126327676D01*
X81969048Y-126613390D02*
X82111905Y-126422914D01*
X82111905Y-126422914D02*
X82254762Y-126613390D01*
X528576666Y-143584819D02*
X528243333Y-143108628D01*
X528005238Y-143584819D02*
X528005238Y-142584819D01*
X528005238Y-142584819D02*
X528386190Y-142584819D01*
X528386190Y-142584819D02*
X528481428Y-142632438D01*
X528481428Y-142632438D02*
X528529047Y-142680057D01*
X528529047Y-142680057D02*
X528576666Y-142775295D01*
X528576666Y-142775295D02*
X528576666Y-142918152D01*
X528576666Y-142918152D02*
X528529047Y-143013390D01*
X528529047Y-143013390D02*
X528481428Y-143061009D01*
X528481428Y-143061009D02*
X528386190Y-143108628D01*
X528386190Y-143108628D02*
X528005238Y-143108628D01*
X529005238Y-143061009D02*
X529338571Y-143061009D01*
X529481428Y-143584819D02*
X529005238Y-143584819D01*
X529005238Y-143584819D02*
X529005238Y-142584819D01*
X529005238Y-142584819D02*
X529481428Y-142584819D01*
X530243333Y-143061009D02*
X529910000Y-143061009D01*
X529910000Y-143584819D02*
X529910000Y-142584819D01*
X529910000Y-142584819D02*
X530386190Y-142584819D01*
X530910000Y-142584819D02*
X530910000Y-142822914D01*
X530671905Y-142727676D02*
X530910000Y-142822914D01*
X530910000Y-142822914D02*
X531148095Y-142727676D01*
X530767143Y-143013390D02*
X530910000Y-142822914D01*
X530910000Y-142822914D02*
X531052857Y-143013390D01*
X531671905Y-142584819D02*
X531671905Y-142822914D01*
X531433810Y-142727676D02*
X531671905Y-142822914D01*
X531671905Y-142822914D02*
X531910000Y-142727676D01*
X531529048Y-143013390D02*
X531671905Y-142822914D01*
X531671905Y-142822914D02*
X531814762Y-143013390D01*
X528566666Y-175424819D02*
X528233333Y-174948628D01*
X527995238Y-175424819D02*
X527995238Y-174424819D01*
X527995238Y-174424819D02*
X528376190Y-174424819D01*
X528376190Y-174424819D02*
X528471428Y-174472438D01*
X528471428Y-174472438D02*
X528519047Y-174520057D01*
X528519047Y-174520057D02*
X528566666Y-174615295D01*
X528566666Y-174615295D02*
X528566666Y-174758152D01*
X528566666Y-174758152D02*
X528519047Y-174853390D01*
X528519047Y-174853390D02*
X528471428Y-174901009D01*
X528471428Y-174901009D02*
X528376190Y-174948628D01*
X528376190Y-174948628D02*
X527995238Y-174948628D01*
X528995238Y-174901009D02*
X529328571Y-174901009D01*
X529471428Y-175424819D02*
X528995238Y-175424819D01*
X528995238Y-175424819D02*
X528995238Y-174424819D01*
X528995238Y-174424819D02*
X529471428Y-174424819D01*
X530233333Y-174901009D02*
X529900000Y-174901009D01*
X529900000Y-175424819D02*
X529900000Y-174424819D01*
X529900000Y-174424819D02*
X530376190Y-174424819D01*
X530900000Y-174424819D02*
X530900000Y-174662914D01*
X530661905Y-174567676D02*
X530900000Y-174662914D01*
X530900000Y-174662914D02*
X531138095Y-174567676D01*
X530757143Y-174853390D02*
X530900000Y-174662914D01*
X530900000Y-174662914D02*
X531042857Y-174853390D01*
X531661905Y-174424819D02*
X531661905Y-174662914D01*
X531423810Y-174567676D02*
X531661905Y-174662914D01*
X531661905Y-174662914D02*
X531900000Y-174567676D01*
X531519048Y-174853390D02*
X531661905Y-174662914D01*
X531661905Y-174662914D02*
X531804762Y-174853390D01*
X528566666Y-111814819D02*
X528233333Y-111338628D01*
X527995238Y-111814819D02*
X527995238Y-110814819D01*
X527995238Y-110814819D02*
X528376190Y-110814819D01*
X528376190Y-110814819D02*
X528471428Y-110862438D01*
X528471428Y-110862438D02*
X528519047Y-110910057D01*
X528519047Y-110910057D02*
X528566666Y-111005295D01*
X528566666Y-111005295D02*
X528566666Y-111148152D01*
X528566666Y-111148152D02*
X528519047Y-111243390D01*
X528519047Y-111243390D02*
X528471428Y-111291009D01*
X528471428Y-111291009D02*
X528376190Y-111338628D01*
X528376190Y-111338628D02*
X527995238Y-111338628D01*
X528995238Y-111291009D02*
X529328571Y-111291009D01*
X529471428Y-111814819D02*
X528995238Y-111814819D01*
X528995238Y-111814819D02*
X528995238Y-110814819D01*
X528995238Y-110814819D02*
X529471428Y-110814819D01*
X530233333Y-111291009D02*
X529900000Y-111291009D01*
X529900000Y-111814819D02*
X529900000Y-110814819D01*
X529900000Y-110814819D02*
X530376190Y-110814819D01*
X530900000Y-110814819D02*
X530900000Y-111052914D01*
X530661905Y-110957676D02*
X530900000Y-111052914D01*
X530900000Y-111052914D02*
X531138095Y-110957676D01*
X530757143Y-111243390D02*
X530900000Y-111052914D01*
X530900000Y-111052914D02*
X531042857Y-111243390D01*
X531661905Y-110814819D02*
X531661905Y-111052914D01*
X531423810Y-110957676D02*
X531661905Y-111052914D01*
X531661905Y-111052914D02*
X531900000Y-110957676D01*
X531519048Y-111243390D02*
X531661905Y-111052914D01*
X531661905Y-111052914D02*
X531804762Y-111243390D01*
X79006666Y-159114819D02*
X78673333Y-158638628D01*
X78435238Y-159114819D02*
X78435238Y-158114819D01*
X78435238Y-158114819D02*
X78816190Y-158114819D01*
X78816190Y-158114819D02*
X78911428Y-158162438D01*
X78911428Y-158162438D02*
X78959047Y-158210057D01*
X78959047Y-158210057D02*
X79006666Y-158305295D01*
X79006666Y-158305295D02*
X79006666Y-158448152D01*
X79006666Y-158448152D02*
X78959047Y-158543390D01*
X78959047Y-158543390D02*
X78911428Y-158591009D01*
X78911428Y-158591009D02*
X78816190Y-158638628D01*
X78816190Y-158638628D02*
X78435238Y-158638628D01*
X79435238Y-158591009D02*
X79768571Y-158591009D01*
X79911428Y-159114819D02*
X79435238Y-159114819D01*
X79435238Y-159114819D02*
X79435238Y-158114819D01*
X79435238Y-158114819D02*
X79911428Y-158114819D01*
X80673333Y-158591009D02*
X80340000Y-158591009D01*
X80340000Y-159114819D02*
X80340000Y-158114819D01*
X80340000Y-158114819D02*
X80816190Y-158114819D01*
X81340000Y-158114819D02*
X81340000Y-158352914D01*
X81101905Y-158257676D02*
X81340000Y-158352914D01*
X81340000Y-158352914D02*
X81578095Y-158257676D01*
X81197143Y-158543390D02*
X81340000Y-158352914D01*
X81340000Y-158352914D02*
X81482857Y-158543390D01*
X82101905Y-158114819D02*
X82101905Y-158352914D01*
X81863810Y-158257676D02*
X82101905Y-158352914D01*
X82101905Y-158352914D02*
X82340000Y-158257676D01*
X81959048Y-158543390D02*
X82101905Y-158352914D01*
X82101905Y-158352914D02*
X82244762Y-158543390D01*
X79036666Y-190914819D02*
X78703333Y-190438628D01*
X78465238Y-190914819D02*
X78465238Y-189914819D01*
X78465238Y-189914819D02*
X78846190Y-189914819D01*
X78846190Y-189914819D02*
X78941428Y-189962438D01*
X78941428Y-189962438D02*
X78989047Y-190010057D01*
X78989047Y-190010057D02*
X79036666Y-190105295D01*
X79036666Y-190105295D02*
X79036666Y-190248152D01*
X79036666Y-190248152D02*
X78989047Y-190343390D01*
X78989047Y-190343390D02*
X78941428Y-190391009D01*
X78941428Y-190391009D02*
X78846190Y-190438628D01*
X78846190Y-190438628D02*
X78465238Y-190438628D01*
X79465238Y-190391009D02*
X79798571Y-190391009D01*
X79941428Y-190914819D02*
X79465238Y-190914819D01*
X79465238Y-190914819D02*
X79465238Y-189914819D01*
X79465238Y-189914819D02*
X79941428Y-189914819D01*
X80703333Y-190391009D02*
X80370000Y-190391009D01*
X80370000Y-190914819D02*
X80370000Y-189914819D01*
X80370000Y-189914819D02*
X80846190Y-189914819D01*
X81370000Y-189914819D02*
X81370000Y-190152914D01*
X81131905Y-190057676D02*
X81370000Y-190152914D01*
X81370000Y-190152914D02*
X81608095Y-190057676D01*
X81227143Y-190343390D02*
X81370000Y-190152914D01*
X81370000Y-190152914D02*
X81512857Y-190343390D01*
X82131905Y-189914819D02*
X82131905Y-190152914D01*
X81893810Y-190057676D02*
X82131905Y-190152914D01*
X82131905Y-190152914D02*
X82370000Y-190057676D01*
X81989048Y-190343390D02*
X82131905Y-190152914D01*
X82131905Y-190152914D02*
X82274762Y-190343390D01*
X384256666Y-184724819D02*
X383923333Y-184248628D01*
X383685238Y-184724819D02*
X383685238Y-183724819D01*
X383685238Y-183724819D02*
X384066190Y-183724819D01*
X384066190Y-183724819D02*
X384161428Y-183772438D01*
X384161428Y-183772438D02*
X384209047Y-183820057D01*
X384209047Y-183820057D02*
X384256666Y-183915295D01*
X384256666Y-183915295D02*
X384256666Y-184058152D01*
X384256666Y-184058152D02*
X384209047Y-184153390D01*
X384209047Y-184153390D02*
X384161428Y-184201009D01*
X384161428Y-184201009D02*
X384066190Y-184248628D01*
X384066190Y-184248628D02*
X383685238Y-184248628D01*
X384685238Y-184201009D02*
X385018571Y-184201009D01*
X385161428Y-184724819D02*
X384685238Y-184724819D01*
X384685238Y-184724819D02*
X384685238Y-183724819D01*
X384685238Y-183724819D02*
X385161428Y-183724819D01*
X385923333Y-184201009D02*
X385590000Y-184201009D01*
X385590000Y-184724819D02*
X385590000Y-183724819D01*
X385590000Y-183724819D02*
X386066190Y-183724819D01*
X386590000Y-183724819D02*
X386590000Y-183962914D01*
X386351905Y-183867676D02*
X386590000Y-183962914D01*
X386590000Y-183962914D02*
X386828095Y-183867676D01*
X386447143Y-184153390D02*
X386590000Y-183962914D01*
X386590000Y-183962914D02*
X386732857Y-184153390D01*
X387351905Y-183724819D02*
X387351905Y-183962914D01*
X387113810Y-183867676D02*
X387351905Y-183962914D01*
X387351905Y-183962914D02*
X387590000Y-183867676D01*
X387209048Y-184153390D02*
X387351905Y-183962914D01*
X387351905Y-183962914D02*
X387494762Y-184153390D01*
%LPC*%
D11*
X80350000Y-129930000D03*
X529910000Y-146330000D03*
X529900000Y-178170000D03*
X529900000Y-114560000D03*
X80340000Y-161860000D03*
X80370000Y-193660000D03*
X385590000Y-187470000D03*
%LPD*%
M02*
