G04 #@! TF.GenerationSoftware,KiCad,Pcbnew,8.0.3*
G04 #@! TF.CreationDate,2024-09-11T17:16:18-04:00*
G04 #@! TF.ProjectId,cover_plate,636f7665-725f-4706-9c61-74652e6b6963,rev?*
G04 #@! TF.SameCoordinates,Original*
G04 #@! TF.FileFunction,Other,ECO1*
%FSLAX46Y46*%
G04 Gerber Fmt 4.6, Leading zero omitted, Abs format (unit mm)*
G04 Created by KiCad (PCBNEW 8.0.3) date 2024-09-11 17:16:18*
%MOMM*%
%LPD*%
G01*
G04 APERTURE LIST*
%ADD10C,0.800000*%
G04 APERTURE END LIST*
D10*
G36*
X369670600Y-200685554D02*
G01*
X369615225Y-200896385D01*
X369533597Y-201097665D01*
X369430265Y-201266852D01*
X369147920Y-201413642D01*
X368766790Y-201503509D01*
X368543175Y-201541381D01*
X368122588Y-201594382D01*
X367729731Y-201628335D01*
X367313687Y-201650695D01*
X366874454Y-201661461D01*
X366679113Y-201662526D01*
X366251017Y-201654420D01*
X365841116Y-201630102D01*
X365449412Y-201589573D01*
X364985369Y-201516114D01*
X364549758Y-201417325D01*
X364142579Y-201293205D01*
X363763831Y-201143754D01*
X363422148Y-200971052D01*
X363138378Y-200783896D01*
X362912520Y-200582286D01*
X362744575Y-200366222D01*
X362634541Y-200135704D01*
X362588212Y-199940882D01*
X362577787Y-199788695D01*
X362596899Y-199582569D01*
X362654235Y-199385266D01*
X362779658Y-199151046D01*
X362964805Y-198930612D01*
X363209678Y-198723965D01*
X363448578Y-198568573D01*
X363725702Y-198422004D01*
X363800956Y-198386741D01*
X364103145Y-198260574D01*
X364502348Y-198126522D01*
X364925404Y-198018754D01*
X365372311Y-197937272D01*
X365843070Y-197882074D01*
X366236851Y-197856840D01*
X366645896Y-197848429D01*
X367073146Y-197853169D01*
X367474154Y-197867389D01*
X367908832Y-197895959D01*
X368307793Y-197937433D01*
X368621332Y-197983251D01*
X369015098Y-198060760D01*
X369346715Y-198179170D01*
X369395094Y-198235310D01*
X369432005Y-198434612D01*
X369448508Y-198633136D01*
X369455134Y-198844894D01*
X369455666Y-198932868D01*
X369140264Y-199055816D01*
X369119588Y-199056943D01*
X368789371Y-198969993D01*
X368656442Y-198782373D01*
X368482541Y-198601496D01*
X368258876Y-198440779D01*
X368035150Y-198335938D01*
X367654608Y-198236374D01*
X367258763Y-198185652D01*
X366843061Y-198163793D01*
X366612679Y-198161060D01*
X366181171Y-198174730D01*
X365780574Y-198215740D01*
X365410890Y-198284090D01*
X365018661Y-198398386D01*
X364715952Y-198525972D01*
X364668506Y-198549895D01*
X364390275Y-198720724D01*
X364169610Y-198913740D01*
X364006509Y-199128945D01*
X363914565Y-199325231D01*
X363862596Y-199536926D01*
X363849804Y-199717376D01*
X363870841Y-199940634D01*
X363933953Y-200150010D01*
X364039140Y-200345504D01*
X364186401Y-200527117D01*
X364418653Y-200726728D01*
X364711493Y-200906350D01*
X365042984Y-201057086D01*
X365407310Y-201176635D01*
X365804472Y-201264998D01*
X366234469Y-201322173D01*
X366697302Y-201348162D01*
X366858876Y-201349895D01*
X367260900Y-201339209D01*
X367658290Y-201301643D01*
X368031677Y-201228179D01*
X368191465Y-201178925D01*
X368489979Y-201040477D01*
X368726895Y-200871339D01*
X368912058Y-200683875D01*
X368949595Y-200637683D01*
X369291916Y-200529628D01*
X369418541Y-200538032D01*
X369670600Y-200685554D01*
G37*
G36*
X376456643Y-201472993D02*
G01*
X376144012Y-201600000D01*
X375737710Y-201596393D01*
X375312361Y-201593829D01*
X374901900Y-201593268D01*
X374509901Y-201596393D01*
X374358108Y-201600000D01*
X374094326Y-201601953D01*
X373945826Y-201481786D01*
X374260098Y-201357795D01*
X374303398Y-201350872D01*
X374526147Y-201273691D01*
X374549595Y-201120307D01*
X374549595Y-200422749D01*
X374513531Y-200227855D01*
X374353246Y-200030720D01*
X374019655Y-199894630D01*
X373586887Y-199849827D01*
X373523775Y-199849267D01*
X373125628Y-199869089D01*
X372748426Y-199928554D01*
X372644501Y-199952826D01*
X372322289Y-200068311D01*
X372279113Y-200124773D01*
X372279113Y-201101744D01*
X372453924Y-201280286D01*
X372823508Y-201345376D01*
X372898513Y-201349895D01*
X373212791Y-201466366D01*
X373213098Y-201472993D01*
X373156434Y-201575575D01*
X372890697Y-201600000D01*
X372452892Y-201593771D01*
X372010935Y-201591695D01*
X371564825Y-201593771D01*
X371171073Y-201598994D01*
X371114563Y-201600000D01*
X370852735Y-201599023D01*
X370692512Y-201482763D01*
X371008501Y-201356882D01*
X371052037Y-201350872D01*
X371281015Y-201189122D01*
X371296280Y-201086113D01*
X371296280Y-198633914D01*
X371270314Y-198437692D01*
X371214214Y-198335938D01*
X370927147Y-198196793D01*
X370747222Y-198159106D01*
X370555736Y-198038939D01*
X370815610Y-197913886D01*
X371180122Y-197815419D01*
X371522121Y-197713703D01*
X371579602Y-197696022D01*
X371938513Y-197606053D01*
X372025101Y-197598325D01*
X372231898Y-197764277D01*
X372228311Y-197775157D01*
X372238048Y-197977475D01*
X372241988Y-198060432D01*
X372250888Y-198256055D01*
X372256383Y-198465249D01*
X372257620Y-198619260D01*
X372257620Y-199598185D01*
X372283021Y-199755478D01*
X372613092Y-199621755D01*
X372699211Y-199599162D01*
X373092429Y-199508487D01*
X373497795Y-199442541D01*
X373905351Y-199412316D01*
X373975136Y-199411584D01*
X374415002Y-199431071D01*
X374845113Y-199505900D01*
X375168613Y-199636853D01*
X375385501Y-199823928D01*
X375484801Y-200022694D01*
X375510935Y-200209769D01*
X375522658Y-201087090D01*
X375682882Y-201270027D01*
X376076326Y-201345548D01*
X376151828Y-201349895D01*
X376456643Y-201472993D01*
G37*
G36*
X378949874Y-198463921D02*
G01*
X378842876Y-198657465D01*
X378742756Y-198727704D01*
X378407533Y-198841277D01*
X378283579Y-198848848D01*
X377901711Y-198795181D01*
X377816587Y-198760921D01*
X377639374Y-198583211D01*
X377632916Y-198532309D01*
X377754916Y-198337770D01*
X377849804Y-198278297D01*
X378184577Y-198170334D01*
X378326566Y-198161060D01*
X378730134Y-198211044D01*
X378940135Y-198392938D01*
X378949874Y-198463921D01*
G37*
G36*
X379557550Y-201500348D02*
G01*
X379375833Y-201605861D01*
X379100327Y-201600000D01*
X378696228Y-201603907D01*
X378294815Y-201615631D01*
X377896088Y-201635170D01*
X377500048Y-201662526D01*
X377183510Y-201647871D01*
X377105352Y-201541381D01*
X377422587Y-201416185D01*
X377443384Y-201413398D01*
X377693498Y-201257291D01*
X377714982Y-201141800D01*
X377714982Y-200427634D01*
X377686051Y-200226112D01*
X377632916Y-200139427D01*
X377331399Y-200004788D01*
X377169832Y-199972365D01*
X376956852Y-199861967D01*
X377249944Y-199725191D01*
X377624101Y-199649831D01*
X377982651Y-199547922D01*
X378049106Y-199524912D01*
X378380666Y-199418667D01*
X378437941Y-199411584D01*
X378712353Y-199552802D01*
X378713447Y-199583531D01*
X378707255Y-199803406D01*
X378702112Y-200024618D01*
X378698019Y-200247165D01*
X378694976Y-200471048D01*
X378692982Y-200696267D01*
X378692037Y-200922821D01*
X378691953Y-201013817D01*
X378748005Y-201211238D01*
X378783789Y-201245359D01*
X379131633Y-201344300D01*
X379186301Y-201350872D01*
X379541445Y-201439574D01*
X379557550Y-201500348D01*
G37*
G36*
X382826496Y-201473970D02*
G01*
X382527598Y-201600941D01*
X382508004Y-201600000D01*
X382109399Y-201576552D01*
X381665854Y-201568736D01*
X381240887Y-201574720D01*
X380849244Y-201589375D01*
X380643942Y-201600000D01*
X380319588Y-201586322D01*
X380245338Y-201457362D01*
X380525899Y-201315632D01*
X380544291Y-201312770D01*
X380821396Y-201168929D01*
X380845198Y-201069504D01*
X380845198Y-198612421D01*
X380807486Y-198412111D01*
X380726008Y-198307606D01*
X380411667Y-198180699D01*
X380303956Y-198159106D01*
X380090976Y-198053593D01*
X380382114Y-197912909D01*
X380753363Y-197829867D01*
X381091029Y-197728353D01*
X381140244Y-197711653D01*
X381479436Y-197614262D01*
X381593558Y-197598325D01*
X381796769Y-197770272D01*
X381828184Y-197978641D01*
X381837801Y-198045778D01*
X381828825Y-198248377D01*
X381825345Y-198448778D01*
X381826078Y-198581158D01*
X381849525Y-201037264D01*
X381946268Y-201230700D01*
X381996071Y-201259036D01*
X382370020Y-201337533D01*
X382525589Y-201349895D01*
X382826496Y-201473970D01*
G37*
G36*
X386015331Y-201473970D02*
G01*
X385716433Y-201600941D01*
X385696838Y-201600000D01*
X385298234Y-201576552D01*
X384854689Y-201568736D01*
X384429722Y-201574720D01*
X384038078Y-201589375D01*
X383832777Y-201600000D01*
X383508422Y-201586322D01*
X383434173Y-201457362D01*
X383714733Y-201315632D01*
X383733126Y-201312770D01*
X384010231Y-201168929D01*
X384034033Y-201069504D01*
X384034033Y-198612421D01*
X383996320Y-198412111D01*
X383914842Y-198307606D01*
X383600502Y-198180699D01*
X383492791Y-198159106D01*
X383279811Y-198053593D01*
X383570949Y-197912909D01*
X383942198Y-197829867D01*
X384279863Y-197728353D01*
X384329078Y-197711653D01*
X384668271Y-197614262D01*
X384782393Y-197598325D01*
X384985603Y-197770272D01*
X385017019Y-197978641D01*
X385026636Y-198045778D01*
X385017660Y-198248377D01*
X385014180Y-198448778D01*
X385014912Y-198581158D01*
X385038360Y-201037264D01*
X385135103Y-201230700D01*
X385184905Y-201259036D01*
X385558854Y-201337533D01*
X385714424Y-201349895D01*
X386015331Y-201473970D01*
G37*
G36*
X393466753Y-197855848D02*
G01*
X393911458Y-197878105D01*
X394332838Y-197915199D01*
X394730893Y-197967131D01*
X395105622Y-198033901D01*
X395541233Y-198138229D01*
X395940399Y-198265741D01*
X396089860Y-198323237D01*
X396439986Y-198486594D01*
X396730768Y-198667696D01*
X396962208Y-198866544D01*
X397134303Y-199083138D01*
X397247056Y-199317478D01*
X397294531Y-199517726D01*
X397305212Y-199675366D01*
X397285093Y-199916769D01*
X397224734Y-200143213D01*
X397124137Y-200354697D01*
X396983300Y-200551221D01*
X396802225Y-200732785D01*
X396580910Y-200899389D01*
X396319357Y-201051033D01*
X396017564Y-201187718D01*
X395620040Y-201324503D01*
X395269460Y-201417239D01*
X394889937Y-201495137D01*
X394481471Y-201558198D01*
X394044063Y-201606420D01*
X393577712Y-201639805D01*
X393082418Y-201658353D01*
X392691953Y-201662526D01*
X392294754Y-201650314D01*
X391890837Y-201631263D01*
X391498058Y-201613463D01*
X391097668Y-201601495D01*
X390939267Y-201600000D01*
X390526000Y-201600000D01*
X390109435Y-201600000D01*
X389940802Y-201600000D01*
X389639895Y-201468108D01*
X389932986Y-201349895D01*
X390293489Y-201270516D01*
X390413656Y-201083182D01*
X390413656Y-198411165D01*
X390352999Y-198301744D01*
X391505910Y-198301744D01*
X391505910Y-200919050D01*
X391563870Y-201123771D01*
X391769692Y-201263921D01*
X392144185Y-201325631D01*
X392533142Y-201345781D01*
X392871716Y-201349895D01*
X393436358Y-201335967D01*
X393945461Y-201294185D01*
X394399026Y-201224547D01*
X394797052Y-201127054D01*
X395139540Y-201001706D01*
X395426489Y-200848502D01*
X395657899Y-200667444D01*
X395833771Y-200458531D01*
X395954105Y-200221762D01*
X396018900Y-199957138D01*
X396031242Y-199765247D01*
X396002992Y-199478561D01*
X395918241Y-199220074D01*
X395776991Y-198989786D01*
X395579240Y-198787696D01*
X395324989Y-198613804D01*
X395014237Y-198468112D01*
X394646986Y-198350617D01*
X394223234Y-198261322D01*
X393742982Y-198200225D01*
X393206230Y-198167327D01*
X392817006Y-198161060D01*
X392412059Y-198161060D01*
X392049106Y-198161060D01*
X391659215Y-198204623D01*
X391505910Y-198301744D01*
X390352999Y-198301744D01*
X390314005Y-198231402D01*
X389929218Y-198162282D01*
X389909539Y-198160083D01*
X389542198Y-198116120D01*
X389446454Y-198026238D01*
X389612540Y-197920725D01*
X389860690Y-197910956D01*
X390331789Y-197889706D01*
X390765721Y-197875357D01*
X391237243Y-197864061D01*
X391641526Y-197857222D01*
X392069867Y-197852337D01*
X392522266Y-197849406D01*
X392998722Y-197848429D01*
X393466753Y-197855848D01*
G37*
G36*
X403550013Y-201301046D02*
G01*
X403262332Y-201451141D01*
X402993140Y-201512072D01*
X402628172Y-201583170D01*
X402541779Y-201600000D01*
X402212299Y-201482641D01*
X402197885Y-201474947D01*
X401898932Y-201349895D01*
X401523172Y-201432449D01*
X401345966Y-201474947D01*
X400974747Y-201551151D01*
X400581249Y-201595603D01*
X400425659Y-201600000D01*
X400033283Y-201590413D01*
X399631770Y-201551468D01*
X399280427Y-201465189D01*
X399235708Y-201446615D01*
X399008287Y-201286514D01*
X398898950Y-201097684D01*
X398862869Y-200884666D01*
X398862505Y-200858478D01*
X398862505Y-200345568D01*
X398832196Y-200144735D01*
X398776531Y-200059316D01*
X398448664Y-199935954D01*
X398301723Y-199910816D01*
X398131730Y-199802372D01*
X398381835Y-199664619D01*
X398733659Y-199565376D01*
X399084735Y-199464264D01*
X399184905Y-199435031D01*
X399542843Y-199354431D01*
X399624542Y-199349057D01*
X399878555Y-199505373D01*
X399866036Y-199705683D01*
X399860969Y-199786741D01*
X399851444Y-199993782D01*
X399846315Y-200192855D01*
X399845338Y-200321144D01*
X399845338Y-200641591D01*
X399879410Y-200847029D01*
X400030840Y-201032898D01*
X400087627Y-201063642D01*
X400455617Y-201143429D01*
X400872877Y-201162220D01*
X400910237Y-201162316D01*
X401306032Y-201139052D01*
X401665605Y-201031092D01*
X401811378Y-200835164D01*
X401814912Y-200790090D01*
X401814912Y-200391486D01*
X401782855Y-200192886D01*
X401732847Y-200131612D01*
X401366231Y-200049540D01*
X401248269Y-200035868D01*
X401084138Y-199914724D01*
X401267808Y-199789672D01*
X401662657Y-199682430D01*
X402032327Y-199585358D01*
X402390448Y-199499071D01*
X402541779Y-199474110D01*
X402756713Y-199618702D01*
X402767946Y-199825216D01*
X402770390Y-199870760D01*
X402780511Y-200075037D01*
X402785472Y-200273509D01*
X402786022Y-200363154D01*
X402786022Y-200995254D01*
X403052506Y-201141597D01*
X403301863Y-201162316D01*
X403550013Y-201301046D01*
G37*
G36*
X409490000Y-201301046D02*
G01*
X409202318Y-201451141D01*
X408933126Y-201512072D01*
X408568158Y-201583170D01*
X408481765Y-201600000D01*
X408152285Y-201482641D01*
X408137871Y-201474947D01*
X407838918Y-201349895D01*
X407463158Y-201432449D01*
X407285952Y-201474947D01*
X406914733Y-201551151D01*
X406521235Y-201595603D01*
X406365645Y-201600000D01*
X405973269Y-201590413D01*
X405571757Y-201551468D01*
X405220413Y-201465189D01*
X405175694Y-201446615D01*
X404948273Y-201286514D01*
X404838936Y-201097684D01*
X404802855Y-200884666D01*
X404802491Y-200858478D01*
X404802491Y-200345568D01*
X404772182Y-200144735D01*
X404716517Y-200059316D01*
X404388650Y-199935954D01*
X404241709Y-199910816D01*
X404071716Y-199802372D01*
X404321821Y-199664619D01*
X404673645Y-199565376D01*
X405024721Y-199464264D01*
X405124891Y-199435031D01*
X405482829Y-199354431D01*
X405564528Y-199349057D01*
X405818541Y-199505373D01*
X405806022Y-199705683D01*
X405800956Y-199786741D01*
X405791430Y-199993782D01*
X405786301Y-200192855D01*
X405785324Y-200321144D01*
X405785324Y-200641591D01*
X405819396Y-200847029D01*
X405970826Y-201032898D01*
X406027613Y-201063642D01*
X406395603Y-201143429D01*
X406812863Y-201162220D01*
X406850223Y-201162316D01*
X407246018Y-201139052D01*
X407605592Y-201031092D01*
X407751364Y-200835164D01*
X407754898Y-200790090D01*
X407754898Y-200391486D01*
X407722841Y-200192886D01*
X407672833Y-200131612D01*
X407306217Y-200049540D01*
X407188255Y-200035868D01*
X407024124Y-199914724D01*
X407207794Y-199789672D01*
X407602643Y-199682430D01*
X407972313Y-199585358D01*
X408330434Y-199499071D01*
X408481765Y-199474110D01*
X408696699Y-199618702D01*
X408707932Y-199825216D01*
X408710376Y-199870760D01*
X408720497Y-200075037D01*
X408725458Y-200273509D01*
X408726008Y-200363154D01*
X408726008Y-200995254D01*
X408992492Y-201141597D01*
X409241849Y-201162316D01*
X409490000Y-201301046D01*
G37*
G36*
X415429986Y-201301046D02*
G01*
X415142304Y-201451141D01*
X414873112Y-201512072D01*
X414508144Y-201583170D01*
X414421751Y-201600000D01*
X414092271Y-201482641D01*
X414077857Y-201474947D01*
X413778904Y-201349895D01*
X413403144Y-201432449D01*
X413225938Y-201474947D01*
X412854719Y-201551151D01*
X412461221Y-201595603D01*
X412305631Y-201600000D01*
X411913255Y-201590413D01*
X411511743Y-201551468D01*
X411160399Y-201465189D01*
X411115680Y-201446615D01*
X410888259Y-201286514D01*
X410778922Y-201097684D01*
X410742841Y-200884666D01*
X410742477Y-200858478D01*
X410742477Y-200345568D01*
X410712168Y-200144735D01*
X410656503Y-200059316D01*
X410328636Y-199935954D01*
X410181695Y-199910816D01*
X410011702Y-199802372D01*
X410261807Y-199664619D01*
X410613631Y-199565376D01*
X410964707Y-199464264D01*
X411064877Y-199435031D01*
X411422815Y-199354431D01*
X411504515Y-199349057D01*
X411758527Y-199505373D01*
X411746008Y-199705683D01*
X411740942Y-199786741D01*
X411731416Y-199993782D01*
X411726287Y-200192855D01*
X411725310Y-200321144D01*
X411725310Y-200641591D01*
X411759382Y-200847029D01*
X411910812Y-201032898D01*
X411967599Y-201063642D01*
X412335589Y-201143429D01*
X412752849Y-201162220D01*
X412790209Y-201162316D01*
X413186004Y-201139052D01*
X413545578Y-201031092D01*
X413691350Y-200835164D01*
X413694884Y-200790090D01*
X413694884Y-200391486D01*
X413662827Y-200192886D01*
X413612819Y-200131612D01*
X413246203Y-200049540D01*
X413128241Y-200035868D01*
X412964110Y-199914724D01*
X413147780Y-199789672D01*
X413542629Y-199682430D01*
X413912299Y-199585358D01*
X414270420Y-199499071D01*
X414421751Y-199474110D01*
X414636685Y-199618702D01*
X414647918Y-199825216D01*
X414650362Y-199870760D01*
X414660483Y-200075037D01*
X414665444Y-200273509D01*
X414665994Y-200363154D01*
X414665994Y-200995254D01*
X414932478Y-201141597D01*
X415181835Y-201162316D01*
X415429986Y-201301046D01*
G37*
G36*
X420564947Y-197773203D02*
G01*
X420574684Y-197971348D01*
X420578625Y-198052616D01*
X420588150Y-198262314D01*
X420593279Y-198467890D01*
X420594256Y-198602651D01*
X420594256Y-201158408D01*
X420813098Y-201287369D01*
X421072972Y-201258060D01*
X421411004Y-201330355D01*
X421436406Y-201381158D01*
X421126517Y-201522234D01*
X420836545Y-201589253D01*
X420445530Y-201666568D01*
X420067066Y-201724521D01*
X420049106Y-201725052D01*
X419806115Y-201557501D01*
X419773600Y-201506210D01*
X419665235Y-201312465D01*
X419642686Y-201256106D01*
X419290526Y-201379173D01*
X419158108Y-201412421D01*
X418767415Y-201503096D01*
X418378058Y-201573621D01*
X418063900Y-201600000D01*
X417657614Y-201579829D01*
X417282858Y-201519319D01*
X416939632Y-201418469D01*
X416762575Y-201345010D01*
X416472780Y-201177581D01*
X416265785Y-200980111D01*
X416152584Y-200782681D01*
X416102775Y-200562250D01*
X416100188Y-200495045D01*
X416128577Y-200346545D01*
X417149455Y-200346545D01*
X417192198Y-200548179D01*
X417337950Y-200747717D01*
X417560211Y-200908879D01*
X417587138Y-200923935D01*
X417906936Y-201059654D01*
X418295832Y-201143460D01*
X418614912Y-201162316D01*
X419001558Y-201125291D01*
X419234312Y-201076343D01*
X419567704Y-200967349D01*
X419589930Y-200940544D01*
X419589930Y-200096441D01*
X419365715Y-199923883D01*
X419191325Y-199861967D01*
X418820601Y-199772778D01*
X418426013Y-199729057D01*
X418235847Y-199724214D01*
X417812536Y-199753994D01*
X417456064Y-199860957D01*
X417235391Y-200045711D01*
X417153699Y-200271185D01*
X417149455Y-200346545D01*
X416128577Y-200346545D01*
X416137494Y-200299899D01*
X416271492Y-200091987D01*
X416468682Y-199923288D01*
X416740484Y-199766930D01*
X416879811Y-199703698D01*
X417225903Y-199575898D01*
X417576392Y-199484612D01*
X417975946Y-199425562D01*
X418290558Y-199411584D01*
X418692643Y-199420514D01*
X419108531Y-199444389D01*
X419482463Y-199475087D01*
X419623147Y-199439916D01*
X419623147Y-198469783D01*
X419521420Y-198276801D01*
X419490279Y-198260711D01*
X419129532Y-198173944D01*
X419044780Y-198159106D01*
X418825938Y-198033077D01*
X419107306Y-197911933D01*
X419478500Y-197829668D01*
X419839674Y-197728796D01*
X419867390Y-197720446D01*
X420215184Y-197621699D01*
X420361737Y-197598325D01*
X420564947Y-197773203D01*
G37*
G36*
X424601885Y-199432466D02*
G01*
X424991971Y-199495115D01*
X425240732Y-199560083D01*
X425569903Y-199684384D01*
X425805964Y-199846134D01*
X425824961Y-199867829D01*
X425926566Y-199911793D01*
X426121960Y-200047592D01*
X425893746Y-200208487D01*
X425537732Y-200285973D01*
X423060132Y-200653314D01*
X423174369Y-200868794D01*
X423379707Y-201063840D01*
X423709404Y-201212446D01*
X424081037Y-201277462D01*
X424328241Y-201287369D01*
X424731318Y-201266570D01*
X425123454Y-201212285D01*
X425495374Y-201135745D01*
X425738988Y-201074389D01*
X426004724Y-201037264D01*
X426155177Y-201138869D01*
X425918216Y-201299170D01*
X425564415Y-201404884D01*
X425483021Y-201425122D01*
X425111284Y-201501631D01*
X424734661Y-201556280D01*
X424305122Y-201591631D01*
X423966762Y-201600000D01*
X423556556Y-201583269D01*
X423135071Y-201524450D01*
X422755935Y-201423282D01*
X422526706Y-201332309D01*
X422254009Y-201177520D01*
X422059225Y-200999406D01*
X421942355Y-200797967D01*
X421904007Y-200602574D01*
X421903398Y-200573203D01*
X421936684Y-200349452D01*
X421948648Y-200325052D01*
X422995652Y-200325052D01*
X422995652Y-200340683D01*
X424412260Y-200131612D01*
X424726538Y-200011088D01*
X424726845Y-200005582D01*
X424542299Y-199826514D01*
X424502142Y-199810188D01*
X424142296Y-199732610D01*
X423943314Y-199724214D01*
X423528712Y-199761767D01*
X423203879Y-199893787D01*
X423040999Y-200090936D01*
X422996577Y-200288086D01*
X422995652Y-200325052D01*
X421948648Y-200325052D01*
X422036541Y-200145804D01*
X422202969Y-199962259D01*
X422435969Y-199798815D01*
X422599002Y-199714445D01*
X422941796Y-199581943D01*
X423321472Y-199487299D01*
X423738028Y-199430512D01*
X424132768Y-199411879D01*
X424191465Y-199411584D01*
X424601885Y-199432466D01*
G37*
M02*
