G04 #@! TF.GenerationSoftware,KiCad,Pcbnew,8.0.3*
G04 #@! TF.CreationDate,2024-09-11T17:02:16-04:00*
G04 #@! TF.ProjectId,prototypeTOBETESTED,70726f74-6f74-4797-9065-544f42455445,rev?*
G04 #@! TF.SameCoordinates,Original*
G04 #@! TF.FileFunction,Soldermask,Bot*
G04 #@! TF.FilePolarity,Negative*
%FSLAX46Y46*%
G04 Gerber Fmt 4.6, Leading zero omitted, Abs format (unit mm)*
G04 Created by KiCad (PCBNEW 8.0.3) date 2024-09-11 17:02:16*
%MOMM*%
%LPD*%
G01*
G04 APERTURE LIST*
%ADD10R,1.500000X1.500000*%
%ADD11O,1.500000X1.500000*%
%ADD12C,1.700000*%
%ADD13C,4.000000*%
%ADD14C,2.200000*%
%ADD15C,3.050000*%
%ADD16O,1.800000X1.800000*%
%ADD17O,1.700000X1.700000*%
%ADD18R,1.700000X1.700000*%
%ADD19O,2.000000X3.200000*%
%ADD20R,2.000000X2.000000*%
%ADD21C,2.000000*%
%ADD22R,1.600000X1.600000*%
%ADD23O,1.600000X1.600000*%
%ADD24R,1.750000X1.750000*%
%ADD25C,1.750000*%
%ADD26C,2.700000*%
%ADD27C,1.600000*%
%ADD28C,2.540000*%
%ADD29C,1.524000*%
G04 APERTURE END LIST*
D10*
X302711300Y-127493300D03*
D11*
X302711300Y-119873300D03*
D12*
X288097800Y-217784200D03*
D13*
X293177800Y-217784200D03*
D12*
X298257800Y-217784200D03*
D14*
X295717800Y-212704200D03*
X289367800Y-215244200D03*
X128440300Y-150934200D03*
D15*
X324252800Y-134384200D03*
D13*
X324252800Y-149624200D03*
D12*
X331072800Y-141384200D03*
D13*
X336152800Y-141384200D03*
D12*
X341232800Y-141384200D03*
D15*
X348052800Y-134384200D03*
D13*
X348052800Y-149624200D03*
D14*
X338692800Y-136304200D03*
X332342800Y-138844200D03*
D12*
X140078200Y-160477200D03*
D13*
X145158200Y-160477200D03*
D12*
X150238200Y-160477200D03*
D14*
X147698200Y-155397200D03*
X141348200Y-157937200D03*
D16*
X33858400Y-120642600D03*
D11*
X36888400Y-120342600D03*
X36888400Y-115492600D03*
D16*
X33858400Y-115192600D03*
D17*
X33728400Y-126807600D03*
X36268400Y-126807600D03*
D18*
X38808400Y-126807600D03*
D17*
X41348400Y-126807600D03*
X43888400Y-126807600D03*
X46428400Y-126807600D03*
X48968400Y-126807600D03*
D18*
X51508400Y-126807600D03*
D17*
X54048400Y-126807600D03*
X56588400Y-126807600D03*
X59128400Y-126807600D03*
X61668400Y-126807600D03*
D18*
X64208400Y-126807600D03*
D17*
X66748400Y-126807600D03*
X69288400Y-126807600D03*
X71828400Y-126807600D03*
X74368400Y-126807600D03*
D18*
X76908400Y-126807600D03*
D17*
X79448400Y-126807600D03*
X81988400Y-126807600D03*
X81988400Y-109027600D03*
X79448400Y-109027600D03*
D18*
X76908400Y-109027600D03*
D17*
X74368400Y-109027600D03*
X71828400Y-109027600D03*
X69288400Y-109027600D03*
X66748400Y-109027600D03*
D18*
X64208400Y-109027600D03*
D17*
X61668400Y-109027600D03*
X59128400Y-109027600D03*
X56588400Y-109027600D03*
X54048400Y-109027600D03*
D18*
X51508400Y-109027600D03*
D17*
X48968400Y-109027600D03*
X46428400Y-109027600D03*
X43888400Y-109027600D03*
X41348400Y-109027600D03*
D18*
X38808400Y-109027600D03*
D17*
X36268400Y-109027600D03*
X33728400Y-109027600D03*
X81758400Y-120457600D03*
D18*
X81758400Y-117917600D03*
D17*
X81758400Y-115377600D03*
D10*
X173786300Y-122718300D03*
D11*
X173786300Y-115098300D03*
D12*
X178278200Y-160477200D03*
D13*
X183358200Y-160477200D03*
D12*
X188438200Y-160477200D03*
D14*
X185898200Y-155397200D03*
X179548200Y-157937200D03*
D10*
X145136300Y-127493300D03*
D11*
X145136300Y-119873300D03*
D10*
X259736300Y-122718300D03*
D11*
X259736300Y-115098300D03*
D12*
X125753200Y-179577200D03*
D13*
X130833200Y-179577200D03*
D12*
X135913200Y-179577200D03*
D14*
X133373200Y-174497200D03*
X127023200Y-177037200D03*
D12*
X235578200Y-160477200D03*
D13*
X240658200Y-160477200D03*
D12*
X245738200Y-160477200D03*
D14*
X243198200Y-155397200D03*
X236848200Y-157937200D03*
X30936760Y-182630000D03*
D12*
X92328200Y-141377200D03*
D13*
X97408200Y-141377200D03*
D12*
X102488200Y-141377200D03*
D14*
X99948200Y-136297200D03*
X93598200Y-138837200D03*
D12*
X77997800Y-160484200D03*
D13*
X83077800Y-160484200D03*
D12*
X88157800Y-160484200D03*
D14*
X85617800Y-155404200D03*
X79267800Y-157944200D03*
D10*
X135586300Y-120330800D03*
D11*
X135586300Y-112710800D03*
D10*
X231086300Y-127493300D03*
D11*
X231086300Y-119873300D03*
D10*
X214373800Y-125105800D03*
D11*
X214373800Y-117485800D03*
D12*
X249903200Y-198677200D03*
D13*
X254983200Y-198677200D03*
D12*
X260063200Y-198677200D03*
D14*
X257523200Y-193597200D03*
X251173200Y-196137200D03*
D18*
X385670400Y-116810000D03*
D17*
X385670400Y-119350000D03*
X385670400Y-121890000D03*
X385670400Y-124430000D03*
D12*
X383510400Y-217676800D03*
D13*
X388590400Y-217676800D03*
D12*
X393670400Y-217676800D03*
D14*
X391130400Y-212596800D03*
X384780400Y-215136800D03*
D12*
X288103200Y-198677200D03*
D13*
X293183200Y-198677200D03*
D12*
X298263200Y-198677200D03*
D14*
X295723200Y-193597200D03*
X289373200Y-196137200D03*
D10*
X183336300Y-122718300D03*
D11*
X183336300Y-115098300D03*
D12*
X290485300Y-217784200D03*
D13*
X295565300Y-217784200D03*
D12*
X300645300Y-217784200D03*
D14*
X298105300Y-212704200D03*
X291755300Y-215244200D03*
D12*
X311978200Y-160477200D03*
D13*
X317058200Y-160477200D03*
D12*
X322138200Y-160477200D03*
D14*
X319598200Y-155397200D03*
X313248200Y-157937200D03*
D10*
X180948800Y-120330800D03*
D11*
X180948800Y-112710800D03*
D10*
X271673800Y-122718300D03*
D11*
X271673800Y-115098300D03*
D12*
X123366550Y-217784200D03*
D13*
X128446550Y-217784200D03*
D12*
X133526550Y-217784200D03*
D14*
X130986550Y-212704200D03*
X124636550Y-215244200D03*
D12*
X264228200Y-141377200D03*
D13*
X269308200Y-141377200D03*
D12*
X274388200Y-141377200D03*
D14*
X271848200Y-136297200D03*
X265498200Y-138837200D03*
D10*
X295548800Y-122718300D03*
D11*
X295548800Y-115098300D03*
D10*
X250186300Y-125105800D03*
D11*
X250186300Y-117485800D03*
D12*
X75610300Y-179584200D03*
D13*
X80690300Y-179584200D03*
D12*
X85770300Y-179584200D03*
D14*
X83230300Y-174504200D03*
X76880300Y-177044200D03*
D12*
X135303200Y-198677200D03*
D13*
X140383200Y-198677200D03*
D12*
X145463200Y-198677200D03*
D14*
X142923200Y-193597200D03*
X136573200Y-196137200D03*
D10*
X266898800Y-117943300D03*
D11*
X266898800Y-110323300D03*
D12*
X402694200Y-217681800D03*
D13*
X407774200Y-217681800D03*
D12*
X412854200Y-217681800D03*
D14*
X410314200Y-212601800D03*
X403964200Y-215141800D03*
D12*
X130528200Y-141377200D03*
D13*
X135608200Y-141377200D03*
D12*
X140688200Y-141377200D03*
D14*
X138148200Y-136297200D03*
X131798200Y-138837200D03*
D12*
X457380400Y-180166800D03*
D13*
X462460400Y-180166800D03*
D12*
X467540400Y-180166800D03*
D14*
X465000400Y-175086800D03*
X458650400Y-177626800D03*
D12*
X144853200Y-179577200D03*
D13*
X149933200Y-179577200D03*
D12*
X155013200Y-179577200D03*
D14*
X152473200Y-174497200D03*
X146123200Y-177037200D03*
D12*
X283328200Y-141377200D03*
D13*
X288408200Y-141377200D03*
D12*
X293488200Y-141377200D03*
D14*
X290948200Y-136297200D03*
X284598200Y-138837200D03*
D10*
X276448800Y-127493300D03*
D11*
X276448800Y-119873300D03*
D12*
X120978200Y-160477200D03*
D13*
X126058200Y-160477200D03*
D12*
X131138200Y-160477200D03*
D14*
X128598200Y-155397200D03*
X122248200Y-157937200D03*
D13*
X335075300Y-158134200D03*
X335075300Y-181934200D03*
D12*
X343315300Y-164954200D03*
D13*
X343315300Y-170034200D03*
D12*
X343315300Y-175114200D03*
D15*
X350315300Y-158134200D03*
X350315300Y-181934200D03*
D14*
X348395300Y-172574200D03*
X345855300Y-166224200D03*
D12*
X77997800Y-217784200D03*
D13*
X83077800Y-217784200D03*
D12*
X88157800Y-217784200D03*
D14*
X85617800Y-212704200D03*
X79267800Y-215244200D03*
D10*
X245411300Y-120330800D03*
D11*
X245411300Y-112710800D03*
D14*
X480485000Y-135273750D03*
D10*
X171398800Y-125105800D03*
D11*
X171398800Y-117485800D03*
D12*
X187828200Y-141377200D03*
D13*
X192908200Y-141377200D03*
D12*
X197988200Y-141377200D03*
D14*
X195448200Y-136297200D03*
X189098200Y-138837200D03*
D12*
X75610300Y-198684200D03*
D13*
X80690300Y-198684200D03*
D12*
X85770300Y-198684200D03*
D14*
X83230300Y-193604200D03*
X76880300Y-196144200D03*
D10*
X264511300Y-117943300D03*
D11*
X264511300Y-110323300D03*
D10*
X154686300Y-117943300D03*
D11*
X154686300Y-110323300D03*
D10*
X300323800Y-127493300D03*
D11*
X300323800Y-119873300D03*
D10*
X147523800Y-125105800D03*
D11*
X147523800Y-117485800D03*
D12*
X230803200Y-198677200D03*
D13*
X235883200Y-198677200D03*
D12*
X240963200Y-198677200D03*
D14*
X238423200Y-193597200D03*
X232073200Y-196137200D03*
D10*
X192886300Y-125105800D03*
D11*
X192886300Y-117485800D03*
D10*
X197661300Y-120330800D03*
D11*
X197661300Y-112710800D03*
D12*
X159178200Y-160477200D03*
D13*
X164258200Y-160477200D03*
D12*
X169338200Y-160477200D03*
D14*
X166798200Y-155397200D03*
X160448200Y-157937200D03*
D10*
X257348800Y-125105800D03*
D11*
X257348800Y-117485800D03*
D12*
X457380400Y-161066800D03*
D13*
X462460400Y-161066800D03*
D12*
X467540400Y-161066800D03*
D14*
X465000400Y-155986800D03*
X458650400Y-158526800D03*
D15*
X78340300Y-191684200D03*
D13*
X78340300Y-206924200D03*
D12*
X85160300Y-198684200D03*
D13*
X90240300Y-198684200D03*
D12*
X95320300Y-198684200D03*
D15*
X102140300Y-191684200D03*
D13*
X102140300Y-206924200D03*
D14*
X92780300Y-193604200D03*
X86430300Y-196144200D03*
X259752800Y-217221200D03*
D12*
X254678200Y-160477200D03*
D13*
X259758200Y-160477200D03*
D12*
X264838200Y-160477200D03*
D14*
X262298200Y-155397200D03*
X255948200Y-157937200D03*
D10*
X283611300Y-122718300D03*
D11*
X283611300Y-115098300D03*
D10*
X188111300Y-127493300D03*
D11*
X188111300Y-119873300D03*
D10*
X185723800Y-125105800D03*
D11*
X185723800Y-117485800D03*
D10*
X297936300Y-125105800D03*
D11*
X297936300Y-117485800D03*
D12*
X457380400Y-141966800D03*
D13*
X462460400Y-141966800D03*
D12*
X467540400Y-141966800D03*
D14*
X465000400Y-136886800D03*
X458650400Y-139426800D03*
D19*
X431439000Y-119883800D03*
X420239000Y-119883800D03*
D20*
X428339000Y-112383800D03*
D21*
X423339000Y-112383800D03*
X425839000Y-112383800D03*
X423339000Y-126883800D03*
X428339000Y-126883800D03*
D10*
X169011300Y-127493300D03*
D11*
X169011300Y-119873300D03*
D10*
X290773800Y-117943300D03*
D11*
X290773800Y-110323300D03*
D12*
X99485300Y-217784200D03*
D13*
X104565300Y-217784200D03*
D12*
X109645300Y-217784200D03*
D14*
X107105300Y-212704200D03*
X100755300Y-215244200D03*
D19*
X406029000Y-119896700D03*
X394829000Y-119896700D03*
D20*
X402929000Y-112396700D03*
D21*
X397929000Y-112396700D03*
X400429000Y-112396700D03*
X397929000Y-126896700D03*
X402929000Y-126896700D03*
D14*
X264527800Y-124671700D03*
D10*
X200048800Y-117943300D03*
D11*
X200048800Y-110323300D03*
D10*
X281223800Y-125105800D03*
D11*
X281223800Y-117485800D03*
D10*
X226311300Y-122718300D03*
D11*
X226311300Y-115098300D03*
D12*
X192603200Y-198677200D03*
D13*
X197683200Y-198677200D03*
D12*
X202763200Y-198677200D03*
D14*
X200223200Y-193597200D03*
X193873200Y-196137200D03*
X30936760Y-150806250D03*
D10*
X207211300Y-125105800D03*
D11*
X207211300Y-117485800D03*
D10*
X278836300Y-127493300D03*
D11*
X278836300Y-119873300D03*
D10*
X209598800Y-127493300D03*
D11*
X209598800Y-119873300D03*
D10*
X254961300Y-127493300D03*
D11*
X254961300Y-119873300D03*
D12*
X457380400Y-199266800D03*
D13*
X462460400Y-199266800D03*
D12*
X467540400Y-199266800D03*
D14*
X465000400Y-194186800D03*
X458650400Y-196726800D03*
D22*
X109990300Y-116534200D03*
D23*
X112530300Y-116534200D03*
X115070300Y-116534200D03*
X117610300Y-116534200D03*
X120150300Y-116534200D03*
X122690300Y-116534200D03*
X125230300Y-116534200D03*
X127770300Y-116534200D03*
X127770300Y-108914200D03*
X125230300Y-108914200D03*
X122690300Y-108914200D03*
X120150300Y-108914200D03*
X117610300Y-108914200D03*
X115070300Y-108914200D03*
X112530300Y-108914200D03*
X109990300Y-108914200D03*
D10*
X164236300Y-125105800D03*
D11*
X164236300Y-117485800D03*
D10*
X269286300Y-120330800D03*
D11*
X269286300Y-112710800D03*
D10*
X262123800Y-120330800D03*
D11*
X262123800Y-112710800D03*
D10*
X240636300Y-120330800D03*
D11*
X240636300Y-112710800D03*
D10*
X293161300Y-120330800D03*
D11*
X293161300Y-112710800D03*
D12*
X168728200Y-141377200D03*
D13*
X173808200Y-141377200D03*
D12*
X178888200Y-141377200D03*
D14*
X176348200Y-136297200D03*
X169998200Y-138837200D03*
D12*
X97103200Y-198677200D03*
D13*
X102183200Y-198677200D03*
D12*
X107263200Y-198677200D03*
D14*
X104723200Y-193597200D03*
X98373200Y-196137200D03*
D12*
X335847800Y-160484200D03*
D13*
X340927800Y-160484200D03*
D12*
X346007800Y-160484200D03*
D14*
X343467800Y-155404200D03*
X337117800Y-157944200D03*
D10*
X204823800Y-122718300D03*
D11*
X204823800Y-115098300D03*
D10*
X285998800Y-120330800D03*
D11*
X285998800Y-112710800D03*
D14*
X30936760Y-214453750D03*
D12*
X173503200Y-198677200D03*
D13*
X178583200Y-198677200D03*
D12*
X183663200Y-198677200D03*
D14*
X181123200Y-193597200D03*
X174773200Y-196137200D03*
X277687800Y-111779200D03*
D10*
X307486300Y-122718300D03*
D11*
X307486300Y-115098300D03*
D10*
X223923800Y-120330800D03*
D11*
X223923800Y-112710800D03*
D12*
X211703200Y-198677200D03*
D13*
X216783200Y-198677200D03*
D12*
X221863200Y-198677200D03*
D14*
X219323200Y-193597200D03*
X212973200Y-196137200D03*
D12*
X278553200Y-179577200D03*
D13*
X283633200Y-179577200D03*
D12*
X288713200Y-179577200D03*
D14*
X286173200Y-174497200D03*
X279823200Y-177037200D03*
D12*
X154403200Y-198677200D03*
D13*
X159483200Y-198677200D03*
D12*
X164563200Y-198677200D03*
D14*
X162023200Y-193597200D03*
X155673200Y-196137200D03*
D12*
X183053200Y-179577200D03*
D13*
X188133200Y-179577200D03*
D12*
X193213200Y-179577200D03*
D14*
X190673200Y-174497200D03*
X184323200Y-177037200D03*
X111727800Y-208239200D03*
D12*
X292878200Y-160477200D03*
D13*
X297958200Y-160477200D03*
D12*
X303038200Y-160477200D03*
D14*
X300498200Y-155397200D03*
X294148200Y-157937200D03*
D10*
X219148800Y-120330800D03*
D11*
X219148800Y-112710800D03*
D12*
X420764400Y-119876800D03*
D13*
X425844400Y-119876800D03*
D12*
X430924400Y-119876800D03*
D14*
X428384400Y-114796800D03*
X422034400Y-117336800D03*
D10*
X178561300Y-117943300D03*
D11*
X178561300Y-110323300D03*
D12*
X163953200Y-179577200D03*
D13*
X169033200Y-179577200D03*
D12*
X174113200Y-179577200D03*
D14*
X171573200Y-174497200D03*
X165223200Y-177037200D03*
D12*
X216478200Y-160477200D03*
D13*
X221558200Y-160477200D03*
D12*
X226638200Y-160477200D03*
D14*
X224098200Y-155397200D03*
X217748200Y-157937200D03*
D12*
X111428200Y-141377200D03*
D13*
X116508200Y-141377200D03*
D12*
X121588200Y-141377200D03*
D14*
X119048200Y-136297200D03*
X112698200Y-138837200D03*
D12*
X297653200Y-179577200D03*
D13*
X302733200Y-179577200D03*
D12*
X307813200Y-179577200D03*
D14*
X305273200Y-174497200D03*
X298923200Y-177037200D03*
D10*
X243023800Y-117943300D03*
D11*
X243023800Y-110323300D03*
D14*
X480485000Y-198921250D03*
D10*
X211986300Y-127493300D03*
D11*
X211986300Y-119873300D03*
D10*
X176173800Y-120330800D03*
D11*
X176173800Y-112710800D03*
D10*
X305098800Y-125105800D03*
D11*
X305098800Y-117485800D03*
D10*
X142748800Y-127493300D03*
D11*
X142748800Y-119873300D03*
D13*
X150065300Y-209519200D03*
D15*
X150065300Y-224759200D03*
D12*
X194985300Y-217759200D03*
D13*
X200065300Y-217759200D03*
D12*
X205145300Y-217759200D03*
D13*
X250065300Y-209519200D03*
D15*
X250065300Y-224759200D03*
D14*
X202605300Y-212679200D03*
X196255300Y-215219200D03*
D13*
X155002800Y-209519200D03*
D15*
X155002800Y-224759200D03*
D12*
X206922800Y-217759200D03*
D13*
X212002800Y-217759200D03*
D12*
X217082800Y-217759200D03*
D13*
X269002800Y-209519200D03*
D15*
X269002800Y-224759200D03*
D14*
X214542800Y-212679200D03*
X208192800Y-215219200D03*
D12*
X314360300Y-198684200D03*
D13*
X319440300Y-198684200D03*
D12*
X324520300Y-198684200D03*
D14*
X321980300Y-193604200D03*
X315630300Y-196144200D03*
X480485000Y-167097500D03*
D13*
X221590300Y-209489200D03*
D15*
X221590300Y-224729200D03*
D12*
X228410300Y-217729200D03*
D13*
X233490300Y-217729200D03*
D12*
X238570300Y-217729200D03*
D13*
X245390300Y-209489200D03*
D15*
X245390300Y-224729200D03*
D14*
X236030300Y-212649200D03*
X229680300Y-215189200D03*
D10*
X247798800Y-122718300D03*
D11*
X247798800Y-115098300D03*
D12*
X73228200Y-141377200D03*
D13*
X78308200Y-141377200D03*
D12*
X83388200Y-141377200D03*
D14*
X80848200Y-136297200D03*
X74498200Y-138837200D03*
D10*
X233473800Y-127493300D03*
D11*
X233473800Y-119873300D03*
D12*
X259453200Y-179577200D03*
D13*
X264533200Y-179577200D03*
D12*
X269613200Y-179577200D03*
D14*
X267073200Y-174497200D03*
X260723200Y-177037200D03*
D12*
X266610300Y-217784200D03*
D13*
X271690300Y-217784200D03*
D12*
X276770300Y-217784200D03*
D14*
X274230300Y-212704200D03*
X267880300Y-215244200D03*
D24*
X46370400Y-146576800D03*
D25*
X42870400Y-146576800D03*
X46370400Y-220076800D03*
D26*
X40420400Y-150726800D03*
X48820400Y-151926800D03*
X48820400Y-214726800D03*
X40420400Y-215926800D03*
D12*
X402694200Y-198581800D03*
D13*
X407774200Y-198581800D03*
D12*
X412854200Y-198581800D03*
D14*
X410314200Y-193501800D03*
X403964200Y-196041800D03*
D15*
X321865300Y-172584200D03*
D13*
X321865300Y-187824200D03*
D12*
X328685300Y-179584200D03*
D13*
X333765300Y-179584200D03*
D12*
X338845300Y-179584200D03*
D15*
X345665300Y-172584200D03*
D13*
X345665300Y-187824200D03*
D14*
X336305300Y-174504200D03*
X329955300Y-177044200D03*
D10*
X137973800Y-122718300D03*
D11*
X137973800Y-115098300D03*
D14*
X314665300Y-150934200D03*
D15*
X149965300Y-210251200D03*
D13*
X149965300Y-225491200D03*
D12*
X156785300Y-217251200D03*
D13*
X161865300Y-217251200D03*
D12*
X166945300Y-217251200D03*
D15*
X173765300Y-210251200D03*
D13*
X173765300Y-225491200D03*
D14*
X164405300Y-212171200D03*
X158055300Y-214711200D03*
D10*
X133198800Y-117943300D03*
D11*
X133198800Y-110323300D03*
D10*
X161848800Y-122718300D03*
D11*
X161848800Y-115098300D03*
D10*
X140361300Y-125105800D03*
D11*
X140361300Y-117485800D03*
D14*
X221552800Y-150934200D03*
D22*
X109990300Y-128246700D03*
D23*
X112530300Y-128246700D03*
X115070300Y-128246700D03*
X117610300Y-128246700D03*
X120150300Y-128246700D03*
X122690300Y-128246700D03*
X125230300Y-128246700D03*
X127770300Y-128246700D03*
X127770300Y-120626700D03*
X125230300Y-120626700D03*
X122690300Y-120626700D03*
X120150300Y-120626700D03*
X117610300Y-120626700D03*
X115070300Y-120626700D03*
X112530300Y-120626700D03*
X109990300Y-120626700D03*
D12*
X80385300Y-179584200D03*
D13*
X85465300Y-179584200D03*
D12*
X90545300Y-179584200D03*
D14*
X88005300Y-174504200D03*
X81655300Y-177044200D03*
D10*
X228698800Y-125105800D03*
D11*
X228698800Y-117485800D03*
D10*
X149911300Y-122718300D03*
D11*
X149911300Y-115098300D03*
D10*
X166623800Y-127493300D03*
D11*
X166623800Y-119873300D03*
D12*
X221253200Y-179577200D03*
D13*
X226333200Y-179577200D03*
D12*
X231413200Y-179577200D03*
D14*
X228873200Y-174497200D03*
X222523200Y-177037200D03*
D10*
X216761300Y-122718300D03*
D11*
X216761300Y-115098300D03*
D12*
X302428200Y-141377200D03*
D13*
X307508200Y-141377200D03*
D12*
X312588200Y-141377200D03*
D14*
X310048200Y-136297200D03*
X303698200Y-138837200D03*
D12*
X202153200Y-179577200D03*
D13*
X207233200Y-179577200D03*
D12*
X212313200Y-179577200D03*
D14*
X209773200Y-174497200D03*
X203423200Y-177037200D03*
D12*
X149628200Y-141377200D03*
D13*
X154708200Y-141377200D03*
D12*
X159788200Y-141377200D03*
D14*
X157248200Y-136297200D03*
X150898200Y-138837200D03*
D10*
X190498800Y-127493300D03*
D11*
X190498800Y-119873300D03*
D10*
X195273800Y-122718300D03*
D11*
X195273800Y-115098300D03*
D12*
X457380400Y-122914400D03*
D13*
X462460400Y-122914400D03*
D12*
X467540400Y-122914400D03*
D14*
X465000400Y-117834400D03*
X458650400Y-120374400D03*
D12*
X125747800Y-217784200D03*
D13*
X130827800Y-217784200D03*
D12*
X135907800Y-217784200D03*
D14*
X133367800Y-212704200D03*
X127017800Y-215244200D03*
D12*
X101878200Y-160477200D03*
D13*
X106958200Y-160477200D03*
D12*
X112038200Y-160477200D03*
D14*
X109498200Y-155397200D03*
X103148200Y-157937200D03*
D10*
X252573800Y-127493300D03*
D11*
X252573800Y-119873300D03*
D12*
X245128200Y-141377200D03*
D13*
X250208200Y-141377200D03*
D12*
X255288200Y-141377200D03*
D14*
X252748200Y-136297200D03*
X246398200Y-138837200D03*
D10*
X238248800Y-122718300D03*
D11*
X238248800Y-115098300D03*
D12*
X116203200Y-198677200D03*
D13*
X121283200Y-198677200D03*
D12*
X126363200Y-198677200D03*
D14*
X123823200Y-193597200D03*
X117473200Y-196137200D03*
D12*
X106653200Y-179577200D03*
D13*
X111733200Y-179577200D03*
D12*
X116813200Y-179577200D03*
D14*
X114273200Y-174497200D03*
X107923200Y-177037200D03*
D10*
X202436300Y-120330800D03*
D11*
X202436300Y-112710800D03*
D12*
X75610300Y-217784200D03*
D13*
X80690300Y-217784200D03*
D12*
X85770300Y-217784200D03*
D14*
X83230300Y-212704200D03*
X76880300Y-215244200D03*
D10*
X152298800Y-120330800D03*
D11*
X152298800Y-112710800D03*
D12*
X316753200Y-179577200D03*
D13*
X321833200Y-179577200D03*
D12*
X326913200Y-179577200D03*
D14*
X324373200Y-174497200D03*
X318023200Y-177037200D03*
D27*
X106952800Y-110346700D03*
X106952800Y-115346700D03*
D12*
X421794200Y-217681800D03*
D13*
X426874200Y-217681800D03*
D12*
X431954200Y-217681800D03*
D14*
X429414200Y-212601800D03*
X423064200Y-215141800D03*
D12*
X395354400Y-119889700D03*
D13*
X400434400Y-119889700D03*
D12*
X405514400Y-119889700D03*
D14*
X402974400Y-114809700D03*
X396624400Y-117349700D03*
D12*
X101870400Y-217796800D03*
D13*
X106950400Y-217796800D03*
D12*
X112030400Y-217796800D03*
D14*
X109490400Y-212716800D03*
X103140400Y-215256800D03*
D12*
X240353200Y-179577200D03*
D13*
X245433200Y-179577200D03*
D12*
X250513200Y-179577200D03*
D14*
X247973200Y-174497200D03*
X241623200Y-177037200D03*
D12*
X206928200Y-141377200D03*
D13*
X212008200Y-141377200D03*
D12*
X217088200Y-141377200D03*
D14*
X214548200Y-136297200D03*
X208198200Y-138837200D03*
X183352800Y-217784200D03*
D12*
X273778200Y-160477200D03*
D13*
X278858200Y-160477200D03*
D12*
X283938200Y-160477200D03*
D14*
X281398200Y-155397200D03*
X275048200Y-157937200D03*
D12*
X226028200Y-141377200D03*
D13*
X231108200Y-141377200D03*
D12*
X236188200Y-141377200D03*
D14*
X233648200Y-136297200D03*
X227298200Y-138837200D03*
D12*
X197378200Y-160477200D03*
D13*
X202458200Y-160477200D03*
D12*
X207538200Y-160477200D03*
D14*
X204998200Y-155397200D03*
X198648200Y-157937200D03*
D10*
X159461300Y-120330800D03*
D11*
X159461300Y-112710800D03*
D12*
X269003200Y-198677200D03*
D13*
X274083200Y-198677200D03*
D12*
X279163200Y-198677200D03*
D14*
X276623200Y-193597200D03*
X270273200Y-196137200D03*
D10*
X235861300Y-125105800D03*
D11*
X235861300Y-117485800D03*
D14*
X336152800Y-208234200D03*
D12*
X190210300Y-217784200D03*
D13*
X195290300Y-217784200D03*
D12*
X200370300Y-217784200D03*
D14*
X197830300Y-212704200D03*
X191480300Y-215244200D03*
D10*
X309928000Y-125055000D03*
D11*
X309928000Y-117435000D03*
D10*
X274061300Y-125105800D03*
D11*
X274061300Y-117485800D03*
D10*
X288386300Y-117943300D03*
D11*
X288386300Y-110323300D03*
D28*
X376272800Y-182789200D03*
X437232800Y-182789200D03*
X376272800Y-147229200D03*
X437232800Y-147229200D03*
D29*
X437232800Y-153579200D03*
X437232800Y-156119200D03*
X437232800Y-158659200D03*
X437232800Y-161199200D03*
X437232800Y-163739200D03*
X437232800Y-166279200D03*
X437232800Y-168819200D03*
X437232800Y-171359200D03*
X437232800Y-173899200D03*
X437232800Y-176439200D03*
D12*
X340628200Y-141377200D03*
D13*
X345708200Y-141377200D03*
D12*
X350788200Y-141377200D03*
D14*
X348248200Y-136297200D03*
X341898200Y-138837200D03*
D27*
X106952800Y-122059200D03*
X106952800Y-127059200D03*
D12*
X321528200Y-141377200D03*
D13*
X326608200Y-141377200D03*
D12*
X331688200Y-141377200D03*
D14*
X329148200Y-136297200D03*
X322798200Y-138837200D03*
D10*
X157073800Y-117943300D03*
D11*
X157073800Y-110323300D03*
D10*
X221536300Y-117943300D03*
D11*
X221536300Y-110323300D03*
D18*
X97402800Y-177044200D03*
D17*
X97402800Y-179584200D03*
X97402800Y-182124200D03*
M02*
