M48
; DRILL file {KiCad 8.0.3} date 2024-09-11T17:02:58-0400
; FORMAT={-:-/ absolute / inch / decimal}
; #@! TF.CreationDate,2024-09-11T17:02:58-04:00
; #@! TF.GenerationSoftware,Kicad,Pcbnew,8.0.3
; #@! TF.FileFunction,NonPlated,1,2,NPTH
FMAT,2
INCH
; #@! TA.AperFunction,NonPlated,NPTH,ComponentDrill
T1C0.0591
; #@! TA.AperFunction,NonPlated,NPTH,ComponentDrill
T2C0.0669
; #@! TA.AperFunction,NonPlated,NPTH,ComponentDrill
T3C0.0709
; #@! TA.AperFunction,NonPlated,NPTH,ComponentDrill
T4C0.0866
; #@! TA.AperFunction,NonPlated,NPTH,ComponentDrill
T5C0.0900
; #@! TA.AperFunction,NonPlated,NPTH,ComponentDrill
T6C0.1201
; #@! TA.AperFunction,NonPlated,NPTH,ComponentDrill
T7C0.1575
%
G90
G05
T1
X1.4523Y-4.547
X1.4523Y-4.7379
T2
X2.883Y-5.566
X2.9768Y-7.0702
X2.9768Y-7.8222
X2.9768Y-8.5742
X3.0708Y-6.3183
X3.0708Y-8.5742
X3.1648Y-7.0702
X3.283Y-5.566
X3.3528Y-7.8222
X3.3768Y-7.0702
X3.3768Y-7.8222
X3.3768Y-8.5742
X3.4708Y-6.3183
X3.4708Y-8.5742
X3.5648Y-7.0702
X3.635Y-5.566
X3.7528Y-7.8222
X3.823Y-7.8219
X3.9167Y-8.5742
X4.0106Y-8.5747
X4.011Y-6.318
X4.035Y-5.566
X4.1989Y-7.07
X4.223Y-7.8219
X4.3167Y-8.5742
X4.3869Y-5.566
X4.4106Y-8.5747
X4.411Y-6.318
X4.5749Y-7.8219
X4.5989Y-7.07
X4.7629Y-6.318
X4.7869Y-5.566
X4.857Y-8.5742
X4.9507Y-8.5742
X4.9509Y-7.07
X4.9749Y-7.8219
X5.1389Y-5.566
X5.1629Y-6.318
X5.257Y-8.5742
X5.3269Y-7.8219
X5.3507Y-8.5742
X5.3509Y-7.07
X5.5149Y-6.318
X5.5389Y-5.566
X5.7029Y-7.07
X5.7269Y-7.8219
X5.8909Y-5.566
X5.9149Y-6.318
X6.0789Y-7.8219
X6.1029Y-7.07
X6.1726Y-8.5532
X6.2669Y-6.318
X6.2909Y-5.566
X6.4549Y-7.07
X6.4789Y-7.8219
X6.5726Y-8.5532
X6.6428Y-5.566
X6.6669Y-6.318
X6.8308Y-7.8219
X6.8549Y-7.07
X7.0188Y-6.318
X7.0428Y-5.566
X7.2068Y-7.07
X7.2308Y-7.8219
X7.3948Y-5.566
X7.4188Y-6.318
X7.4886Y-8.5742
X7.5828Y-7.8219
X7.6068Y-7.07
X7.6766Y-8.5732
X7.7708Y-6.318
X7.7948Y-5.566
X7.8886Y-8.5742
X7.9588Y-7.07
X7.9828Y-7.8219
X8.0766Y-8.5732
X8.1466Y-8.5732
X8.1468Y-5.566
X8.1708Y-6.318
X8.3348Y-7.8219
X8.3588Y-7.07
X8.5228Y-6.318
X8.5466Y-8.5732
X8.5468Y-5.566
X8.7108Y-7.07
X8.7348Y-7.8219
X8.8987Y-5.566
X8.9228Y-6.318
X8.9925Y-8.572
X9.0867Y-7.8219
X9.1108Y-7.07
X9.2747Y-6.318
X9.2987Y-5.566
X9.3925Y-8.572
X9.4627Y-7.07
X9.4867Y-7.8219
X9.6507Y-5.566
X9.6747Y-6.318
X9.8387Y-7.8219
X9.8627Y-7.07
X10.0267Y-6.318
X10.0507Y-5.566
X10.2147Y-7.07
X10.2387Y-7.8219
X10.4027Y-5.566
X10.4267Y-6.318
X10.4965Y-8.5742
X10.5907Y-7.8219
X10.6147Y-7.07
X10.7787Y-6.318
X10.8027Y-5.566
X10.8965Y-8.5742
X10.9667Y-7.07
X10.9907Y-7.8219
X11.1547Y-5.566
X11.1787Y-6.318
X11.3424Y-8.5742
X11.3426Y-7.8219
X11.3667Y-7.07
X11.4364Y-8.5742
X11.5306Y-6.318
X11.5547Y-5.566
X11.7186Y-7.07
X11.7424Y-8.5742
X11.7426Y-7.8219
X11.8364Y-8.5742
X11.9066Y-5.566
X11.9306Y-6.318
X12.1186Y-7.07
X12.2826Y-6.318
X12.3066Y-5.566
X12.3764Y-7.8222
X12.4706Y-7.07
X12.6586Y-5.566
X12.6826Y-6.318
X12.7764Y-7.8222
X12.8706Y-7.07
X12.9404Y-7.0702
X13.0344Y-5.5663
X13.0586Y-5.566
X13.2224Y-6.3183
X13.3404Y-7.0702
X13.4106Y-5.566
X13.4344Y-5.5663
X13.5164Y-6.4943
X13.5164Y-6.8943
X13.6224Y-6.3183
X13.8106Y-5.566
X15.0988Y-8.57
X15.4988Y-8.57
X15.5651Y-4.7201
X15.8541Y-7.8182
X15.8541Y-8.5701
X15.9651Y-4.7201
X16.2541Y-7.8182
X16.2541Y-8.5701
X16.5655Y-4.7196
X16.6061Y-8.5701
X16.9655Y-4.7196
X17.0061Y-8.5701
X18.0071Y-4.8391
X18.0071Y-5.5892
X18.0071Y-6.3412
X18.0071Y-7.0932
X18.0071Y-7.8451
X18.4071Y-4.8391
X18.4071Y-5.5892
X18.4071Y-6.3412
X18.4071Y-7.0932
X18.4071Y-7.8451
T3
X1.333Y-4.5351
X1.333Y-4.7497
T4
X1.218Y-5.9373
X1.218Y-7.1902
X1.218Y-8.4431
X4.3987Y-8.1984
X5.0567Y-5.9423
X7.2186Y-8.5742
X8.7226Y-5.9423
X10.2265Y-8.552
X10.4145Y-4.9083
X10.9326Y-4.4008
X12.3884Y-5.9423
X13.2344Y-8.1982
X18.9167Y-5.3257
X18.9167Y-6.5786
X18.9167Y-7.8315
T5
X14.8139Y-5.7964
X14.8139Y-7.1964
X17.2139Y-5.7964
X17.2139Y-7.1964
T6
X3.0843Y-7.5466
X4.0213Y-7.5466
X5.9041Y-8.2776
X5.9081Y-8.8488
X6.1025Y-8.8488
X6.8412Y-8.2776
X8.724Y-8.8476
X9.661Y-8.8476
X9.8451Y-8.8488
X10.5907Y-8.8488
X12.6719Y-6.7947
X12.7659Y-5.2907
X13.6089Y-6.7947
X13.7029Y-5.2907
X13.7919Y-6.2258
X13.7919Y-7.1628
T7
X3.083Y-5.566
X3.0843Y-8.1466
X3.1768Y-7.0702
X3.1768Y-7.8222
X3.1768Y-8.5742
X3.2708Y-6.3183
X3.2708Y-8.5742
X3.3648Y-7.0702
X3.5528Y-7.8222
X3.835Y-5.566
X4.0213Y-8.1466
X4.023Y-7.8219
X4.1167Y-8.5742
X4.2106Y-8.5747
X4.211Y-6.318
X4.3989Y-7.07
X4.5869Y-5.566
X4.7749Y-7.8219
X4.9629Y-6.318
X5.057Y-8.5742
X5.1507Y-8.5742
X5.1509Y-7.07
X5.3389Y-5.566
X5.5269Y-7.8219
X5.7149Y-6.318
X5.9029Y-7.07
X5.9041Y-8.8776
X5.9081Y-8.2488
X6.0909Y-5.566
X6.1025Y-8.2488
X6.2789Y-7.8219
X6.3726Y-8.5532
X6.4669Y-6.318
X6.6549Y-7.07
X6.8412Y-8.8776
X6.8428Y-5.566
X7.0308Y-7.8219
X7.2188Y-6.318
X7.4068Y-7.07
X7.5948Y-5.566
X7.6886Y-8.5742
X7.7828Y-7.8219
X7.8766Y-8.5732
X7.9708Y-6.318
X8.1588Y-7.07
X8.3466Y-8.5732
X8.3468Y-5.566
X8.5348Y-7.8219
X8.7228Y-6.318
X8.724Y-8.2476
X8.9108Y-7.07
X9.0987Y-5.566
X9.1925Y-8.572
X9.2867Y-7.8219
X9.4747Y-6.318
X9.661Y-8.2476
X9.6627Y-7.07
X9.8451Y-8.2488
X9.8507Y-5.566
X10.0387Y-7.8219
X10.2267Y-6.318
X10.4147Y-7.07
X10.5907Y-8.2488
X10.6027Y-5.566
X10.6965Y-8.5742
X10.7907Y-7.8219
X10.9787Y-6.318
X11.1667Y-7.07
X11.3547Y-5.566
X11.5424Y-8.5742
X11.5426Y-7.8219
X11.6364Y-8.5742
X11.7306Y-6.318
X11.9186Y-7.07
X12.1066Y-5.566
X12.4826Y-6.318
X12.5764Y-7.8222
X12.6706Y-7.07
X12.6719Y-7.3947
X12.7659Y-5.8907
X12.8586Y-5.566
X13.1404Y-7.0702
X13.1919Y-6.2258
X13.1919Y-7.1628
X13.2344Y-5.5663
X13.4224Y-6.3183
X13.5164Y-6.6943
X13.6089Y-7.3947
X13.6106Y-5.566
X13.7029Y-5.8907
X15.2988Y-8.57
X15.7651Y-4.7201
X16.0541Y-7.8182
X16.0541Y-8.5701
X16.7655Y-4.7196
X16.8061Y-8.5701
X18.2071Y-4.8391
X18.2071Y-5.5892
X18.2071Y-6.3412
X18.2071Y-7.0932
X18.2071Y-7.8451
T1
G00X15.5444Y-4.6948
M15
G01X15.5444Y-4.7459
M16
G05
G00X15.9854Y-4.6948
M15
G01X15.9854Y-4.7459
M16
G05
G00X16.5448Y-4.6942
M15
G01X16.5448Y-4.7454
M16
G05
G00X16.9858Y-4.6942
M15
G01X16.9858Y-4.7454
M16
G05
M30
