G04 #@! TF.GenerationSoftware,KiCad,Pcbnew,8.0.3*
G04 #@! TF.CreationDate,2024-09-11T17:02:16-04:00*
G04 #@! TF.ProjectId,prototypeTOBETESTED,70726f74-6f74-4797-9065-544f42455445,rev?*
G04 #@! TF.SameCoordinates,Original*
G04 #@! TF.FileFunction,Legend,Bot*
G04 #@! TF.FilePolarity,Positive*
%FSLAX46Y46*%
G04 Gerber Fmt 4.6, Leading zero omitted, Abs format (unit mm)*
G04 Created by KiCad (PCBNEW 8.0.3) date 2024-09-11 17:02:16*
%MOMM*%
%LPD*%
G01*
G04 APERTURE LIST*
%ADD10C,0.150000*%
%ADD11C,0.120000*%
%ADD12R,1.500000X1.500000*%
%ADD13O,1.500000X1.500000*%
%ADD14C,1.700000*%
%ADD15C,4.000000*%
%ADD16C,2.200000*%
%ADD17C,3.050000*%
%ADD18O,1.800000X1.800000*%
%ADD19O,1.700000X1.700000*%
%ADD20R,1.700000X1.700000*%
%ADD21O,2.000000X3.200000*%
%ADD22R,2.000000X2.000000*%
%ADD23C,2.000000*%
%ADD24R,1.600000X1.600000*%
%ADD25O,1.600000X1.600000*%
%ADD26R,1.750000X1.750000*%
%ADD27C,1.750000*%
%ADD28C,2.700000*%
%ADD29C,1.600000*%
%ADD30C,2.540000*%
%ADD31C,1.524000*%
G04 APERTURE END LIST*
D10*
X229005181Y-188736428D02*
X228862324Y-188784047D01*
X228862324Y-188784047D02*
X228624229Y-188784047D01*
X228624229Y-188784047D02*
X228528991Y-188736428D01*
X228528991Y-188736428D02*
X228481372Y-188688808D01*
X228481372Y-188688808D02*
X228433753Y-188593570D01*
X228433753Y-188593570D02*
X228433753Y-188498332D01*
X228433753Y-188498332D02*
X228481372Y-188403094D01*
X228481372Y-188403094D02*
X228528991Y-188355475D01*
X228528991Y-188355475D02*
X228624229Y-188307856D01*
X228624229Y-188307856D02*
X228814705Y-188260237D01*
X228814705Y-188260237D02*
X228909943Y-188212618D01*
X228909943Y-188212618D02*
X228957562Y-188164999D01*
X228957562Y-188164999D02*
X229005181Y-188069761D01*
X229005181Y-188069761D02*
X229005181Y-187974523D01*
X229005181Y-187974523D02*
X228957562Y-187879285D01*
X228957562Y-187879285D02*
X228909943Y-187831666D01*
X228909943Y-187831666D02*
X228814705Y-187784047D01*
X228814705Y-187784047D02*
X228576610Y-187784047D01*
X228576610Y-187784047D02*
X228433753Y-187831666D01*
X228148038Y-187784047D02*
X227576610Y-187784047D01*
X227862324Y-188784047D02*
X227862324Y-187784047D01*
X227243276Y-188784047D02*
X227243276Y-187784047D01*
X227243276Y-188260237D02*
X226671848Y-188260237D01*
X226671848Y-188784047D02*
X226671848Y-187784047D01*
X225719467Y-188784047D02*
X226195657Y-188784047D01*
X226195657Y-188784047D02*
X226195657Y-187784047D01*
X225386133Y-188784047D02*
X225386133Y-187784047D01*
X225386133Y-187784047D02*
X225052800Y-188498332D01*
X225052800Y-188498332D02*
X224719467Y-187784047D01*
X224719467Y-187784047D02*
X224719467Y-188784047D01*
X223481371Y-188784047D02*
X223481371Y-187784047D01*
X222909943Y-188784047D02*
X223338514Y-188212618D01*
X222909943Y-187784047D02*
X223481371Y-188355475D01*
X222148038Y-188260237D02*
X222005181Y-188307856D01*
X222005181Y-188307856D02*
X221957562Y-188355475D01*
X221957562Y-188355475D02*
X221909943Y-188450713D01*
X221909943Y-188450713D02*
X221909943Y-188593570D01*
X221909943Y-188593570D02*
X221957562Y-188688808D01*
X221957562Y-188688808D02*
X222005181Y-188736428D01*
X222005181Y-188736428D02*
X222100419Y-188784047D01*
X222100419Y-188784047D02*
X222481371Y-188784047D01*
X222481371Y-188784047D02*
X222481371Y-187784047D01*
X222481371Y-187784047D02*
X222148038Y-187784047D01*
X222148038Y-187784047D02*
X222052800Y-187831666D01*
X222052800Y-187831666D02*
X222005181Y-187879285D01*
X222005181Y-187879285D02*
X221957562Y-187974523D01*
X221957562Y-187974523D02*
X221957562Y-188069761D01*
X221957562Y-188069761D02*
X222005181Y-188164999D01*
X222005181Y-188164999D02*
X222052800Y-188212618D01*
X222052800Y-188212618D02*
X222148038Y-188260237D01*
X222148038Y-188260237D02*
X222481371Y-188260237D01*
X220576609Y-188784047D02*
X220671847Y-188736428D01*
X220671847Y-188736428D02*
X220719466Y-188641189D01*
X220719466Y-188641189D02*
X220719466Y-187784047D01*
X219767085Y-188784047D02*
X219767085Y-188260237D01*
X219767085Y-188260237D02*
X219814704Y-188164999D01*
X219814704Y-188164999D02*
X219909942Y-188117380D01*
X219909942Y-188117380D02*
X220100418Y-188117380D01*
X220100418Y-188117380D02*
X220195656Y-188164999D01*
X219767085Y-188736428D02*
X219862323Y-188784047D01*
X219862323Y-188784047D02*
X220100418Y-188784047D01*
X220100418Y-188784047D02*
X220195656Y-188736428D01*
X220195656Y-188736428D02*
X220243275Y-188641189D01*
X220243275Y-188641189D02*
X220243275Y-188545951D01*
X220243275Y-188545951D02*
X220195656Y-188450713D01*
X220195656Y-188450713D02*
X220100418Y-188403094D01*
X220100418Y-188403094D02*
X219862323Y-188403094D01*
X219862323Y-188403094D02*
X219767085Y-188355475D01*
X218862323Y-188117380D02*
X218862323Y-188926904D01*
X218862323Y-188926904D02*
X218909942Y-189022142D01*
X218909942Y-189022142D02*
X218957561Y-189069761D01*
X218957561Y-189069761D02*
X219052799Y-189117380D01*
X219052799Y-189117380D02*
X219195656Y-189117380D01*
X219195656Y-189117380D02*
X219290894Y-189069761D01*
X218862323Y-188736428D02*
X218957561Y-188784047D01*
X218957561Y-188784047D02*
X219148037Y-188784047D01*
X219148037Y-188784047D02*
X219243275Y-188736428D01*
X219243275Y-188736428D02*
X219290894Y-188688808D01*
X219290894Y-188688808D02*
X219338513Y-188593570D01*
X219338513Y-188593570D02*
X219338513Y-188307856D01*
X219338513Y-188307856D02*
X219290894Y-188212618D01*
X219290894Y-188212618D02*
X219243275Y-188164999D01*
X219243275Y-188164999D02*
X219148037Y-188117380D01*
X219148037Y-188117380D02*
X218957561Y-188117380D01*
X218957561Y-188117380D02*
X218862323Y-188164999D01*
X218243275Y-188784047D02*
X218338513Y-188736428D01*
X218338513Y-188736428D02*
X218386132Y-188688808D01*
X218386132Y-188688808D02*
X218433751Y-188593570D01*
X218433751Y-188593570D02*
X218433751Y-188307856D01*
X218433751Y-188307856D02*
X218386132Y-188212618D01*
X218386132Y-188212618D02*
X218338513Y-188164999D01*
X218338513Y-188164999D02*
X218243275Y-188117380D01*
X218243275Y-188117380D02*
X218100418Y-188117380D01*
X218100418Y-188117380D02*
X218005180Y-188164999D01*
X218005180Y-188164999D02*
X217957561Y-188212618D01*
X217957561Y-188212618D02*
X217909942Y-188307856D01*
X217909942Y-188307856D02*
X217909942Y-188593570D01*
X217909942Y-188593570D02*
X217957561Y-188688808D01*
X217957561Y-188688808D02*
X218005180Y-188736428D01*
X218005180Y-188736428D02*
X218100418Y-188784047D01*
X218100418Y-188784047D02*
X218243275Y-188784047D01*
X217481370Y-188784047D02*
X217481370Y-188117380D01*
X217481370Y-188212618D02*
X217433751Y-188164999D01*
X217433751Y-188164999D02*
X217338513Y-188117380D01*
X217338513Y-188117380D02*
X217195656Y-188117380D01*
X217195656Y-188117380D02*
X217100418Y-188164999D01*
X217100418Y-188164999D02*
X217052799Y-188260237D01*
X217052799Y-188260237D02*
X217052799Y-188784047D01*
X217052799Y-188260237D02*
X217005180Y-188164999D01*
X217005180Y-188164999D02*
X216909942Y-188117380D01*
X216909942Y-188117380D02*
X216767085Y-188117380D01*
X216767085Y-188117380D02*
X216671846Y-188164999D01*
X216671846Y-188164999D02*
X216624227Y-188260237D01*
X216624227Y-188260237D02*
X216624227Y-188784047D01*
X215481370Y-188117380D02*
X215243275Y-188784047D01*
X215243275Y-188784047D02*
X215005180Y-188117380D01*
X214100418Y-188784047D02*
X214671846Y-188784047D01*
X214386132Y-188784047D02*
X214386132Y-187784047D01*
X214386132Y-187784047D02*
X214481370Y-187926904D01*
X214481370Y-187926904D02*
X214576608Y-188022142D01*
X214576608Y-188022142D02*
X214671846Y-188069761D01*
X227600419Y-190393991D02*
X227600419Y-189393991D01*
X227600419Y-190346372D02*
X227695657Y-190393991D01*
X227695657Y-190393991D02*
X227886133Y-190393991D01*
X227886133Y-190393991D02*
X227981371Y-190346372D01*
X227981371Y-190346372D02*
X228028990Y-190298752D01*
X228028990Y-190298752D02*
X228076609Y-190203514D01*
X228076609Y-190203514D02*
X228076609Y-189917800D01*
X228076609Y-189917800D02*
X228028990Y-189822562D01*
X228028990Y-189822562D02*
X227981371Y-189774943D01*
X227981371Y-189774943D02*
X227886133Y-189727324D01*
X227886133Y-189727324D02*
X227695657Y-189727324D01*
X227695657Y-189727324D02*
X227600419Y-189774943D01*
X226743276Y-190346372D02*
X226838514Y-190393991D01*
X226838514Y-190393991D02*
X227028990Y-190393991D01*
X227028990Y-190393991D02*
X227124228Y-190346372D01*
X227124228Y-190346372D02*
X227171847Y-190251133D01*
X227171847Y-190251133D02*
X227171847Y-189870181D01*
X227171847Y-189870181D02*
X227124228Y-189774943D01*
X227124228Y-189774943D02*
X227028990Y-189727324D01*
X227028990Y-189727324D02*
X226838514Y-189727324D01*
X226838514Y-189727324D02*
X226743276Y-189774943D01*
X226743276Y-189774943D02*
X226695657Y-189870181D01*
X226695657Y-189870181D02*
X226695657Y-189965419D01*
X226695657Y-189965419D02*
X227171847Y-190060657D01*
X226314704Y-190346372D02*
X226219466Y-190393991D01*
X226219466Y-190393991D02*
X226028990Y-190393991D01*
X226028990Y-190393991D02*
X225933752Y-190346372D01*
X225933752Y-190346372D02*
X225886133Y-190251133D01*
X225886133Y-190251133D02*
X225886133Y-190203514D01*
X225886133Y-190203514D02*
X225933752Y-190108276D01*
X225933752Y-190108276D02*
X226028990Y-190060657D01*
X226028990Y-190060657D02*
X226171847Y-190060657D01*
X226171847Y-190060657D02*
X226267085Y-190013038D01*
X226267085Y-190013038D02*
X226314704Y-189917800D01*
X226314704Y-189917800D02*
X226314704Y-189870181D01*
X226314704Y-189870181D02*
X226267085Y-189774943D01*
X226267085Y-189774943D02*
X226171847Y-189727324D01*
X226171847Y-189727324D02*
X226028990Y-189727324D01*
X226028990Y-189727324D02*
X225933752Y-189774943D01*
X225457561Y-190393991D02*
X225457561Y-189727324D01*
X225457561Y-189393991D02*
X225505180Y-189441610D01*
X225505180Y-189441610D02*
X225457561Y-189489229D01*
X225457561Y-189489229D02*
X225409942Y-189441610D01*
X225409942Y-189441610D02*
X225457561Y-189393991D01*
X225457561Y-189393991D02*
X225457561Y-189489229D01*
X224552800Y-189727324D02*
X224552800Y-190536848D01*
X224552800Y-190536848D02*
X224600419Y-190632086D01*
X224600419Y-190632086D02*
X224648038Y-190679705D01*
X224648038Y-190679705D02*
X224743276Y-190727324D01*
X224743276Y-190727324D02*
X224886133Y-190727324D01*
X224886133Y-190727324D02*
X224981371Y-190679705D01*
X224552800Y-190346372D02*
X224648038Y-190393991D01*
X224648038Y-190393991D02*
X224838514Y-190393991D01*
X224838514Y-190393991D02*
X224933752Y-190346372D01*
X224933752Y-190346372D02*
X224981371Y-190298752D01*
X224981371Y-190298752D02*
X225028990Y-190203514D01*
X225028990Y-190203514D02*
X225028990Y-189917800D01*
X225028990Y-189917800D02*
X224981371Y-189822562D01*
X224981371Y-189822562D02*
X224933752Y-189774943D01*
X224933752Y-189774943D02*
X224838514Y-189727324D01*
X224838514Y-189727324D02*
X224648038Y-189727324D01*
X224648038Y-189727324D02*
X224552800Y-189774943D01*
X224076609Y-189727324D02*
X224076609Y-190393991D01*
X224076609Y-189822562D02*
X224028990Y-189774943D01*
X224028990Y-189774943D02*
X223933752Y-189727324D01*
X223933752Y-189727324D02*
X223790895Y-189727324D01*
X223790895Y-189727324D02*
X223695657Y-189774943D01*
X223695657Y-189774943D02*
X223648038Y-189870181D01*
X223648038Y-189870181D02*
X223648038Y-190393991D01*
X222409942Y-190393991D02*
X222409942Y-189393991D01*
X222409942Y-189774943D02*
X222314704Y-189727324D01*
X222314704Y-189727324D02*
X222124228Y-189727324D01*
X222124228Y-189727324D02*
X222028990Y-189774943D01*
X222028990Y-189774943D02*
X221981371Y-189822562D01*
X221981371Y-189822562D02*
X221933752Y-189917800D01*
X221933752Y-189917800D02*
X221933752Y-190203514D01*
X221933752Y-190203514D02*
X221981371Y-190298752D01*
X221981371Y-190298752D02*
X222028990Y-190346372D01*
X222028990Y-190346372D02*
X222124228Y-190393991D01*
X222124228Y-190393991D02*
X222314704Y-190393991D01*
X222314704Y-190393991D02*
X222409942Y-190346372D01*
X221600418Y-189727324D02*
X221362323Y-190393991D01*
X221124228Y-189727324D02*
X221362323Y-190393991D01*
X221362323Y-190393991D02*
X221457561Y-190632086D01*
X221457561Y-190632086D02*
X221505180Y-190679705D01*
X221505180Y-190679705D02*
X221600418Y-190727324D01*
X219981370Y-190393991D02*
X219981370Y-189727324D01*
X219981370Y-189822562D02*
X219933751Y-189774943D01*
X219933751Y-189774943D02*
X219838513Y-189727324D01*
X219838513Y-189727324D02*
X219695656Y-189727324D01*
X219695656Y-189727324D02*
X219600418Y-189774943D01*
X219600418Y-189774943D02*
X219552799Y-189870181D01*
X219552799Y-189870181D02*
X219552799Y-190393991D01*
X219552799Y-189870181D02*
X219505180Y-189774943D01*
X219505180Y-189774943D02*
X219409942Y-189727324D01*
X219409942Y-189727324D02*
X219267085Y-189727324D01*
X219267085Y-189727324D02*
X219171846Y-189774943D01*
X219171846Y-189774943D02*
X219124227Y-189870181D01*
X219124227Y-189870181D02*
X219124227Y-190393991D01*
X218505180Y-190393991D02*
X218600418Y-190346372D01*
X218600418Y-190346372D02*
X218648037Y-190298752D01*
X218648037Y-190298752D02*
X218695656Y-190203514D01*
X218695656Y-190203514D02*
X218695656Y-189917800D01*
X218695656Y-189917800D02*
X218648037Y-189822562D01*
X218648037Y-189822562D02*
X218600418Y-189774943D01*
X218600418Y-189774943D02*
X218505180Y-189727324D01*
X218505180Y-189727324D02*
X218362323Y-189727324D01*
X218362323Y-189727324D02*
X218267085Y-189774943D01*
X218267085Y-189774943D02*
X218219466Y-189822562D01*
X218219466Y-189822562D02*
X218171847Y-189917800D01*
X218171847Y-189917800D02*
X218171847Y-190203514D01*
X218171847Y-190203514D02*
X218219466Y-190298752D01*
X218219466Y-190298752D02*
X218267085Y-190346372D01*
X218267085Y-190346372D02*
X218362323Y-190393991D01*
X218362323Y-190393991D02*
X218505180Y-190393991D01*
X217743275Y-190393991D02*
X217743275Y-189393991D01*
X217314704Y-190393991D02*
X217314704Y-189870181D01*
X217314704Y-189870181D02*
X217362323Y-189774943D01*
X217362323Y-189774943D02*
X217457561Y-189727324D01*
X217457561Y-189727324D02*
X217600418Y-189727324D01*
X217600418Y-189727324D02*
X217695656Y-189774943D01*
X217695656Y-189774943D02*
X217743275Y-189822562D01*
X216695656Y-190393991D02*
X216790894Y-190346372D01*
X216790894Y-190346372D02*
X216838513Y-190298752D01*
X216838513Y-190298752D02*
X216886132Y-190203514D01*
X216886132Y-190203514D02*
X216886132Y-189917800D01*
X216886132Y-189917800D02*
X216838513Y-189822562D01*
X216838513Y-189822562D02*
X216790894Y-189774943D01*
X216790894Y-189774943D02*
X216695656Y-189727324D01*
X216695656Y-189727324D02*
X216552799Y-189727324D01*
X216552799Y-189727324D02*
X216457561Y-189774943D01*
X216457561Y-189774943D02*
X216409942Y-189822562D01*
X216409942Y-189822562D02*
X216362323Y-189917800D01*
X216362323Y-189917800D02*
X216362323Y-190203514D01*
X216362323Y-190203514D02*
X216409942Y-190298752D01*
X216409942Y-190298752D02*
X216457561Y-190346372D01*
X216457561Y-190346372D02*
X216552799Y-190393991D01*
X216552799Y-190393991D02*
X216695656Y-190393991D01*
X216028989Y-189727324D02*
X215790894Y-190393991D01*
X215552799Y-189727324D02*
X215790894Y-190393991D01*
X215790894Y-190393991D02*
X215886132Y-190632086D01*
X215886132Y-190632086D02*
X215933751Y-190679705D01*
X215933751Y-190679705D02*
X216028989Y-190727324D01*
X215314703Y-189727324D02*
X214933751Y-189727324D01*
X215171846Y-189393991D02*
X215171846Y-190251133D01*
X215171846Y-190251133D02*
X215124227Y-190346372D01*
X215124227Y-190346372D02*
X215028989Y-190393991D01*
X215028989Y-190393991D02*
X214933751Y-190393991D01*
X99335480Y-180227057D02*
X99335480Y-180703247D01*
X99335480Y-180703247D02*
X100335480Y-180703247D01*
X99859290Y-179893723D02*
X99859290Y-179560390D01*
X99335480Y-179417533D02*
X99335480Y-179893723D01*
X99335480Y-179893723D02*
X100335480Y-179893723D01*
X100335480Y-179893723D02*
X100335480Y-179417533D01*
X99335480Y-178988961D02*
X100335480Y-178988961D01*
X100335480Y-178988961D02*
X100335480Y-178750866D01*
X100335480Y-178750866D02*
X100287861Y-178608009D01*
X100287861Y-178608009D02*
X100192623Y-178512771D01*
X100192623Y-178512771D02*
X100097385Y-178465152D01*
X100097385Y-178465152D02*
X99906909Y-178417533D01*
X99906909Y-178417533D02*
X99764052Y-178417533D01*
X99764052Y-178417533D02*
X99573576Y-178465152D01*
X99573576Y-178465152D02*
X99478338Y-178512771D01*
X99478338Y-178512771D02*
X99383100Y-178608009D01*
X99383100Y-178608009D02*
X99335480Y-178750866D01*
X99335480Y-178750866D02*
X99335480Y-178988961D01*
X102021848Y-186201519D02*
X102021848Y-186915804D01*
X102021848Y-186915804D02*
X102069467Y-187058661D01*
X102069467Y-187058661D02*
X102164705Y-187153900D01*
X102164705Y-187153900D02*
X102307562Y-187201519D01*
X102307562Y-187201519D02*
X102402800Y-187201519D01*
X101069467Y-187201519D02*
X101545657Y-187201519D01*
X101545657Y-187201519D02*
X101545657Y-186201519D01*
X100164705Y-187106280D02*
X100212324Y-187153900D01*
X100212324Y-187153900D02*
X100355181Y-187201519D01*
X100355181Y-187201519D02*
X100450419Y-187201519D01*
X100450419Y-187201519D02*
X100593276Y-187153900D01*
X100593276Y-187153900D02*
X100688514Y-187058661D01*
X100688514Y-187058661D02*
X100736133Y-186963423D01*
X100736133Y-186963423D02*
X100783752Y-186772947D01*
X100783752Y-186772947D02*
X100783752Y-186630090D01*
X100783752Y-186630090D02*
X100736133Y-186439614D01*
X100736133Y-186439614D02*
X100688514Y-186344376D01*
X100688514Y-186344376D02*
X100593276Y-186249138D01*
X100593276Y-186249138D02*
X100450419Y-186201519D01*
X100450419Y-186201519D02*
X100355181Y-186201519D01*
X100355181Y-186201519D02*
X100212324Y-186249138D01*
X100212324Y-186249138D02*
X100164705Y-186296757D01*
X99450419Y-186201519D02*
X99450419Y-186915804D01*
X99450419Y-186915804D02*
X99498038Y-187058661D01*
X99498038Y-187058661D02*
X99593276Y-187153900D01*
X99593276Y-187153900D02*
X99736133Y-187201519D01*
X99736133Y-187201519D02*
X99831371Y-187201519D01*
X98498038Y-187201519D02*
X98974228Y-187201519D01*
X98974228Y-187201519D02*
X98974228Y-186201519D01*
X97593276Y-187106280D02*
X97640895Y-187153900D01*
X97640895Y-187153900D02*
X97783752Y-187201519D01*
X97783752Y-187201519D02*
X97878990Y-187201519D01*
X97878990Y-187201519D02*
X98021847Y-187153900D01*
X98021847Y-187153900D02*
X98117085Y-187058661D01*
X98117085Y-187058661D02*
X98164704Y-186963423D01*
X98164704Y-186963423D02*
X98212323Y-186772947D01*
X98212323Y-186772947D02*
X98212323Y-186630090D01*
X98212323Y-186630090D02*
X98164704Y-186439614D01*
X98164704Y-186439614D02*
X98117085Y-186344376D01*
X98117085Y-186344376D02*
X98021847Y-186249138D01*
X98021847Y-186249138D02*
X97878990Y-186201519D01*
X97878990Y-186201519D02*
X97783752Y-186201519D01*
X97783752Y-186201519D02*
X97640895Y-186249138D01*
X97640895Y-186249138D02*
X97593276Y-186296757D01*
X96878990Y-186201519D02*
X96878990Y-186915804D01*
X96878990Y-186915804D02*
X96926609Y-187058661D01*
X96926609Y-187058661D02*
X97021847Y-187153900D01*
X97021847Y-187153900D02*
X97164704Y-187201519D01*
X97164704Y-187201519D02*
X97259942Y-187201519D01*
X95926609Y-187201519D02*
X96402799Y-187201519D01*
X96402799Y-187201519D02*
X96402799Y-186201519D01*
X95021847Y-187106280D02*
X95069466Y-187153900D01*
X95069466Y-187153900D02*
X95212323Y-187201519D01*
X95212323Y-187201519D02*
X95307561Y-187201519D01*
X95307561Y-187201519D02*
X95450418Y-187153900D01*
X95450418Y-187153900D02*
X95545656Y-187058661D01*
X95545656Y-187058661D02*
X95593275Y-186963423D01*
X95593275Y-186963423D02*
X95640894Y-186772947D01*
X95640894Y-186772947D02*
X95640894Y-186630090D01*
X95640894Y-186630090D02*
X95593275Y-186439614D01*
X95593275Y-186439614D02*
X95545656Y-186344376D01*
X95545656Y-186344376D02*
X95450418Y-186249138D01*
X95450418Y-186249138D02*
X95307561Y-186201519D01*
X95307561Y-186201519D02*
X95212323Y-186201519D01*
X95212323Y-186201519D02*
X95069466Y-186249138D01*
X95069466Y-186249138D02*
X95021847Y-186296757D01*
X94307561Y-186201519D02*
X94307561Y-186915804D01*
X94307561Y-186915804D02*
X94355180Y-187058661D01*
X94355180Y-187058661D02*
X94450418Y-187153900D01*
X94450418Y-187153900D02*
X94593275Y-187201519D01*
X94593275Y-187201519D02*
X94688513Y-187201519D01*
X93355180Y-187201519D02*
X93831370Y-187201519D01*
X93831370Y-187201519D02*
X93831370Y-186201519D01*
X92450418Y-187106280D02*
X92498037Y-187153900D01*
X92498037Y-187153900D02*
X92640894Y-187201519D01*
X92640894Y-187201519D02*
X92736132Y-187201519D01*
X92736132Y-187201519D02*
X92878989Y-187153900D01*
X92878989Y-187153900D02*
X92974227Y-187058661D01*
X92974227Y-187058661D02*
X93021846Y-186963423D01*
X93021846Y-186963423D02*
X93069465Y-186772947D01*
X93069465Y-186772947D02*
X93069465Y-186630090D01*
X93069465Y-186630090D02*
X93021846Y-186439614D01*
X93021846Y-186439614D02*
X92974227Y-186344376D01*
X92974227Y-186344376D02*
X92878989Y-186249138D01*
X92878989Y-186249138D02*
X92736132Y-186201519D01*
X92736132Y-186201519D02*
X92640894Y-186201519D01*
X92640894Y-186201519D02*
X92498037Y-186249138D01*
X92498037Y-186249138D02*
X92450418Y-186296757D01*
D11*
X96072800Y-175714200D02*
X96072800Y-177044200D01*
X96072800Y-178314200D02*
X96072800Y-183454200D01*
X97402800Y-175714200D02*
X96072800Y-175714200D01*
X98732800Y-178314200D02*
X96072800Y-178314200D01*
X98732800Y-178314200D02*
X98732800Y-183454200D01*
X98732800Y-183454200D02*
X96072800Y-183454200D01*
%LPC*%
D12*
X302711300Y-127493300D03*
D13*
X302711300Y-119873300D03*
D14*
X288097800Y-217784200D03*
D15*
X293177800Y-217784200D03*
D14*
X298257800Y-217784200D03*
D16*
X295717800Y-212704200D03*
X289367800Y-215244200D03*
X128440300Y-150934200D03*
D17*
X324252800Y-134384200D03*
D15*
X324252800Y-149624200D03*
D14*
X331072800Y-141384200D03*
D15*
X336152800Y-141384200D03*
D14*
X341232800Y-141384200D03*
D17*
X348052800Y-134384200D03*
D15*
X348052800Y-149624200D03*
D16*
X338692800Y-136304200D03*
X332342800Y-138844200D03*
D14*
X140078200Y-160477200D03*
D15*
X145158200Y-160477200D03*
D14*
X150238200Y-160477200D03*
D16*
X147698200Y-155397200D03*
X141348200Y-157937200D03*
D18*
X33858400Y-120642600D03*
D13*
X36888400Y-120342600D03*
X36888400Y-115492600D03*
D18*
X33858400Y-115192600D03*
D19*
X33728400Y-126807600D03*
X36268400Y-126807600D03*
D20*
X38808400Y-126807600D03*
D19*
X41348400Y-126807600D03*
X43888400Y-126807600D03*
X46428400Y-126807600D03*
X48968400Y-126807600D03*
D20*
X51508400Y-126807600D03*
D19*
X54048400Y-126807600D03*
X56588400Y-126807600D03*
X59128400Y-126807600D03*
X61668400Y-126807600D03*
D20*
X64208400Y-126807600D03*
D19*
X66748400Y-126807600D03*
X69288400Y-126807600D03*
X71828400Y-126807600D03*
X74368400Y-126807600D03*
D20*
X76908400Y-126807600D03*
D19*
X79448400Y-126807600D03*
X81988400Y-126807600D03*
X81988400Y-109027600D03*
X79448400Y-109027600D03*
D20*
X76908400Y-109027600D03*
D19*
X74368400Y-109027600D03*
X71828400Y-109027600D03*
X69288400Y-109027600D03*
X66748400Y-109027600D03*
D20*
X64208400Y-109027600D03*
D19*
X61668400Y-109027600D03*
X59128400Y-109027600D03*
X56588400Y-109027600D03*
X54048400Y-109027600D03*
D20*
X51508400Y-109027600D03*
D19*
X48968400Y-109027600D03*
X46428400Y-109027600D03*
X43888400Y-109027600D03*
X41348400Y-109027600D03*
D20*
X38808400Y-109027600D03*
D19*
X36268400Y-109027600D03*
X33728400Y-109027600D03*
X81758400Y-120457600D03*
D20*
X81758400Y-117917600D03*
D19*
X81758400Y-115377600D03*
D12*
X173786300Y-122718300D03*
D13*
X173786300Y-115098300D03*
D14*
X178278200Y-160477200D03*
D15*
X183358200Y-160477200D03*
D14*
X188438200Y-160477200D03*
D16*
X185898200Y-155397200D03*
X179548200Y-157937200D03*
D12*
X145136300Y-127493300D03*
D13*
X145136300Y-119873300D03*
D12*
X259736300Y-122718300D03*
D13*
X259736300Y-115098300D03*
D14*
X125753200Y-179577200D03*
D15*
X130833200Y-179577200D03*
D14*
X135913200Y-179577200D03*
D16*
X133373200Y-174497200D03*
X127023200Y-177037200D03*
D14*
X235578200Y-160477200D03*
D15*
X240658200Y-160477200D03*
D14*
X245738200Y-160477200D03*
D16*
X243198200Y-155397200D03*
X236848200Y-157937200D03*
X30936760Y-182630000D03*
D14*
X92328200Y-141377200D03*
D15*
X97408200Y-141377200D03*
D14*
X102488200Y-141377200D03*
D16*
X99948200Y-136297200D03*
X93598200Y-138837200D03*
D14*
X77997800Y-160484200D03*
D15*
X83077800Y-160484200D03*
D14*
X88157800Y-160484200D03*
D16*
X85617800Y-155404200D03*
X79267800Y-157944200D03*
D12*
X135586300Y-120330800D03*
D13*
X135586300Y-112710800D03*
D12*
X231086300Y-127493300D03*
D13*
X231086300Y-119873300D03*
D12*
X214373800Y-125105800D03*
D13*
X214373800Y-117485800D03*
D14*
X249903200Y-198677200D03*
D15*
X254983200Y-198677200D03*
D14*
X260063200Y-198677200D03*
D16*
X257523200Y-193597200D03*
X251173200Y-196137200D03*
D20*
X385670400Y-116810000D03*
D19*
X385670400Y-119350000D03*
X385670400Y-121890000D03*
X385670400Y-124430000D03*
D14*
X383510400Y-217676800D03*
D15*
X388590400Y-217676800D03*
D14*
X393670400Y-217676800D03*
D16*
X391130400Y-212596800D03*
X384780400Y-215136800D03*
D14*
X288103200Y-198677200D03*
D15*
X293183200Y-198677200D03*
D14*
X298263200Y-198677200D03*
D16*
X295723200Y-193597200D03*
X289373200Y-196137200D03*
D12*
X183336300Y-122718300D03*
D13*
X183336300Y-115098300D03*
D14*
X290485300Y-217784200D03*
D15*
X295565300Y-217784200D03*
D14*
X300645300Y-217784200D03*
D16*
X298105300Y-212704200D03*
X291755300Y-215244200D03*
D14*
X311978200Y-160477200D03*
D15*
X317058200Y-160477200D03*
D14*
X322138200Y-160477200D03*
D16*
X319598200Y-155397200D03*
X313248200Y-157937200D03*
D12*
X180948800Y-120330800D03*
D13*
X180948800Y-112710800D03*
D12*
X271673800Y-122718300D03*
D13*
X271673800Y-115098300D03*
D14*
X123366550Y-217784200D03*
D15*
X128446550Y-217784200D03*
D14*
X133526550Y-217784200D03*
D16*
X130986550Y-212704200D03*
X124636550Y-215244200D03*
D14*
X264228200Y-141377200D03*
D15*
X269308200Y-141377200D03*
D14*
X274388200Y-141377200D03*
D16*
X271848200Y-136297200D03*
X265498200Y-138837200D03*
D12*
X295548800Y-122718300D03*
D13*
X295548800Y-115098300D03*
D12*
X250186300Y-125105800D03*
D13*
X250186300Y-117485800D03*
D14*
X75610300Y-179584200D03*
D15*
X80690300Y-179584200D03*
D14*
X85770300Y-179584200D03*
D16*
X83230300Y-174504200D03*
X76880300Y-177044200D03*
D14*
X135303200Y-198677200D03*
D15*
X140383200Y-198677200D03*
D14*
X145463200Y-198677200D03*
D16*
X142923200Y-193597200D03*
X136573200Y-196137200D03*
D12*
X266898800Y-117943300D03*
D13*
X266898800Y-110323300D03*
D14*
X402694200Y-217681800D03*
D15*
X407774200Y-217681800D03*
D14*
X412854200Y-217681800D03*
D16*
X410314200Y-212601800D03*
X403964200Y-215141800D03*
D14*
X130528200Y-141377200D03*
D15*
X135608200Y-141377200D03*
D14*
X140688200Y-141377200D03*
D16*
X138148200Y-136297200D03*
X131798200Y-138837200D03*
D14*
X457380400Y-180166800D03*
D15*
X462460400Y-180166800D03*
D14*
X467540400Y-180166800D03*
D16*
X465000400Y-175086800D03*
X458650400Y-177626800D03*
D14*
X144853200Y-179577200D03*
D15*
X149933200Y-179577200D03*
D14*
X155013200Y-179577200D03*
D16*
X152473200Y-174497200D03*
X146123200Y-177037200D03*
D14*
X283328200Y-141377200D03*
D15*
X288408200Y-141377200D03*
D14*
X293488200Y-141377200D03*
D16*
X290948200Y-136297200D03*
X284598200Y-138837200D03*
D12*
X276448800Y-127493300D03*
D13*
X276448800Y-119873300D03*
D14*
X120978200Y-160477200D03*
D15*
X126058200Y-160477200D03*
D14*
X131138200Y-160477200D03*
D16*
X128598200Y-155397200D03*
X122248200Y-157937200D03*
D15*
X335075300Y-158134200D03*
X335075300Y-181934200D03*
D14*
X343315300Y-164954200D03*
D15*
X343315300Y-170034200D03*
D14*
X343315300Y-175114200D03*
D17*
X350315300Y-158134200D03*
X350315300Y-181934200D03*
D16*
X348395300Y-172574200D03*
X345855300Y-166224200D03*
D14*
X77997800Y-217784200D03*
D15*
X83077800Y-217784200D03*
D14*
X88157800Y-217784200D03*
D16*
X85617800Y-212704200D03*
X79267800Y-215244200D03*
D12*
X245411300Y-120330800D03*
D13*
X245411300Y-112710800D03*
D16*
X480485000Y-135273750D03*
D12*
X171398800Y-125105800D03*
D13*
X171398800Y-117485800D03*
D14*
X187828200Y-141377200D03*
D15*
X192908200Y-141377200D03*
D14*
X197988200Y-141377200D03*
D16*
X195448200Y-136297200D03*
X189098200Y-138837200D03*
D14*
X75610300Y-198684200D03*
D15*
X80690300Y-198684200D03*
D14*
X85770300Y-198684200D03*
D16*
X83230300Y-193604200D03*
X76880300Y-196144200D03*
D12*
X264511300Y-117943300D03*
D13*
X264511300Y-110323300D03*
D12*
X154686300Y-117943300D03*
D13*
X154686300Y-110323300D03*
D12*
X300323800Y-127493300D03*
D13*
X300323800Y-119873300D03*
D12*
X147523800Y-125105800D03*
D13*
X147523800Y-117485800D03*
D14*
X230803200Y-198677200D03*
D15*
X235883200Y-198677200D03*
D14*
X240963200Y-198677200D03*
D16*
X238423200Y-193597200D03*
X232073200Y-196137200D03*
D12*
X192886300Y-125105800D03*
D13*
X192886300Y-117485800D03*
D12*
X197661300Y-120330800D03*
D13*
X197661300Y-112710800D03*
D14*
X159178200Y-160477200D03*
D15*
X164258200Y-160477200D03*
D14*
X169338200Y-160477200D03*
D16*
X166798200Y-155397200D03*
X160448200Y-157937200D03*
D12*
X257348800Y-125105800D03*
D13*
X257348800Y-117485800D03*
D14*
X457380400Y-161066800D03*
D15*
X462460400Y-161066800D03*
D14*
X467540400Y-161066800D03*
D16*
X465000400Y-155986800D03*
X458650400Y-158526800D03*
D17*
X78340300Y-191684200D03*
D15*
X78340300Y-206924200D03*
D14*
X85160300Y-198684200D03*
D15*
X90240300Y-198684200D03*
D14*
X95320300Y-198684200D03*
D17*
X102140300Y-191684200D03*
D15*
X102140300Y-206924200D03*
D16*
X92780300Y-193604200D03*
X86430300Y-196144200D03*
X259752800Y-217221200D03*
D14*
X254678200Y-160477200D03*
D15*
X259758200Y-160477200D03*
D14*
X264838200Y-160477200D03*
D16*
X262298200Y-155397200D03*
X255948200Y-157937200D03*
D12*
X283611300Y-122718300D03*
D13*
X283611300Y-115098300D03*
D12*
X188111300Y-127493300D03*
D13*
X188111300Y-119873300D03*
D12*
X185723800Y-125105800D03*
D13*
X185723800Y-117485800D03*
D12*
X297936300Y-125105800D03*
D13*
X297936300Y-117485800D03*
D14*
X457380400Y-141966800D03*
D15*
X462460400Y-141966800D03*
D14*
X467540400Y-141966800D03*
D16*
X465000400Y-136886800D03*
X458650400Y-139426800D03*
D21*
X431439000Y-119883800D03*
X420239000Y-119883800D03*
D22*
X428339000Y-112383800D03*
D23*
X423339000Y-112383800D03*
X425839000Y-112383800D03*
X423339000Y-126883800D03*
X428339000Y-126883800D03*
D12*
X169011300Y-127493300D03*
D13*
X169011300Y-119873300D03*
D12*
X290773800Y-117943300D03*
D13*
X290773800Y-110323300D03*
D14*
X99485300Y-217784200D03*
D15*
X104565300Y-217784200D03*
D14*
X109645300Y-217784200D03*
D16*
X107105300Y-212704200D03*
X100755300Y-215244200D03*
D21*
X406029000Y-119896700D03*
X394829000Y-119896700D03*
D22*
X402929000Y-112396700D03*
D23*
X397929000Y-112396700D03*
X400429000Y-112396700D03*
X397929000Y-126896700D03*
X402929000Y-126896700D03*
D16*
X264527800Y-124671700D03*
D12*
X200048800Y-117943300D03*
D13*
X200048800Y-110323300D03*
D12*
X281223800Y-125105800D03*
D13*
X281223800Y-117485800D03*
D12*
X226311300Y-122718300D03*
D13*
X226311300Y-115098300D03*
D14*
X192603200Y-198677200D03*
D15*
X197683200Y-198677200D03*
D14*
X202763200Y-198677200D03*
D16*
X200223200Y-193597200D03*
X193873200Y-196137200D03*
X30936760Y-150806250D03*
D12*
X207211300Y-125105800D03*
D13*
X207211300Y-117485800D03*
D12*
X278836300Y-127493300D03*
D13*
X278836300Y-119873300D03*
D12*
X209598800Y-127493300D03*
D13*
X209598800Y-119873300D03*
D12*
X254961300Y-127493300D03*
D13*
X254961300Y-119873300D03*
D14*
X457380400Y-199266800D03*
D15*
X462460400Y-199266800D03*
D14*
X467540400Y-199266800D03*
D16*
X465000400Y-194186800D03*
X458650400Y-196726800D03*
D24*
X109990300Y-116534200D03*
D25*
X112530300Y-116534200D03*
X115070300Y-116534200D03*
X117610300Y-116534200D03*
X120150300Y-116534200D03*
X122690300Y-116534200D03*
X125230300Y-116534200D03*
X127770300Y-116534200D03*
X127770300Y-108914200D03*
X125230300Y-108914200D03*
X122690300Y-108914200D03*
X120150300Y-108914200D03*
X117610300Y-108914200D03*
X115070300Y-108914200D03*
X112530300Y-108914200D03*
X109990300Y-108914200D03*
D12*
X164236300Y-125105800D03*
D13*
X164236300Y-117485800D03*
D12*
X269286300Y-120330800D03*
D13*
X269286300Y-112710800D03*
D12*
X262123800Y-120330800D03*
D13*
X262123800Y-112710800D03*
D12*
X240636300Y-120330800D03*
D13*
X240636300Y-112710800D03*
D12*
X293161300Y-120330800D03*
D13*
X293161300Y-112710800D03*
D14*
X168728200Y-141377200D03*
D15*
X173808200Y-141377200D03*
D14*
X178888200Y-141377200D03*
D16*
X176348200Y-136297200D03*
X169998200Y-138837200D03*
D14*
X97103200Y-198677200D03*
D15*
X102183200Y-198677200D03*
D14*
X107263200Y-198677200D03*
D16*
X104723200Y-193597200D03*
X98373200Y-196137200D03*
D14*
X335847800Y-160484200D03*
D15*
X340927800Y-160484200D03*
D14*
X346007800Y-160484200D03*
D16*
X343467800Y-155404200D03*
X337117800Y-157944200D03*
D12*
X204823800Y-122718300D03*
D13*
X204823800Y-115098300D03*
D12*
X285998800Y-120330800D03*
D13*
X285998800Y-112710800D03*
D16*
X30936760Y-214453750D03*
D14*
X173503200Y-198677200D03*
D15*
X178583200Y-198677200D03*
D14*
X183663200Y-198677200D03*
D16*
X181123200Y-193597200D03*
X174773200Y-196137200D03*
X277687800Y-111779200D03*
D12*
X307486300Y-122718300D03*
D13*
X307486300Y-115098300D03*
D12*
X223923800Y-120330800D03*
D13*
X223923800Y-112710800D03*
D14*
X211703200Y-198677200D03*
D15*
X216783200Y-198677200D03*
D14*
X221863200Y-198677200D03*
D16*
X219323200Y-193597200D03*
X212973200Y-196137200D03*
D14*
X278553200Y-179577200D03*
D15*
X283633200Y-179577200D03*
D14*
X288713200Y-179577200D03*
D16*
X286173200Y-174497200D03*
X279823200Y-177037200D03*
D14*
X154403200Y-198677200D03*
D15*
X159483200Y-198677200D03*
D14*
X164563200Y-198677200D03*
D16*
X162023200Y-193597200D03*
X155673200Y-196137200D03*
D14*
X183053200Y-179577200D03*
D15*
X188133200Y-179577200D03*
D14*
X193213200Y-179577200D03*
D16*
X190673200Y-174497200D03*
X184323200Y-177037200D03*
X111727800Y-208239200D03*
D14*
X292878200Y-160477200D03*
D15*
X297958200Y-160477200D03*
D14*
X303038200Y-160477200D03*
D16*
X300498200Y-155397200D03*
X294148200Y-157937200D03*
D12*
X219148800Y-120330800D03*
D13*
X219148800Y-112710800D03*
D14*
X420764400Y-119876800D03*
D15*
X425844400Y-119876800D03*
D14*
X430924400Y-119876800D03*
D16*
X428384400Y-114796800D03*
X422034400Y-117336800D03*
D12*
X178561300Y-117943300D03*
D13*
X178561300Y-110323300D03*
D14*
X163953200Y-179577200D03*
D15*
X169033200Y-179577200D03*
D14*
X174113200Y-179577200D03*
D16*
X171573200Y-174497200D03*
X165223200Y-177037200D03*
D14*
X216478200Y-160477200D03*
D15*
X221558200Y-160477200D03*
D14*
X226638200Y-160477200D03*
D16*
X224098200Y-155397200D03*
X217748200Y-157937200D03*
D14*
X111428200Y-141377200D03*
D15*
X116508200Y-141377200D03*
D14*
X121588200Y-141377200D03*
D16*
X119048200Y-136297200D03*
X112698200Y-138837200D03*
D14*
X297653200Y-179577200D03*
D15*
X302733200Y-179577200D03*
D14*
X307813200Y-179577200D03*
D16*
X305273200Y-174497200D03*
X298923200Y-177037200D03*
D12*
X243023800Y-117943300D03*
D13*
X243023800Y-110323300D03*
D16*
X480485000Y-198921250D03*
D12*
X211986300Y-127493300D03*
D13*
X211986300Y-119873300D03*
D12*
X176173800Y-120330800D03*
D13*
X176173800Y-112710800D03*
D12*
X305098800Y-125105800D03*
D13*
X305098800Y-117485800D03*
D12*
X142748800Y-127493300D03*
D13*
X142748800Y-119873300D03*
D15*
X150065300Y-209519200D03*
D17*
X150065300Y-224759200D03*
D14*
X194985300Y-217759200D03*
D15*
X200065300Y-217759200D03*
D14*
X205145300Y-217759200D03*
D15*
X250065300Y-209519200D03*
D17*
X250065300Y-224759200D03*
D16*
X202605300Y-212679200D03*
X196255300Y-215219200D03*
D15*
X155002800Y-209519200D03*
D17*
X155002800Y-224759200D03*
D14*
X206922800Y-217759200D03*
D15*
X212002800Y-217759200D03*
D14*
X217082800Y-217759200D03*
D15*
X269002800Y-209519200D03*
D17*
X269002800Y-224759200D03*
D16*
X214542800Y-212679200D03*
X208192800Y-215219200D03*
D14*
X314360300Y-198684200D03*
D15*
X319440300Y-198684200D03*
D14*
X324520300Y-198684200D03*
D16*
X321980300Y-193604200D03*
X315630300Y-196144200D03*
X480485000Y-167097500D03*
D15*
X221590300Y-209489200D03*
D17*
X221590300Y-224729200D03*
D14*
X228410300Y-217729200D03*
D15*
X233490300Y-217729200D03*
D14*
X238570300Y-217729200D03*
D15*
X245390300Y-209489200D03*
D17*
X245390300Y-224729200D03*
D16*
X236030300Y-212649200D03*
X229680300Y-215189200D03*
D12*
X247798800Y-122718300D03*
D13*
X247798800Y-115098300D03*
D14*
X73228200Y-141377200D03*
D15*
X78308200Y-141377200D03*
D14*
X83388200Y-141377200D03*
D16*
X80848200Y-136297200D03*
X74498200Y-138837200D03*
D12*
X233473800Y-127493300D03*
D13*
X233473800Y-119873300D03*
D14*
X259453200Y-179577200D03*
D15*
X264533200Y-179577200D03*
D14*
X269613200Y-179577200D03*
D16*
X267073200Y-174497200D03*
X260723200Y-177037200D03*
D14*
X266610300Y-217784200D03*
D15*
X271690300Y-217784200D03*
D14*
X276770300Y-217784200D03*
D16*
X274230300Y-212704200D03*
X267880300Y-215244200D03*
D26*
X46370400Y-146576800D03*
D27*
X42870400Y-146576800D03*
X46370400Y-220076800D03*
D28*
X40420400Y-150726800D03*
X48820400Y-151926800D03*
X48820400Y-214726800D03*
X40420400Y-215926800D03*
D14*
X402694200Y-198581800D03*
D15*
X407774200Y-198581800D03*
D14*
X412854200Y-198581800D03*
D16*
X410314200Y-193501800D03*
X403964200Y-196041800D03*
D17*
X321865300Y-172584200D03*
D15*
X321865300Y-187824200D03*
D14*
X328685300Y-179584200D03*
D15*
X333765300Y-179584200D03*
D14*
X338845300Y-179584200D03*
D17*
X345665300Y-172584200D03*
D15*
X345665300Y-187824200D03*
D16*
X336305300Y-174504200D03*
X329955300Y-177044200D03*
D12*
X137973800Y-122718300D03*
D13*
X137973800Y-115098300D03*
D16*
X314665300Y-150934200D03*
D17*
X149965300Y-210251200D03*
D15*
X149965300Y-225491200D03*
D14*
X156785300Y-217251200D03*
D15*
X161865300Y-217251200D03*
D14*
X166945300Y-217251200D03*
D17*
X173765300Y-210251200D03*
D15*
X173765300Y-225491200D03*
D16*
X164405300Y-212171200D03*
X158055300Y-214711200D03*
D12*
X133198800Y-117943300D03*
D13*
X133198800Y-110323300D03*
D12*
X161848800Y-122718300D03*
D13*
X161848800Y-115098300D03*
D12*
X140361300Y-125105800D03*
D13*
X140361300Y-117485800D03*
D16*
X221552800Y-150934200D03*
D24*
X109990300Y-128246700D03*
D25*
X112530300Y-128246700D03*
X115070300Y-128246700D03*
X117610300Y-128246700D03*
X120150300Y-128246700D03*
X122690300Y-128246700D03*
X125230300Y-128246700D03*
X127770300Y-128246700D03*
X127770300Y-120626700D03*
X125230300Y-120626700D03*
X122690300Y-120626700D03*
X120150300Y-120626700D03*
X117610300Y-120626700D03*
X115070300Y-120626700D03*
X112530300Y-120626700D03*
X109990300Y-120626700D03*
D14*
X80385300Y-179584200D03*
D15*
X85465300Y-179584200D03*
D14*
X90545300Y-179584200D03*
D16*
X88005300Y-174504200D03*
X81655300Y-177044200D03*
D12*
X228698800Y-125105800D03*
D13*
X228698800Y-117485800D03*
D12*
X149911300Y-122718300D03*
D13*
X149911300Y-115098300D03*
D12*
X166623800Y-127493300D03*
D13*
X166623800Y-119873300D03*
D14*
X221253200Y-179577200D03*
D15*
X226333200Y-179577200D03*
D14*
X231413200Y-179577200D03*
D16*
X228873200Y-174497200D03*
X222523200Y-177037200D03*
D12*
X216761300Y-122718300D03*
D13*
X216761300Y-115098300D03*
D14*
X302428200Y-141377200D03*
D15*
X307508200Y-141377200D03*
D14*
X312588200Y-141377200D03*
D16*
X310048200Y-136297200D03*
X303698200Y-138837200D03*
D14*
X202153200Y-179577200D03*
D15*
X207233200Y-179577200D03*
D14*
X212313200Y-179577200D03*
D16*
X209773200Y-174497200D03*
X203423200Y-177037200D03*
D14*
X149628200Y-141377200D03*
D15*
X154708200Y-141377200D03*
D14*
X159788200Y-141377200D03*
D16*
X157248200Y-136297200D03*
X150898200Y-138837200D03*
D12*
X190498800Y-127493300D03*
D13*
X190498800Y-119873300D03*
D12*
X195273800Y-122718300D03*
D13*
X195273800Y-115098300D03*
D14*
X457380400Y-122914400D03*
D15*
X462460400Y-122914400D03*
D14*
X467540400Y-122914400D03*
D16*
X465000400Y-117834400D03*
X458650400Y-120374400D03*
D14*
X125747800Y-217784200D03*
D15*
X130827800Y-217784200D03*
D14*
X135907800Y-217784200D03*
D16*
X133367800Y-212704200D03*
X127017800Y-215244200D03*
D14*
X101878200Y-160477200D03*
D15*
X106958200Y-160477200D03*
D14*
X112038200Y-160477200D03*
D16*
X109498200Y-155397200D03*
X103148200Y-157937200D03*
D12*
X252573800Y-127493300D03*
D13*
X252573800Y-119873300D03*
D14*
X245128200Y-141377200D03*
D15*
X250208200Y-141377200D03*
D14*
X255288200Y-141377200D03*
D16*
X252748200Y-136297200D03*
X246398200Y-138837200D03*
D12*
X238248800Y-122718300D03*
D13*
X238248800Y-115098300D03*
D14*
X116203200Y-198677200D03*
D15*
X121283200Y-198677200D03*
D14*
X126363200Y-198677200D03*
D16*
X123823200Y-193597200D03*
X117473200Y-196137200D03*
D14*
X106653200Y-179577200D03*
D15*
X111733200Y-179577200D03*
D14*
X116813200Y-179577200D03*
D16*
X114273200Y-174497200D03*
X107923200Y-177037200D03*
D12*
X202436300Y-120330800D03*
D13*
X202436300Y-112710800D03*
D14*
X75610300Y-217784200D03*
D15*
X80690300Y-217784200D03*
D14*
X85770300Y-217784200D03*
D16*
X83230300Y-212704200D03*
X76880300Y-215244200D03*
D12*
X152298800Y-120330800D03*
D13*
X152298800Y-112710800D03*
D14*
X316753200Y-179577200D03*
D15*
X321833200Y-179577200D03*
D14*
X326913200Y-179577200D03*
D16*
X324373200Y-174497200D03*
X318023200Y-177037200D03*
D29*
X106952800Y-110346700D03*
X106952800Y-115346700D03*
D14*
X421794200Y-217681800D03*
D15*
X426874200Y-217681800D03*
D14*
X431954200Y-217681800D03*
D16*
X429414200Y-212601800D03*
X423064200Y-215141800D03*
D14*
X395354400Y-119889700D03*
D15*
X400434400Y-119889700D03*
D14*
X405514400Y-119889700D03*
D16*
X402974400Y-114809700D03*
X396624400Y-117349700D03*
D14*
X101870400Y-217796800D03*
D15*
X106950400Y-217796800D03*
D14*
X112030400Y-217796800D03*
D16*
X109490400Y-212716800D03*
X103140400Y-215256800D03*
D14*
X240353200Y-179577200D03*
D15*
X245433200Y-179577200D03*
D14*
X250513200Y-179577200D03*
D16*
X247973200Y-174497200D03*
X241623200Y-177037200D03*
D14*
X206928200Y-141377200D03*
D15*
X212008200Y-141377200D03*
D14*
X217088200Y-141377200D03*
D16*
X214548200Y-136297200D03*
X208198200Y-138837200D03*
X183352800Y-217784200D03*
D14*
X273778200Y-160477200D03*
D15*
X278858200Y-160477200D03*
D14*
X283938200Y-160477200D03*
D16*
X281398200Y-155397200D03*
X275048200Y-157937200D03*
D14*
X226028200Y-141377200D03*
D15*
X231108200Y-141377200D03*
D14*
X236188200Y-141377200D03*
D16*
X233648200Y-136297200D03*
X227298200Y-138837200D03*
D14*
X197378200Y-160477200D03*
D15*
X202458200Y-160477200D03*
D14*
X207538200Y-160477200D03*
D16*
X204998200Y-155397200D03*
X198648200Y-157937200D03*
D12*
X159461300Y-120330800D03*
D13*
X159461300Y-112710800D03*
D14*
X269003200Y-198677200D03*
D15*
X274083200Y-198677200D03*
D14*
X279163200Y-198677200D03*
D16*
X276623200Y-193597200D03*
X270273200Y-196137200D03*
D12*
X235861300Y-125105800D03*
D13*
X235861300Y-117485800D03*
D16*
X336152800Y-208234200D03*
D14*
X190210300Y-217784200D03*
D15*
X195290300Y-217784200D03*
D14*
X200370300Y-217784200D03*
D16*
X197830300Y-212704200D03*
X191480300Y-215244200D03*
D12*
X309928000Y-125055000D03*
D13*
X309928000Y-117435000D03*
D12*
X274061300Y-125105800D03*
D13*
X274061300Y-117485800D03*
D12*
X288386300Y-117943300D03*
D13*
X288386300Y-110323300D03*
D30*
X376272800Y-182789200D03*
X437232800Y-182789200D03*
X376272800Y-147229200D03*
X437232800Y-147229200D03*
D31*
X437232800Y-153579200D03*
X437232800Y-156119200D03*
X437232800Y-158659200D03*
X437232800Y-161199200D03*
X437232800Y-163739200D03*
X437232800Y-166279200D03*
X437232800Y-168819200D03*
X437232800Y-171359200D03*
X437232800Y-173899200D03*
X437232800Y-176439200D03*
D14*
X340628200Y-141377200D03*
D15*
X345708200Y-141377200D03*
D14*
X350788200Y-141377200D03*
D16*
X348248200Y-136297200D03*
X341898200Y-138837200D03*
D29*
X106952800Y-122059200D03*
X106952800Y-127059200D03*
D14*
X321528200Y-141377200D03*
D15*
X326608200Y-141377200D03*
D14*
X331688200Y-141377200D03*
D16*
X329148200Y-136297200D03*
X322798200Y-138837200D03*
D12*
X157073800Y-117943300D03*
D13*
X157073800Y-110323300D03*
D12*
X221536300Y-117943300D03*
D13*
X221536300Y-110323300D03*
D20*
X97402800Y-177044200D03*
D19*
X97402800Y-179584200D03*
X97402800Y-182124200D03*
%LPD*%
M02*
