M48
; DRILL file {KiCad 8.0.3} date 2024-09-11T17:02:57-0400
; FORMAT={-:-/ absolute / inch / decimal}
; #@! TF.CreationDate,2024-09-11T17:02:57-04:00
; #@! TF.GenerationSoftware,Kicad,Pcbnew,8.0.3
; #@! TF.FileFunction,Plated,1,2,PTH
FMAT,2
INCH
; #@! TA.AperFunction,Plated,PTH,ViaDrill
T1C0.0157
; #@! TA.AperFunction,Plated,PTH,ComponentDrill
T2C0.0295
; #@! TA.AperFunction,Plated,PTH,ComponentDrill
T3C0.0300
; #@! TA.AperFunction,Plated,PTH,ComponentDrill
T4C0.0315
; #@! TA.AperFunction,Plated,PTH,ComponentDrill
T5C0.0394
; #@! TA.AperFunction,Plated,PTH,ComponentDrill
T6C0.0402
; #@! TA.AperFunction,Plated,PTH,ComponentDrill
T7C0.0472
; #@! TA.AperFunction,Plated,PTH,ComponentDrill
T8C0.0591
; #@! TA.AperFunction,Plated,PTH,ComponentDrill
T9C0.0669
%
G90
G05
T1
X1.4743Y-5.3181
X2.157Y-8.4181
X2.2009Y-5.3224
X2.3199Y-4.8574
X2.3719Y-5.3084
X2.4344Y-8.3957
X2.6779Y-4.6654
X2.6979Y-4.8314
X2.7423Y-5.3876
X2.8779Y-5.3174
X3.4919Y-4.6374
X3.5419Y-4.6514
X3.5729Y-4.2374
X3.6829Y-4.3854
X3.7189Y-4.4084
X3.7589Y-4.4314
X3.7759Y-4.5744
X3.7877Y-7.4964
X3.8079Y-4.6044
X3.8472Y-4.7019
X4.946Y-4.9354
X4.9695Y-5.2776
X5.1507Y-4.8143
X5.1507Y-4.9083
X5.3318Y-5.3055
X12.5409Y-4.9264
X13.0798Y-5.0456
X13.9439Y-7.6504
X15.1019Y-5.3584
X17.3029Y-4.8324
T2
X5.244Y-4.3434
X5.244Y-4.6434
X5.338Y-4.4374
X5.338Y-4.7374
X5.432Y-4.5314
X5.432Y-4.8314
X5.526Y-4.6254
X5.526Y-4.9254
X5.62Y-4.7194
X5.62Y-5.0194
X5.714Y-4.7194
X5.714Y-5.0194
X5.808Y-4.6254
X5.808Y-4.9254
X5.902Y-4.5314
X5.902Y-4.8314
X5.996Y-4.4374
X5.996Y-4.7374
X6.09Y-4.3434
X6.09Y-4.6434
X6.184Y-4.3434
X6.184Y-4.6434
X6.278Y-4.4374
X6.278Y-4.7374
X6.372Y-4.5314
X6.372Y-4.8314
X6.466Y-4.6254
X6.466Y-4.9254
X6.56Y-4.7194
X6.56Y-5.0194
X6.654Y-4.7194
X6.654Y-5.0194
X6.748Y-4.6254
X6.748Y-4.9254
X6.842Y-4.5314
X6.842Y-4.8314
X6.936Y-4.4374
X6.936Y-4.7374
X7.03Y-4.3434
X7.03Y-4.6434
X7.124Y-4.4374
X7.124Y-4.7374
X7.218Y-4.5314
X7.218Y-4.8314
X7.312Y-4.6254
X7.312Y-4.9254
X7.406Y-4.7194
X7.406Y-5.0194
X7.5Y-4.7194
X7.5Y-5.0194
X7.5939Y-4.6254
X7.5939Y-4.9254
X7.6879Y-4.5314
X7.6879Y-4.8314
X7.7819Y-4.4374
X7.7819Y-4.7374
X7.8759Y-4.3434
X7.8759Y-4.6434
X7.9699Y-4.4374
X7.9699Y-4.7374
X8.0639Y-4.5314
X8.0639Y-4.8314
X8.1579Y-4.6254
X8.1579Y-4.9254
X8.2519Y-4.7194
X8.2519Y-5.0194
X8.3459Y-4.7194
X8.3459Y-5.0194
X8.4399Y-4.6254
X8.4399Y-4.9254
X8.5339Y-4.5314
X8.5339Y-4.8314
X8.6279Y-4.4374
X8.6279Y-4.7374
X8.7219Y-4.3434
X8.7219Y-4.6434
X8.8159Y-4.4374
X8.8159Y-4.7374
X8.9099Y-4.5314
X8.9099Y-4.8314
X9.0039Y-4.6254
X9.0039Y-4.9254
X9.0979Y-4.7194
X9.0979Y-5.0194
X9.1919Y-4.7194
X9.1919Y-5.0194
X9.2859Y-4.6254
X9.2859Y-4.9254
X9.3799Y-4.5314
X9.3799Y-4.8314
X9.4739Y-4.4374
X9.4739Y-4.7374
X9.5679Y-4.3434
X9.5679Y-4.6434
X9.6619Y-4.4374
X9.6619Y-4.7374
X9.7559Y-4.5314
X9.7559Y-4.8314
X9.8499Y-4.6254
X9.8499Y-4.9254
X9.9439Y-4.7194
X9.9439Y-5.0194
X10.0378Y-4.7194
X10.0378Y-5.0194
X10.1318Y-4.6254
X10.1318Y-4.9254
X10.2258Y-4.5314
X10.2258Y-4.8314
X10.3198Y-4.4374
X10.3198Y-4.7374
X10.4138Y-4.3434
X10.4138Y-4.6434
X10.5078Y-4.3434
X10.5078Y-4.6434
X10.6018Y-4.4374
X10.6018Y-4.7374
X10.6958Y-4.5314
X10.6958Y-4.8314
X10.7898Y-4.6254
X10.7898Y-4.9254
X10.8838Y-4.7194
X10.8838Y-5.0194
X10.9778Y-4.7194
X10.9778Y-5.0194
X11.0718Y-4.6254
X11.0718Y-4.9254
X11.1658Y-4.5314
X11.1658Y-4.8314
X11.2598Y-4.4374
X11.2598Y-4.7374
X11.3538Y-4.3434
X11.3538Y-4.6434
X11.4478Y-4.3434
X11.4478Y-4.6434
X11.5418Y-4.4374
X11.5418Y-4.7374
X11.6358Y-4.5314
X11.6358Y-4.8314
X11.7298Y-4.6254
X11.7298Y-4.9254
X11.8238Y-4.7194
X11.8238Y-5.0194
X11.9178Y-4.7194
X11.9178Y-5.0194
X12.0118Y-4.6254
X12.0118Y-4.9254
X12.1058Y-4.5314
X12.1058Y-4.8314
X12.2019Y-4.6234
X12.2019Y-4.9234
T3
X17.2139Y-6.0464
X17.2139Y-6.1464
X17.2139Y-6.2464
X17.2139Y-6.3464
X17.2139Y-6.4464
X17.2139Y-6.5464
X17.2139Y-6.6464
X17.2139Y-6.7464
X17.2139Y-6.8464
X17.2139Y-6.9464
T4
X4.2107Y-4.3444
X4.2107Y-4.5412
X4.2107Y-4.8055
X4.2107Y-5.0023
X4.3303Y-4.288
X4.3303Y-4.588
X4.3303Y-4.7491
X4.3303Y-5.0491
X4.4303Y-4.288
X4.4303Y-4.588
X4.4303Y-4.7491
X4.4303Y-5.0491
X4.5303Y-4.288
X4.5303Y-4.588
X4.5303Y-4.7491
X4.5303Y-5.0491
X4.6303Y-4.288
X4.6303Y-4.588
X4.6303Y-4.7491
X4.6303Y-5.0491
X4.7303Y-4.288
X4.7303Y-4.588
X4.7303Y-4.7491
X4.7303Y-5.0491
X4.8303Y-4.288
X4.8303Y-4.588
X4.8303Y-4.7491
X4.8303Y-5.0491
X4.9303Y-4.288
X4.9303Y-4.588
X4.9303Y-4.7491
X4.9303Y-5.0491
X5.0303Y-4.288
X5.0303Y-4.588
X5.0303Y-4.7491
X5.0303Y-5.0491
T5
X3.8348Y-6.9702
X3.8348Y-7.0702
X3.8348Y-7.1702
X15.1839Y-4.5988
X15.1839Y-4.6988
X15.1839Y-4.7988
X15.1839Y-4.8988
X15.6665Y-4.4251
X15.6665Y-4.9959
X15.7649Y-4.4251
X15.8633Y-4.4251
X15.8633Y-4.9959
X16.6669Y-4.4246
X16.6669Y-4.9954
X16.7653Y-4.4246
X16.8637Y-4.4246
X16.8637Y-4.9954
T6
X1.3279Y-4.2924
X1.3279Y-4.9924
X1.4279Y-4.2924
X1.4279Y-4.9924
X1.5279Y-4.2924
X1.5279Y-4.9924
X1.6279Y-4.2924
X1.6279Y-4.9924
X1.7279Y-4.2924
X1.7279Y-4.9924
X1.8279Y-4.2924
X1.8279Y-4.9924
X1.9279Y-4.2924
X1.9279Y-4.9924
X2.0279Y-4.2924
X2.0279Y-4.9924
X2.1279Y-4.2924
X2.1279Y-4.9924
X2.2279Y-4.2924
X2.2279Y-4.9924
X2.3279Y-4.2924
X2.3279Y-4.9924
X2.4279Y-4.2924
X2.4279Y-4.9924
X2.5279Y-4.2924
X2.5279Y-4.9924
X2.6279Y-4.2924
X2.6279Y-4.9924
X2.7279Y-4.2924
X2.7279Y-4.9924
X2.8279Y-4.2924
X2.8279Y-4.9924
X2.9279Y-4.2924
X2.9279Y-4.9924
X3.0279Y-4.2924
X3.0279Y-4.9924
X3.1279Y-4.2924
X3.1279Y-4.9924
X3.2188Y-4.5424
X3.2188Y-4.6424
X3.2188Y-4.7424
X3.2279Y-4.2924
X3.2279Y-4.9924
T7
X1.6878Y-5.7707
X1.8256Y-5.7707
X1.8256Y-8.6644
T8
X2.933Y-5.466
X3.0268Y-6.9702
X3.0268Y-7.7222
X3.0268Y-8.4742
X3.1208Y-6.2183
X3.1208Y-8.4742
X3.183Y-5.366
X3.2148Y-6.9702
X3.2768Y-6.8702
X3.2768Y-7.6222
X3.2768Y-8.3742
X3.3708Y-6.1183
X3.3708Y-8.3742
X3.4028Y-7.7222
X3.4648Y-6.8702
X3.6528Y-7.6222
X3.685Y-5.466
X3.873Y-7.7219
X3.935Y-5.366
X3.9667Y-8.4742
X4.0606Y-8.4747
X4.061Y-6.218
X4.123Y-7.6219
X4.2167Y-8.3742
X4.2489Y-6.97
X4.3106Y-8.3747
X4.311Y-6.118
X4.4369Y-5.466
X4.4989Y-6.87
X4.6249Y-7.7219
X4.6869Y-5.366
X4.8129Y-6.218
X4.8749Y-7.6219
X4.907Y-8.4742
X5.0007Y-8.4742
X5.0009Y-6.97
X5.0629Y-6.118
X5.157Y-8.3742
X5.1889Y-5.466
X5.2507Y-8.3742
X5.2509Y-6.87
X5.3769Y-7.7219
X5.4389Y-5.366
X5.5649Y-6.218
X5.6269Y-7.6219
X5.7529Y-6.97
X5.8149Y-6.118
X5.9409Y-5.466
X6.0029Y-6.87
X6.1289Y-7.7219
X6.1909Y-5.366
X6.2226Y-8.4532
X6.3169Y-6.218
X6.3789Y-7.6219
X6.4726Y-8.3532
X6.5049Y-6.97
X6.5669Y-6.118
X6.6928Y-5.466
X6.7549Y-6.87
X6.8808Y-7.7219
X6.9428Y-5.366
X7.0688Y-6.218
X7.1308Y-7.6219
X7.2568Y-6.97
X7.3188Y-6.118
X7.4448Y-5.466
X7.5068Y-6.87
X7.5386Y-8.4742
X7.6328Y-7.7219
X7.6948Y-5.366
X7.7266Y-8.4732
X7.7886Y-8.3742
X7.8208Y-6.218
X7.8828Y-7.6219
X7.9766Y-8.3732
X8.0088Y-6.97
X8.0708Y-6.118
X8.1966Y-8.4732
X8.1968Y-5.466
X8.2588Y-6.87
X8.3848Y-7.7219
X8.4466Y-8.3732
X8.4468Y-5.366
X8.5728Y-6.218
X8.6348Y-7.6219
X8.7608Y-6.97
X8.8228Y-6.118
X8.9487Y-5.466
X9.0108Y-6.87
X9.0425Y-8.472
X9.1367Y-7.7219
X9.1987Y-5.366
X9.2925Y-8.372
X9.3247Y-6.218
X9.3867Y-7.6219
X9.5127Y-6.97
X9.5747Y-6.118
X9.7007Y-5.466
X9.7627Y-6.87
X9.8887Y-7.7219
X9.9507Y-5.366
X10.0767Y-6.218
X10.1387Y-7.6219
X10.2647Y-6.97
X10.3267Y-6.118
X10.4527Y-5.466
X10.5147Y-6.87
X10.5465Y-8.4742
X10.6407Y-7.7219
X10.7027Y-5.366
X10.7965Y-8.3742
X10.8287Y-6.218
X10.8907Y-7.6219
X11.0167Y-6.97
X11.0787Y-6.118
X11.2047Y-5.466
X11.2667Y-6.87
X11.3924Y-8.4742
X11.3926Y-7.7219
X11.4547Y-5.366
X11.4864Y-8.4742
X11.5806Y-6.218
X11.6424Y-8.3742
X11.6426Y-7.6219
X11.7364Y-8.3742
X11.7686Y-6.97
X11.8306Y-6.118
X11.9566Y-5.466
X12.0186Y-6.87
X12.2066Y-5.366
X12.3326Y-6.218
X12.4264Y-7.7222
X12.5206Y-6.97
X12.5826Y-6.118
X12.6764Y-7.6222
X12.7086Y-5.466
X12.7706Y-6.87
X12.9586Y-5.366
X12.9904Y-6.9702
X13.0844Y-5.4663
X13.2404Y-6.8702
X13.2724Y-6.2183
X13.3344Y-5.3663
X13.4606Y-5.466
X13.5224Y-6.1183
X13.6164Y-6.5443
X13.7106Y-5.366
X13.7164Y-6.7943
X15.1488Y-8.47
X15.3988Y-8.37
X15.6151Y-4.6201
X15.8651Y-4.5201
X15.9041Y-7.7182
X15.9041Y-8.4701
X16.1541Y-7.6182
X16.1541Y-8.3701
X16.6155Y-4.6196
X16.6561Y-8.4701
X16.8655Y-4.5196
X16.9061Y-8.3701
X18.0571Y-4.7391
X18.0571Y-5.4892
X18.0571Y-6.2412
X18.0571Y-6.9932
X18.0571Y-7.7451
X18.3071Y-4.6391
X18.3071Y-5.3892
X18.3071Y-6.1412
X18.3071Y-6.8932
X18.3071Y-7.6451
T9
X1.5914Y-5.9341
X1.5914Y-8.5011
X1.9221Y-5.9814
X1.9221Y-8.4538
M30
